<svg width="32" height="32" viewBox="0 0 32 32" fill="none" xmlns="http://www.w3.org/2000/svg">
<rect width="32" height="32" rx="4" fill="url(#paint0_linear)"/>
<g clip-path="url(#clip0)">
<path d="M21.3334 16.5834V19.962C21.3334 21.798 17.474 22.6667 15.3334 22.6667C13.2987 22.6667 9.33337 21.7387 9.33337 19.962V15.766L15.3334 19.008L21.3334 16.5834ZM15.9447 9.33337L7.33337 13.1667L15.3334 17.5L22.6667 14.5554V19.3334H24V13.8334L15.9447 9.33337ZM24.6667 22.6667H22C22.3854 22 22.6667 21 22.6667 20H24C24 21.0107 24.2607 21.906 24.6667 22.6667Z" fill="white"/>
</g>
<defs>
<linearGradient id="paint0_linear" x1="5.09363" y1="-5.90791e-08" x2="31.0413" y2="36.5417" gradientUnits="userSpaceOnUse">
<stop stop-color="#197CD7"/>
<stop offset="1" stop-color="#0048B4"/>
</linearGradient>
<clipPath id="clip0">
<rect width="16" height="16" fill="white" transform="translate(8 8)"/>
</clipPath>
</defs>
</svg>
