<svg width="32" height="32" viewBox="0 0 32 32" fill="none" xmlns="http://www.w3.org/2000/svg">
<rect width="32" height="32" rx="4" fill="url(#paint0_linear)"/>
<path d="M10.4475 9.88831C10.447 9.88831 10.4465 9.88831 10.4461 9.88831C10.2948 9.88831 10.1525 9.9473 10.045 10.0545C9.93632 10.1629 9.87646 10.3072 9.87646 10.4609V19.0462C9.87646 19.361 10.1336 19.6178 10.4497 19.6186C11.7824 19.6218 14.0152 19.8995 15.5555 21.5115V12.5266C15.5555 12.4199 15.5283 12.3197 15.4768 12.2367C14.2126 10.2008 11.7832 9.89143 10.4475 9.88831Z" fill="white"/>
<path d="M22.1235 19.0461V10.4607C22.1235 10.3071 22.0636 10.1628 21.9549 10.0544C21.8475 9.94717 21.705 9.88818 21.5539 9.88818C21.5534 9.88818 21.5529 9.88818 21.5525 9.88818C20.2168 9.89136 17.7874 10.2007 16.5231 12.2366C16.4717 12.3196 16.4445 12.4199 16.4445 12.5266V21.5113C17.9848 19.8994 20.2176 19.6217 21.5503 19.6185C21.8663 19.6177 22.1235 19.3609 22.1235 19.0461Z" fill="white"/>
<path d="M23.4276 11.8682H23.0125V19.0462C23.0125 19.85 22.3575 20.5054 21.5525 20.5074C20.4221 20.5101 18.5582 20.7312 17.2382 21.9805C19.5212 21.4215 21.9278 21.7849 23.2994 22.0975C23.4707 22.1365 23.6477 22.0962 23.7849 21.9868C23.9216 21.8777 24 21.7147 24 21.5396V12.4406C24.0001 12.125 23.7432 11.8682 23.4276 11.8682Z" fill="white"/>
<path d="M8.98759 19.0462V11.8682H8.57245C8.25686 11.8682 8 12.125 8 12.4406V21.5395C8 21.7146 8.07844 21.8776 8.21517 21.9867C8.35227 22.096 8.52908 22.1364 8.70061 22.0973C10.0722 21.7847 12.4789 21.4214 14.7618 21.9804C13.4418 20.7311 11.578 20.5101 10.4476 20.5074C9.64256 20.5054 8.98759 19.85 8.98759 19.0462Z" fill="white"/>
<defs>
<linearGradient id="paint0_linear" x1="-7" y1="-10.5" x2="27.2395" y2="33.0627" gradientUnits="userSpaceOnUse">
<stop stop-color="#A06AFF"/>
<stop offset="1" stop-color="#9646FB"/>
</linearGradient>
</defs>
</svg>
