<svg width="32" height="32" viewBox="0 0 32 32" fill="none" xmlns="http://www.w3.org/2000/svg">
<rect width="32" height="32" rx="4" fill="url(#paint0_linear)"/>
<path fill-rule="evenodd" clip-rule="evenodd" d="M8 16C8 11.5888 11.5888 8 16 8C20.4112 8 24 11.5888 24 16C24 20.4112 20.4112 24 16 24C11.5888 24 8 20.4112 8 16ZM18.2381 16.8665L20.0412 12.3588C20.0635 12.3029 20.069 12.2417 20.0569 12.1827C20.0448 12.1237 20.0157 12.0695 19.9731 12.0269C19.9305 11.9843 19.8763 11.9552 19.8173 11.9431C19.7583 11.931 19.6971 11.9365 19.6412 11.9588L15.1335 13.7619C14.8239 13.8857 14.5427 14.0711 14.3069 14.3069C14.0711 14.5427 13.8857 14.8239 13.7619 15.1335L11.9588 19.6412C11.9365 19.6971 11.931 19.7583 11.9431 19.8173C11.9552 19.8763 11.9843 19.9305 12.0269 19.9731C12.0695 20.0157 12.1237 20.0448 12.1827 20.0569C12.2417 20.069 12.3029 20.0635 12.3588 20.0412L16.8665 18.2381C17.1761 18.1143 17.4573 17.9289 17.6931 17.6931C17.9289 17.4573 18.1143 17.1761 18.2381 16.8665ZM16.9231 16C16.9231 16.5098 16.5098 16.9231 16 16.9231C15.4902 16.9231 15.0769 16.5098 15.0769 16C15.0769 15.4902 15.4902 15.0769 16 15.0769C16.5098 15.0769 16.9231 15.4902 16.9231 16Z" fill="white"/>
<defs>
<linearGradient id="paint0_linear" x1="-3" y1="-6.5" x2="30.4326" y2="37.18" gradientUnits="userSpaceOnUse">
<stop stop-color="#FC8C4E"/>
<stop offset="1" stop-color="#DD5F37"/>
</linearGradient>
</defs>
</svg>
