<svg width="32" height="32" viewBox="0 0 32 32" fill="none" xmlns="http://www.w3.org/2000/svg">
<rect width="32" height="32" rx="4" fill="url(#paint0_linear)"/>
<path d="M21.504 12.864L19.136 10.496C18.64 9.96798 17.776 9.96798 17.264 10.496L15.328 12.432V20.896L21.488 14.736C22.032 14.24 22.032 13.36 21.504 12.864Z" fill="white"/>
<path d="M22.6719 18H20.3359L14.3359 24H22.6719C23.4079 24 23.9999 23.408 23.9999 22.672V19.328C23.9999 18.592 23.4079 18 22.6719 18Z" fill="white"/>
<path d="M12.672 8H9.328C8.592 8 8 8.592 8 9.328V20.992C8 22.656 9.328 24 11.008 24C12.688 24 14.016 22.672 14.016 20.992V9.328C14 8.592 13.408 8 12.672 8ZM11.008 22.336C10.272 22.336 9.68 21.744 9.68 21.008C9.68 20.272 10.272 19.68 11.008 19.68C11.744 19.68 12.336 20.272 12.336 21.008C12.336 21.744 11.728 22.336 11.008 22.336Z" fill="white"/>
<defs>
<linearGradient id="paint0_linear" x1="28.6442" y1="32" x2="1.18628" y2="-17.543" gradientUnits="userSpaceOnUse">
<stop stop-color="#10A93B"/>
<stop offset="1" stop-color="#1BC77A"/>
</linearGradient>
</defs>
</svg>
