<svg width="22" height="32" viewBox="0 0 22 32" fill="none" xmlns="http://www.w3.org/2000/svg">
<path fill-rule="evenodd" clip-rule="evenodd" d="M10.6667 3.02297e-05C13.538 3.02297e-05 16.2233 1.10536 18.228 3.11269C19.219 4.10426 20.0036 5.28236 20.5366 6.57894C21.0696 7.87551 21.3404 9.26485 21.3333 10.6667C21.3333 13.8407 20.2053 16.6 18.0707 18.638L17.7433 18.9487L17.7417 18.9502C16.5558 20.0728 14.9333 21.6086 14.9333 22.9333V24.5333C14.9333 24.8162 14.821 25.0875 14.6209 25.2876C14.4209 25.4876 14.1496 25.6 13.8667 25.6H12.2667C12.1252 25.6 11.9896 25.5438 11.8896 25.4438C11.7895 25.3438 11.7334 25.2081 11.7334 25.0667V17.2527C11.7333 17.1448 11.766 17.0395 11.827 16.9506C11.8881 16.8617 11.9747 16.7934 12.0754 16.7547C12.6912 16.504 13.2763 16.1837 13.8194 15.8C14.0311 15.6292 14.1696 15.384 14.2065 15.1144C14.2434 14.8449 14.176 14.5714 14.0179 14.35C13.8598 14.1286 13.6231 13.9759 13.3562 13.9232C13.0893 13.8706 12.8123 13.9219 12.582 14.0667C12.0874 14.4147 11.1374 14.9333 10.6667 14.9333C10.196 14.9333 9.24602 14.416 8.75269 14.0667C8.63946 13.9765 8.50906 13.9103 8.36942 13.8721C8.22979 13.8339 8.08384 13.8246 7.94048 13.8446C7.79711 13.8646 7.65932 13.9137 7.5355 13.9887C7.41168 14.0636 7.30443 14.1631 7.22026 14.2808C7.1361 14.3986 7.07678 14.5323 7.04594 14.6737C7.01509 14.8152 7.01336 14.9614 7.04084 15.1035C7.06832 15.2456 7.12445 15.3807 7.2058 15.5004C7.28715 15.6202 7.39202 15.7221 7.51402 15.8C8.05694 16.1844 8.64208 16.5054 9.25802 16.7567C9.3587 16.7954 9.44527 16.8637 9.50633 16.9526C9.56739 17.0415 9.60005 17.1468 9.60002 17.2547V25.0667C9.60002 25.2081 9.54383 25.3438 9.44381 25.4438C9.34379 25.5438 9.20814 25.6 9.06669 25.6H7.46669C7.18379 25.6 6.91248 25.4876 6.71244 25.2876C6.5124 25.0875 6.40002 24.8162 6.40002 24.5333V22.9333C6.40002 21.576 4.75803 20.038 3.55736 18.9153L3.26669 18.6427C1.19136 16.682 3.02297e-05 13.7747 3.02297e-05 10.6667C-0.00331073 9.26498 0.27031 7.87643 0.805176 6.58078C1.34004 5.28514 2.12561 4.10793 3.11677 3.11677C4.10793 2.12561 5.28514 1.34004 6.58078 0.805176C7.87643 0.27031 9.26498 -0.00331073 10.6667 3.02297e-05ZM13.8651 26.6667H7.4651C7.1822 26.6667 6.91089 26.779 6.71085 26.9791C6.51081 27.1791 6.39843 27.4504 6.39843 27.7333C6.39843 28.0162 6.51081 28.2875 6.71085 28.4876C6.91089 28.6876 7.1822 28.8 7.4651 28.8H13.8651C14.148 28.8 14.4193 28.6876 14.6193 28.4876C14.8194 28.2875 14.9318 28.0162 14.9318 27.7333C14.9318 27.4504 14.8194 27.1791 14.6193 26.9791C14.4193 26.779 14.148 26.6667 13.8651 26.6667ZM12.7969 29.8667H8.5302C8.24731 29.8667 7.976 29.9791 7.77596 30.1791C7.57592 30.3792 7.46354 30.6505 7.46354 30.9334C7.46354 31.2163 7.57592 31.4876 7.77596 31.6876C7.976 31.8877 8.24731 32 8.5302 32H12.7969C13.0798 32 13.3511 31.8877 13.5511 31.6876C13.7512 31.4876 13.8635 31.2163 13.8635 30.9334C13.8635 30.6505 13.7512 30.3792 13.5511 30.1791C13.3511 29.9791 13.0798 29.8667 12.7969 29.8667Z" fill="url(#paint0_linear)"/>
<defs>
<linearGradient id="paint0_linear" x1="23.3335" y1="38" x2="-5.44469" y2="11.0013" gradientUnits="userSpaceOnUse">
<stop stop-color="#E19500"/>
<stop offset="1" stop-color="#F0B747"/>
</linearGradient>
</defs>
</svg>
