<svg width="32" height="32" viewBox="0 0 32 32" fill="none" xmlns="http://www.w3.org/2000/svg">
<rect width="32" height="32" rx="4" fill="url(#paint0_linear)"/>
<rect width="32" height="32" rx="4" stroke="#EAF2FA"/>
<path fill-rule="evenodd" clip-rule="evenodd" d="M15.933 8.00002C17.3686 8.00002 18.7113 8.55268 19.7136 9.55635C20.2091 10.0521 20.6014 10.6412 20.8679 11.2895C21.1344 11.9378 21.2698 12.6324 21.2663 13.3333C21.2663 14.9203 20.7023 16.3 19.6349 17.319L19.4713 17.4743L19.4705 17.4751C18.8775 18.0364 18.0663 18.8043 18.0663 19.4667V20.2667C18.0663 20.4081 18.0101 20.5438 17.9101 20.6438C17.8101 20.7438 17.6744 20.8 17.533 20.8H16.733C16.6622 20.8 16.5944 20.7719 16.5444 20.7219C16.4944 20.6719 16.4663 20.6041 16.4663 20.5333V16.6263C16.4663 16.5724 16.4826 16.5197 16.5131 16.4753C16.5437 16.4308 16.5869 16.3967 16.6373 16.3773C16.9452 16.252 17.2378 16.0919 17.5093 15.9C17.6152 15.8146 17.6844 15.692 17.7029 15.5572C17.7213 15.4224 17.6876 15.2857 17.6086 15.175C17.5295 15.0643 17.4112 14.9879 17.2777 14.9616C17.1443 14.9353 17.0058 14.9609 16.8906 15.0333C16.6433 15.2073 16.1683 15.4667 15.933 15.4667C15.6976 15.4667 15.2226 15.208 14.976 15.0333C14.9193 14.9882 14.8541 14.9551 14.7843 14.9361C14.7145 14.917 14.6415 14.9123 14.5698 14.9223C14.4982 14.9323 14.4293 14.9568 14.3674 14.9943C14.3055 15.0318 14.2518 15.0815 14.2097 15.1404C14.1677 15.1993 14.138 15.2661 14.1226 15.3369C14.1072 15.4076 14.1063 15.4807 14.12 15.5518C14.1338 15.6228 14.1618 15.6903 14.2025 15.7502C14.2432 15.8101 14.2956 15.8611 14.3566 15.9C14.6281 16.0922 14.9207 16.2527 15.2286 16.3783C15.279 16.3977 15.3222 16.4318 15.3528 16.4763C15.3833 16.5207 15.3996 16.5734 15.3996 16.6273V20.5333C15.3996 20.6041 15.3715 20.6719 15.3215 20.7219C15.2715 20.7719 15.2037 20.8 15.133 20.8H14.333C14.1915 20.8 14.0559 20.7438 13.9558 20.6438C13.8558 20.5438 13.7996 20.4081 13.7996 20.2667V19.4667C13.7996 18.788 12.9786 18.019 12.3783 17.4577L12.233 17.3213C11.1953 16.341 10.5996 14.8873 10.5996 13.3333C10.598 12.6325 10.7348 11.9382 11.0022 11.2904C11.2696 10.6426 11.6624 10.054 12.158 9.55839C12.6536 9.06281 13.2422 8.67002 13.89 8.40259C14.5378 8.13516 15.2321 7.99834 15.933 8.00002ZM17.5329 21.3334H14.3329C14.1915 21.3334 14.0558 21.3896 13.9558 21.4896C13.8558 21.5896 13.7996 21.7253 13.7996 21.8667C13.7996 22.0082 13.8558 22.1438 13.9558 22.2438C14.0558 22.3439 14.1915 22.4 14.3329 22.4H17.5329C17.6744 22.4 17.81 22.3439 17.9101 22.2438C18.0101 22.1438 18.0663 22.0082 18.0663 21.8667C18.0663 21.7253 18.0101 21.5896 17.9101 21.4896C17.81 21.3896 17.6744 21.3334 17.5329 21.3334ZM16.9995 22.9333H14.8661C14.7247 22.9333 14.589 22.9895 14.489 23.0896C14.389 23.1896 14.3328 23.3252 14.3328 23.4667C14.3328 23.6081 14.389 23.7438 14.489 23.8438C14.589 23.9438 14.7247 24 14.8661 24H16.9995C17.1409 24 17.2766 23.9438 17.3766 23.8438C17.4766 23.7438 17.5328 23.6081 17.5328 23.4667C17.5328 23.3252 17.4766 23.1896 17.3766 23.0896C17.2766 22.9895 17.1409 22.9333 16.9995 22.9333Z" fill="white"/>
<defs>
<linearGradient id="paint0_linear" x1="35" y1="38" x2="7.76784" y2="-0.32216" gradientUnits="userSpaceOnUse">
<stop stop-color="#E19500"/>
<stop offset="1" stop-color="#F0B747"/>
</linearGradient>
</defs>
</svg>
