<svg width="32" height="32" viewBox="0 0 32 32" fill="none" xmlns="http://www.w3.org/2000/svg">
<path fill-rule="evenodd" clip-rule="evenodd" d="M0 16C0 7.17769 7.17769 0 16 0C24.8223 0 32 7.17769 32 16C32 24.8223 24.8223 32 16 32C7.17769 32 0 24.8223 0 16ZM20.4762 17.7331L24.0823 8.71769C24.1271 8.60586 24.138 8.48335 24.1138 8.36535C24.0896 8.24735 24.0313 8.13904 23.9461 8.05387C23.861 7.96869 23.7527 7.91038 23.6347 7.88618C23.5167 7.86197 23.3941 7.87293 23.2823 7.91769L14.2669 11.5238C13.6478 11.7715 13.0853 12.1423 12.6138 12.6138C12.1423 13.0853 11.7715 13.6478 11.5238 14.2669L7.91769 23.2823C7.87293 23.3941 7.86197 23.5167 7.88618 23.6347C7.91038 23.7527 7.96869 23.861 8.05387 23.9461C8.13904 24.0313 8.24735 24.0896 8.36535 24.1138C8.48335 24.138 8.60586 24.1271 8.71769 24.0823L17.7331 20.4762C18.3522 20.2285 18.9147 19.8577 19.3862 19.3862C19.8577 18.9147 20.2285 18.3522 20.4762 17.7331ZM17.8462 16C17.8462 17.0196 17.0196 17.8462 16 17.8462C14.9804 17.8462 14.1538 17.0196 14.1538 16C14.1538 14.9804 14.9804 14.1538 16 14.1538C17.0196 14.1538 17.8462 14.9804 17.8462 16Z" fill="white"/>
</svg>
