<svg width="23" height="26" viewBox="0 0 23 26" fill="none" xmlns="http://www.w3.org/2000/svg">
<path d="M14.8463 6.13317C13.1385 7.48527 11.563 8.90093 10.004 10.5304C6.72622 13.9569 4.17011 17.1811 2.18141 20.3765C1.70765 21.1392 1.23939 21.9135 0.776649 22.682C0.457134 23.4851 0.192709 24.3114 0.0164254 25.1781C-0.10477 25.7791 0.468152 26.2818 0.96395 25.8195C1.47627 25.3342 1.928 24.7795 2.3632 24.219C3.12893 23.2309 3.85059 22.2081 4.56675 21.1854C10.1032 21.5783 16.51 17.8572 19.2424 13.2924C19.2919 13.2115 19.303 13.1075 19.2699 13.0208C19.2369 12.9283 19.1707 12.859 19.0826 12.8301C17.755 12.391 16.1299 12.1136 15.4578 12.0789C15.4302 12.0789 15.4027 12.0558 15.3972 12.0212C15.3917 11.9923 15.4082 11.9634 15.4357 11.9518C17.2647 11.01 18.5978 10.9002 20.1623 11.1313C20.278 11.1487 20.3827 11.0562 20.4268 10.9464C20.581 10.594 21.0107 9.53076 21.3082 8.66403C21.3578 8.5138 21.2972 8.35201 21.165 8.27689C19.9971 7.65284 18.4436 7.23103 17.8211 7.16747C17.7935 7.16747 17.7715 7.13858 17.766 7.10969C17.7605 7.0808 17.777 7.05191 17.8045 7.04035C19.6115 6.25452 20.245 6.2314 21.6883 6.5492C21.8315 6.5781 21.9693 6.46831 22.0023 6.31808C22.7129 3.53298 22.9443 1.12347 22.9994 0.33763C23.0049 0.245178 22.9719 0.152727 22.9058 0.0833884C22.8397 0.0198281 22.7515 -0.00906293 22.6634 0.00249348C18.6474 0.580314 15.4302 1.4066 12.6538 2.52179C12.5601 2.55646 12.472 2.63736 12.472 2.74136C12.7088 3.63699 12.0753 4.70596 11.0837 5.50913C11.0672 5.53224 11.0397 5.5438 11.0121 5.53802C10.9846 5.52646 10.968 5.49757 10.968 5.46868C10.9736 5.39356 11.227 4.38815 11.0782 3.65432C11.0562 3.55031 11.0231 3.45208 10.9405 3.3943C10.8579 3.33652 10.7477 3.33074 10.6596 3.37119C-2.3579 9.56543 0.930897 19.7813 0.930897 19.7813C0.947424 19.7871 0.96395 19.7871 0.980477 19.7929C2.45134 16.7709 4.10951 14.5405 6.7152 11.6109C8.64882 9.43831 10.5439 7.67018 12.505 6.20829C13.739 5.28955 16.5265 3.38275 18.2728 2.72403C18.3334 2.70092 18.3885 2.68936 18.4436 2.68936C18.6033 2.68936 18.7355 2.79337 18.7741 2.94938C18.8072 3.0765 18.7796 3.21518 18.697 3.31919L14.8463 6.13317Z" fill="#E53353"/>
</svg>
