<svg width="30" height="25" viewBox="0 0 30 25" fill="none" xmlns="http://www.w3.org/2000/svg">
<path d="M0 2.77778V22.2222C0 23.7569 1.24306 25 2.77778 25H27.0833C28.6181 25 29.8611 23.7569 29.8611 22.2222V2.77778C29.8611 1.24306 28.6181 0 27.0833 0H2.77778C1.24306 0 0 1.24306 0 2.77778ZM19.4444 8.33333C19.4444 10.6389 17.5764 12.5 15.2778 12.5C12.9792 12.5 11.1111 10.6389 11.1111 8.33333C11.1111 6.03472 12.9792 4.16667 15.2778 4.16667C17.5764 4.16667 19.4444 6.03472 19.4444 8.33333ZM6.94444 19.4444C6.94444 16.6667 12.5 15.1389 15.2778 15.1389C18.0556 15.1389 23.6111 16.6667 23.6111 19.4444C23.6111 20.2115 22.9893 20.8333 22.2222 20.8333H8.33333C7.56627 20.8333 6.94444 20.2115 6.94444 19.4444Z" fill="url(#paint0_linear)"/>
<defs>
<linearGradient id="paint0_linear" x1="4.75317" y1="-4.61555e-08" x2="23.6158" y2="31.7292" gradientUnits="userSpaceOnUse">
<stop stop-color="#F362CB"/>
<stop offset="1" stop-color="#CF4BAA"/>
</linearGradient>
</defs>
</svg>
