<svg width="625" height="581" viewBox="0 0 625 581" fill="none" xmlns="http://www.w3.org/2000/svg">
<g filter="url(#filter0_f)">
<path d="M174.8 87.2127C176.09 81.8109 180.918 78 186.471 78H250.894C256.118 78 260.743 81.3807 262.328 86.3592L276.019 129.359C278.484 137.099 272.708 145 264.585 145H176.203C168.448 145 162.73 137.755 164.531 130.213L174.8 87.2127Z" fill="#7893AB" fill-opacity="0.3"/>
</g>
<path d="M147 20C147 8.9543 155.954 0 167 0H272C283.046 0 292 8.9543 292 20V111C292 122.046 283.046 131 272 131H167C155.954 131 147 122.046 147 111V20Z" fill="white"/>
<path d="M219.574 79.9649C218.837 79.9649 218.104 79.7734 217.457 79.4049L210.72 75.4569C209.714 74.8999 210.205 74.7029 210.537 74.5894C211.879 74.1244 212.151 74.0194 213.583 73.2144C213.733 73.1294 213.93 73.1594 214.085 73.2494L219.26 76.2894C219.447 76.3894 219.712 76.3894 219.886 76.2894L240.067 64.7594C240.254 64.6544 240.375 64.4394 240.375 64.2194V41.1694C240.375 40.9394 240.254 40.7344 240.063 40.6194L219.89 29.0994C219.703 28.9894 219.455 28.9894 219.268 29.0994L199.1 40.6194C198.904 40.7294 198.78 40.9444 198.78 41.1644V64.2144C198.78 64.4344 198.901 64.6444 199.093 64.7494L204.619 67.9094C207.62 69.3944 209.454 67.6444 209.454 65.8844V43.1344C209.454 42.8094 209.711 42.5594 210.04 42.5594H212.596C212.914 42.5594 213.177 42.8094 213.177 43.1344V65.8944C213.177 69.8544 210.995 72.1294 207.201 72.1294C206.034 72.1294 205.115 72.1294 202.548 70.8794L197.254 67.8594C195.946 67.1094 195.138 65.7094 195.138 64.2144V41.1644C195.138 39.6644 195.946 38.2644 197.254 37.5244L217.455 25.9894C218.733 25.2744 220.431 25.2744 221.699 25.9894L241.875 37.5294C243.178 38.2744 243.991 39.6694 243.991 41.1694V64.2194C243.991 65.7144 243.178 67.1094 241.875 67.8594L221.699 79.3944C221.052 79.7644 220.32 79.9544 219.572 79.9544" fill="#8AC046"/>
<path d="M225.807 64.0819C216.977 64.0819 215.126 60.07 215.126 56.7049C215.126 56.3849 215.387 56.1299 215.71 56.1299H218.317C218.605 56.1299 218.847 56.3374 218.893 56.6189C219.287 59.2479 220.459 60.5739 225.798 60.5739C230.052 60.5739 231.86 59.6229 231.86 57.3904C231.86 56.1054 231.345 55.1504 224.738 54.5104C219.211 53.9704 215.796 52.7654 215.796 48.3904C215.796 44.3604 219.231 41.9604 224.985 41.9604C231.446 41.9604 234.649 44.1804 235.053 48.9504C235.068 49.1154 235.007 49.2754 234.896 49.3954C234.785 49.5104 234.628 49.5804 234.467 49.5804H231.845C231.572 49.5804 231.335 49.3904 231.279 49.1304C230.648 46.3654 229.122 45.4804 224.975 45.4804C220.333 45.4804 219.792 47.0804 219.792 48.2804C219.792 49.7354 220.429 50.1604 226.693 50.9804C232.896 51.7954 235.841 52.9454 235.841 57.2604C235.841 61.6104 232.173 64.1054 225.778 64.1054L225.807 64.0819Z" fill="#8BC144"/>
<path d="M203.378 105H201.404L196.98 98.2799V105H195.006V95.1159H196.98L201.404 101.892V95.1159H203.378V105Z" fill="#5E709D"/>
<path d="M208.776 97.1459C209.532 97.1459 210.209 97.3046 210.806 97.6219C211.413 97.9393 211.889 98.4013 212.234 99.0079C212.58 99.6053 212.752 100.31 212.752 101.122C212.752 101.934 212.58 102.639 212.234 103.236C211.889 103.833 211.413 104.295 210.806 104.622C210.209 104.939 209.532 105.098 208.776 105.098C208.02 105.098 207.339 104.939 206.732 104.622C206.135 104.295 205.664 103.833 205.318 103.236C204.973 102.639 204.8 101.934 204.8 101.122C204.8 100.31 204.973 99.6053 205.318 99.0079C205.664 98.4013 206.135 97.9393 206.732 97.6219C207.339 97.3046 208.02 97.1459 208.776 97.1459ZM208.776 98.8539C208.226 98.8539 207.759 99.0499 207.376 99.4419C206.994 99.8246 206.802 100.385 206.802 101.122C206.802 101.859 206.994 102.424 207.376 102.816C207.759 103.199 208.226 103.39 208.776 103.39C209.327 103.39 209.794 103.199 210.176 102.816C210.559 102.424 210.75 101.859 210.75 101.122C210.75 100.385 210.559 99.8246 210.176 99.4419C209.794 99.0499 209.327 98.8539 208.776 98.8539Z" fill="#5E709D"/>
<path d="M217.214 97.1459C217.867 97.1459 218.422 97.2999 218.88 97.6079C219.346 97.9159 219.682 98.3313 219.888 98.8539V94.6399H221.848V105H219.888V103.376C219.682 103.899 219.346 104.319 218.88 104.636C218.422 104.944 217.867 105.098 217.214 105.098C216.56 105.098 215.972 104.939 215.45 104.622C214.927 104.305 214.516 103.847 214.218 103.25C213.928 102.643 213.784 101.934 213.784 101.122C213.784 100.31 213.928 99.6053 214.218 99.0079C214.516 98.4013 214.927 97.9393 215.45 97.6219C215.972 97.3046 216.56 97.1459 217.214 97.1459ZM217.83 98.8679C217.214 98.8679 216.719 99.0686 216.346 99.4699C215.972 99.8713 215.786 100.422 215.786 101.122C215.786 101.822 215.972 102.373 216.346 102.774C216.719 103.166 217.214 103.362 217.83 103.362C218.427 103.362 218.917 103.161 219.3 102.76C219.692 102.349 219.888 101.803 219.888 101.122C219.888 100.431 219.692 99.8853 219.3 99.4839C218.917 99.0733 218.427 98.8679 217.83 98.8679Z" fill="#5E709D"/>
<path d="M230.959 100.828C230.959 101.024 230.935 101.248 230.889 101.5H225.205C225.233 102.191 225.419 102.699 225.765 103.026C226.11 103.353 226.539 103.516 227.053 103.516C227.51 103.516 227.888 103.404 228.187 103.18C228.495 102.956 228.691 102.653 228.775 102.27H230.861C230.758 102.811 230.539 103.297 230.203 103.726C229.867 104.155 229.433 104.491 228.901 104.734C228.378 104.977 227.795 105.098 227.151 105.098C226.395 105.098 225.723 104.939 225.135 104.622C224.547 104.295 224.089 103.833 223.763 103.236C223.436 102.639 223.273 101.934 223.273 101.122C223.273 100.31 223.436 99.6053 223.763 99.0079C224.089 98.4013 224.547 97.9393 225.135 97.6219C225.723 97.3046 226.395 97.1459 227.151 97.1459C227.916 97.1459 228.583 97.3046 229.153 97.6219C229.731 97.9393 230.175 98.3779 230.483 98.9379C230.8 99.4886 230.959 100.119 230.959 100.828ZM228.971 100.632C228.999 99.9973 228.831 99.5166 228.467 99.1899C228.112 98.8633 227.673 98.6999 227.151 98.6999C226.619 98.6999 226.171 98.8633 225.807 99.1899C225.443 99.5166 225.242 99.9973 225.205 100.632H228.971Z" fill="#5E709D"/>
<path d="M234.026 102.942V105H231.898V102.942H234.026Z" fill="#5E709D"/>
<path d="M236.405 96.0819C236.041 96.0819 235.747 95.9839 235.523 95.7879C235.299 95.5826 235.187 95.3259 235.187 95.0179C235.187 94.7006 235.299 94.4439 235.523 94.2479C235.747 94.0426 236.041 93.9399 236.405 93.9399C236.769 93.9399 237.063 94.0426 237.287 94.2479C237.511 94.4533 237.623 94.7099 237.623 95.0179C237.623 95.3259 237.511 95.5826 237.287 95.7879C237.063 95.9839 236.769 96.0819 236.405 96.0819ZM234.053 106.988H234.613C234.903 106.988 235.108 106.927 235.229 106.806C235.36 106.685 235.425 106.475 235.425 106.176V97.2439H237.399V106.176C237.399 107.856 236.555 108.696 234.865 108.696H234.053V106.988Z" fill="#5E709D"/>
<path d="M241.886 97.1459C242.829 97.1459 243.585 97.3839 244.154 97.8599C244.723 98.3359 245.078 98.9706 245.218 99.7639H243.37C243.295 99.3906 243.127 99.0919 242.866 98.8679C242.605 98.6439 242.264 98.5319 241.844 98.5319C241.508 98.5319 241.247 98.6113 241.06 98.7699C240.873 98.9286 240.78 99.1433 240.78 99.4139C240.78 99.6286 240.855 99.8013 241.004 99.9319C241.153 100.063 241.34 100.165 241.564 100.24C241.788 100.315 242.11 100.403 242.53 100.506C243.118 100.637 243.594 100.777 243.958 100.926C244.331 101.066 244.649 101.295 244.91 101.612C245.181 101.92 245.316 102.34 245.316 102.872C245.316 103.535 245.055 104.071 244.532 104.482C244.019 104.893 243.323 105.098 242.446 105.098C241.438 105.098 240.631 104.874 240.024 104.426C239.417 103.969 239.049 103.32 238.918 102.48H240.808C240.855 102.863 241.023 103.166 241.312 103.39C241.601 103.605 241.979 103.712 242.446 103.712C242.782 103.712 243.039 103.633 243.216 103.474C243.393 103.306 243.482 103.091 243.482 102.83C243.482 102.606 243.403 102.424 243.244 102.284C243.095 102.144 242.903 102.037 242.67 101.962C242.446 101.887 242.124 101.799 241.704 101.696C241.125 101.565 240.654 101.435 240.29 101.304C239.935 101.164 239.627 100.945 239.366 100.646C239.114 100.347 238.988 99.9366 238.988 99.4139C238.988 98.7419 239.245 98.1959 239.758 97.7759C240.271 97.3559 240.981 97.1459 241.886 97.1459Z" fill="#5E709D"/>
<g filter="url(#filter1_f)">
<path d="M413.8 495.213C415.09 489.811 419.918 486 425.471 486H489.894C495.118 486 499.743 489.381 501.328 494.359L515.019 537.359C517.484 545.099 511.708 553 503.585 553H415.203C407.448 553 401.73 545.755 403.531 538.213L413.8 495.213Z" fill="#7893AB" fill-opacity="0.3"/>
</g>
<path d="M386 428C386 416.954 394.954 408 406 408H511C522.046 408 531 416.954 531 428V519C531 530.046 522.046 539 511 539H406C394.954 539 386 530.046 386 519V428Z" fill="white"/>
<path fill-rule="evenodd" clip-rule="evenodd" d="M448.081 449.114L455.385 441.846C456.397 440.84 456.903 440.336 457.489 440.152C457.982 439.997 458.511 439.997 459.004 440.152C459.589 440.336 460.096 440.84 461.107 441.846L462.69 443.421L457.495 451.426C457.482 451.45 457.465 451.47 457.443 451.486C457.412 451.507 457.368 451.499 457.33 451.486C456.499 451.235 455.596 451.408 454.918 451.949C454.884 451.984 454.834 451.964 454.791 451.945C454.28 451.724 451.162 450.411 449.331 449.64L449.33 449.64C448.729 449.387 448.267 449.192 448.081 449.114ZM446.939 450.247L441.299 455.861H441.297L447.338 464.627C447.353 464.652 447.372 464.673 447.395 464.691C447.413 464.705 447.434 464.702 447.457 464.698L447.462 464.697H447.464C447.69 464.656 447.914 464.619 448.12 464.619C448.35 464.622 448.579 464.653 448.802 464.711C448.837 464.72 448.88 464.729 448.91 464.71C448.935 464.694 448.949 464.672 448.964 464.647L454.693 455.819L454.711 455.792C454.743 455.746 454.781 455.692 454.743 455.655C454.152 455.052 453.905 454.193 454.086 453.37C454.091 453.346 454.096 453.317 454.086 453.295C454.07 453.257 454.036 453.242 453.998 453.227C453.693 453.095 452.842 452.737 451.829 452.311L451.829 452.311L451.126 452.015L450.915 451.926C449.247 451.225 447.448 450.469 446.939 450.247ZM469.02 456.661L469.038 456.669C469.272 456.788 469.483 456.95 469.659 457.145C469.672 457.157 469.678 457.162 469.685 457.166H469.703C469.718 457.167 469.732 457.164 469.745 457.159L474.482 455.154L469.927 450.621L468.956 456.529C468.949 456.571 468.962 456.614 468.991 456.645C469 456.654 469.01 456.657 469.02 456.661ZM480.514 461.154L475.644 456.309L470.643 458.414L470.628 458.42C470.582 458.439 470.526 458.461 470.526 458.509C470.526 458.556 470.579 458.577 470.625 458.596L470.627 458.596L470.646 458.604L482.284 463.507C482.266 463.419 482.244 463.332 482.216 463.246C482.032 462.666 481.53 462.166 480.528 461.168L480.514 461.154ZM482.085 465.062C481.835 465.531 481.347 466.017 480.523 466.838L480.515 466.846L475.024 472.307L467.923 470.836L467.885 470.829C467.823 470.819 467.756 470.807 467.756 470.751C467.701 470.162 467.403 469.622 466.933 469.26C466.904 469.231 466.912 469.186 466.92 469.145C466.92 469.139 466.92 469.132 466.923 469.127L468.259 460.97L468.264 460.942C468.271 460.88 468.282 460.807 468.339 460.807C468.917 460.736 469.442 460.436 469.796 459.976C469.8 459.973 469.802 459.969 469.805 459.966C469.812 459.957 469.819 459.948 469.83 459.942C469.871 459.924 469.918 459.942 469.96 459.96L482.084 465.062H482.085ZM464.733 482.546L473.76 473.565L467.403 472.265C467.391 472.263 467.379 472.263 467.367 472.265C467.32 472.271 467.284 472.305 467.253 472.34C467.018 472.621 466.719 472.843 466.38 472.986L466.365 472.992L466.363 472.993C466.333 473.005 466.301 473.018 466.289 473.047C466.285 473.059 466.282 473.071 466.281 473.084L466.278 473.096L464.733 482.546ZM462.822 484.447L461.804 485.46L450.553 469.282C450.549 469.277 450.545 469.271 450.541 469.265L450.538 469.262C450.521 469.239 450.504 469.216 450.508 469.19C450.508 469.17 450.522 469.152 450.536 469.137L450.548 469.121C450.58 469.074 450.608 469.027 450.637 468.977L450.642 468.967L450.668 468.924L450.671 468.92L450.673 468.918C450.69 468.889 450.706 468.861 450.735 468.845C450.762 468.832 450.798 468.837 450.827 468.844L463.292 471.401C463.327 471.407 463.36 471.421 463.387 471.442C463.404 471.459 463.408 471.476 463.411 471.496C463.588 472.16 464.065 472.703 464.703 472.965C464.738 472.982 464.723 473.021 464.707 473.062C464.699 473.081 464.692 473.099 464.688 473.119C464.531 474.069 463.184 482.241 462.822 484.447ZM460.696 486.562L460.696 486.561V486.562L460.696 486.562ZM460.696 486.562C459.946 487.3 459.504 487.691 459.004 487.849C458.511 488.004 457.982 488.004 457.489 487.849C456.903 487.664 456.397 487.161 455.385 486.154L444.086 474.912L447.038 470.359C447.052 470.336 447.065 470.316 447.088 470.3C447.119 470.277 447.165 470.287 447.202 470.3C447.88 470.503 448.607 470.467 449.26 470.196C449.294 470.184 449.328 470.175 449.355 470.199C449.368 470.211 449.38 470.224 449.39 470.239L460.696 486.562ZM442.997 473.829L440.405 471.25L445.524 469.077C445.537 469.072 445.551 469.069 445.565 469.069C445.608 469.069 445.633 469.111 445.656 469.15C445.707 469.229 445.762 469.305 445.819 469.38L445.835 469.4C445.85 469.421 445.84 469.442 445.825 469.462L442.998 473.829H442.997ZM435.979 466.846L439.258 470.109L444.707 467.812L444.736 467.8C444.799 467.776 444.873 467.747 444.873 467.685C444.873 467.627 444.805 467.616 444.744 467.606C444.731 467.604 444.718 467.602 444.706 467.6L434.735 465.542C435.016 465.889 435.421 466.291 435.979 466.846ZM434.162 463.865L434.162 463.864L445.406 466.21H445.408L445.409 466.21C445.428 466.214 445.445 466.217 445.461 466.207C445.488 466.187 445.51 466.161 445.524 466.13C445.653 465.891 445.837 465.671 446.02 465.47C446.059 465.432 446.021 465.382 445.987 465.337C444.045 462.555 442.107 459.769 440.175 456.979L435.979 461.154L435.979 461.154C434.966 462.161 434.461 462.664 434.275 463.246C434.212 463.447 434.174 463.654 434.162 463.864L434.162 463.864V463.865ZM468.59 449.291L463.793 444.519L458.685 452.397C458.656 452.454 458.691 452.512 458.725 452.568L458.729 452.574C458.942 452.922 459.075 453.312 459.118 453.717C459.118 453.765 459.173 453.787 459.22 453.806L459.234 453.812L466.544 456.902C466.561 456.909 466.579 456.912 466.598 456.911C466.62 456.909 466.634 456.895 466.648 456.88C466.656 456.872 466.664 456.865 466.673 456.859C466.882 456.707 467.114 456.592 467.361 456.517L467.369 456.515C467.391 456.509 467.413 456.503 467.424 456.48C467.43 456.465 467.433 456.449 467.434 456.432V456.414L468.59 449.291ZM458.853 455.276L465.706 458.164L465.715 458.168C465.75 458.184 465.786 458.201 465.801 458.236C465.808 458.26 465.808 458.284 465.801 458.307C465.781 458.407 465.763 458.521 465.763 458.636V458.827C465.763 458.875 465.715 458.895 465.67 458.913L465.669 458.914L465.655 458.919C464.57 459.38 450.415 465.385 450.394 465.385C450.372 465.385 450.35 465.385 450.328 465.364C450.291 465.326 450.328 465.274 450.362 465.227L450.362 465.226C450.368 465.218 450.374 465.21 450.38 465.201L456.011 456.526L456.021 456.511C456.054 456.459 456.091 456.4 456.152 456.4L456.208 456.409L456.226 456.411C456.347 456.428 456.455 456.442 456.564 456.442C457.418 456.442 458.21 456.029 458.687 455.321C458.699 455.302 458.713 455.285 458.73 455.271C458.764 455.246 458.814 455.259 458.853 455.276ZM466.434 460.211L451.006 466.757C451.013 466.758 451.064 466.931 451.113 467.098C451.159 467.254 451.204 467.406 451.21 467.407L463.514 469.932C463.542 469.939 463.576 469.944 463.602 469.931C463.631 469.917 463.647 469.89 463.664 469.862L463.665 469.86L463.671 469.85C464.036 469.235 464.681 468.839 465.396 468.791C465.454 468.791 465.464 468.723 465.473 468.661L465.473 468.657L465.478 468.625L466.8 460.547C466.802 460.536 466.802 460.529 466.802 460.516C466.8 460.484 466.768 460.464 466.737 460.446L466.703 460.425C466.634 460.372 466.562 460.316 466.478 460.232C466.457 460.211 466.434 460.211 466.434 460.211Z" fill="url(#paint0_radial)"/>
<path d="M445.454 513H443.48L439.056 506.28V513H437.082V503.116H439.056L443.48 509.892V503.116H445.454V513Z" fill="#5E709D"/>
<path d="M454.562 508.828C454.562 509.024 454.539 509.248 454.492 509.5H448.808C448.836 510.191 449.023 510.699 449.368 511.026C449.714 511.353 450.143 511.516 450.656 511.516C451.114 511.516 451.492 511.404 451.79 511.18C452.098 510.956 452.294 510.653 452.378 510.27H454.464C454.362 510.811 454.142 511.297 453.806 511.726C453.47 512.155 453.036 512.491 452.504 512.734C451.982 512.977 451.398 513.098 450.754 513.098C449.998 513.098 449.326 512.939 448.738 512.622C448.15 512.295 447.693 511.833 447.366 511.236C447.04 510.639 446.876 509.934 446.876 509.122C446.876 508.31 447.04 507.605 447.366 507.008C447.693 506.401 448.15 505.939 448.738 505.622C449.326 505.305 449.998 505.146 450.754 505.146C451.52 505.146 452.187 505.305 452.756 505.622C453.335 505.939 453.778 506.378 454.086 506.938C454.404 507.489 454.562 508.119 454.562 508.828ZM452.574 508.632C452.602 507.997 452.434 507.517 452.07 507.19C451.716 506.863 451.277 506.7 450.754 506.7C450.222 506.7 449.774 506.863 449.41 507.19C449.046 507.517 448.846 507.997 448.808 508.632H452.574Z" fill="#5E709D"/>
<path d="M460.136 511.306V513H459.1C458.232 513 457.565 512.79 457.098 512.37C456.641 511.95 456.412 511.25 456.412 510.27V506.91H455.334V505.244H456.412V503.326H458.386V505.244H460.122V506.91H458.386V510.298C458.386 510.671 458.461 510.933 458.61 511.082C458.759 511.231 459.011 511.306 459.366 511.306H460.136Z" fill="#5E709D"/>
<path d="M463.559 502.64V513H461.585V502.64H463.559Z" fill="#5E709D"/>
<path d="M465.149 503.018C465.149 502.701 465.261 502.444 465.485 502.248C465.709 502.043 466.003 501.94 466.367 501.94C466.731 501.94 467.025 502.043 467.249 502.248C467.473 502.444 467.585 502.701 467.585 503.018C467.585 503.326 467.473 503.583 467.249 503.788C467.025 503.984 466.731 504.082 466.367 504.082C466.003 504.082 465.709 503.984 465.485 503.788C465.261 503.583 465.149 503.326 465.149 503.018ZM467.347 505.244V513H465.373V505.244H467.347Z" fill="#5E709D"/>
<path d="M472.996 503.9C472.418 503.863 472.012 503.947 471.778 504.152C471.545 504.357 471.428 504.717 471.428 505.23V505.244H472.996V506.91H471.428V513H469.454V506.91H468.46V505.244H469.454V505.062C469.454 504.138 469.716 503.429 470.238 502.934C470.77 502.43 471.554 502.178 472.59 502.178C472.768 502.178 472.903 502.183 472.996 502.192V503.9Z" fill="#5E709D"/>
<path d="M475.536 505.244L477.65 510.508L479.61 505.244H481.78L477.034 516.696H474.85L476.6 512.776L473.338 505.244H475.536Z" fill="#5E709D"/>
<g filter="url(#filter2_f)">
<path d="M495.8 192.213C497.09 186.811 501.918 183 507.471 183H571.894C577.118 183 581.743 186.381 583.328 191.359L597.019 234.359C599.484 242.099 593.708 250 585.585 250H497.203C489.448 250 483.73 242.755 485.531 235.213L495.8 192.213Z" fill="#7893AB" fill-opacity="0.3"/>
</g>
<path d="M468 125C468 113.954 476.954 105 488 105H593C604.046 105 613 113.954 613 125V216C613 227.046 604.046 236 593 236H488C476.954 236 468 227.046 468 216V125Z" fill="white"/>
<path fill-rule="evenodd" clip-rule="evenodd" d="M537.139 151.442H538.459L544.307 159.591L550.285 151.442L558.416 141.092L545.058 160.447L551.941 169.971H550.57L544.307 161.303L538.019 169.971H536.673L543.609 160.447L537.139 151.442ZM523.604 151.442H536.026V152.428H524.743V159.85H535.353V160.836H524.743V168.985H536.156V169.971H523.604V151.442ZM552.433 151.442V152.428L558.929 152.428V169.971H560.067V152.428H566.589V151.442H552.433Z" fill="black"/>
<path d="M508.064 151.442H509.488L529.115 180.777L521.004 169.971L509.255 152.844L509.203 169.971H508.064V151.442Z" fill="black"/>
<path fill-rule="evenodd" clip-rule="evenodd" d="M572.384 168.737C571.498 168.737 570.902 168.28 570.858 167.565H571.473C571.526 167.945 571.897 168.186 572.431 168.186C572.93 168.186 573.295 167.928 573.295 167.574C573.295 167.269 573.063 167.086 572.534 166.962L572.018 166.837C571.296 166.668 570.966 166.319 570.966 165.732C570.966 165.02 571.548 164.546 572.42 164.546C573.232 164.546 573.824 165.02 573.86 165.693H573.256C573.198 165.325 572.877 165.095 572.412 165.095C571.922 165.095 571.595 165.33 571.595 165.69C571.595 165.976 571.805 166.139 572.326 166.261L572.766 166.369C573.586 166.56 573.924 166.892 573.924 167.493C573.924 168.258 573.331 168.737 572.384 168.737ZM567.593 167.601C567.593 168.288 568.089 168.737 568.811 168.737C569.581 168.737 570.047 168.275 570.047 167.471V164.643H569.426V167.469C569.426 167.914 569.202 168.153 568.806 168.153C568.451 168.153 568.21 167.931 568.202 167.601H567.593ZM566.474 168.687C566.709 168.687 566.881 168.507 566.881 168.275C566.881 168.042 566.709 167.862 566.474 167.862C566.241 167.862 566.067 168.042 566.067 168.275C566.067 168.507 566.241 168.687 566.474 168.687Z" fill="black"/>
<path d="M526.268 210H524.294L519.87 203.28V210H517.896V200.116H519.87L524.294 206.892V200.116H526.268V210Z" fill="#5E709D"/>
<path d="M535.376 205.828C535.376 206.024 535.353 206.248 535.306 206.5H529.622C529.65 207.191 529.837 207.699 530.182 208.026C530.528 208.353 530.957 208.516 531.47 208.516C531.928 208.516 532.306 208.404 532.604 208.18C532.912 207.956 533.108 207.653 533.192 207.27H535.278C535.176 207.811 534.956 208.297 534.62 208.726C534.284 209.155 533.85 209.491 533.318 209.734C532.796 209.977 532.212 210.098 531.568 210.098C530.812 210.098 530.14 209.939 529.552 209.622C528.964 209.295 528.507 208.833 528.18 208.236C527.854 207.639 527.69 206.934 527.69 206.122C527.69 205.31 527.854 204.605 528.18 204.008C528.507 203.401 528.964 202.939 529.552 202.622C530.14 202.305 530.812 202.146 531.568 202.146C532.334 202.146 533.001 202.305 533.57 202.622C534.149 202.939 534.592 203.378 534.9 203.938C535.218 204.489 535.376 205.119 535.376 205.828ZM533.388 205.632C533.416 204.997 533.248 204.517 532.884 204.19C532.53 203.863 532.091 203.7 531.568 203.7C531.036 203.7 530.588 203.863 530.224 204.19C529.86 204.517 529.66 204.997 529.622 205.632H533.388Z" fill="#5E709D"/>
<path d="M541.524 210L539.76 207.508L538.276 210H536.106L538.668 205.954L536.05 202.244H538.262L539.984 204.694L541.468 202.244H543.638L541.034 206.178L543.736 210H541.524Z" fill="#5E709D"/>
<path d="M548.921 208.306V210H547.885C547.017 210 546.35 209.79 545.883 209.37C545.426 208.95 545.197 208.25 545.197 207.27V203.91H544.119V202.244H545.197V200.326H547.171V202.244H548.907V203.91H547.171V207.298C547.171 207.671 547.246 207.933 547.395 208.082C547.545 208.231 547.797 208.306 548.151 208.306H548.921Z" fill="#5E709D"/>
<path d="M552.008 207.942V210H549.88V207.942H552.008Z" fill="#5E709D"/>
<path d="M554.387 201.082C554.023 201.082 553.729 200.984 553.505 200.788C553.281 200.583 553.169 200.326 553.169 200.018C553.169 199.701 553.281 199.444 553.505 199.248C553.729 199.043 554.023 198.94 554.387 198.94C554.751 198.94 555.045 199.043 555.269 199.248C555.493 199.453 555.605 199.71 555.605 200.018C555.605 200.326 555.493 200.583 555.269 200.788C555.045 200.984 554.751 201.082 554.387 201.082ZM552.035 211.988H552.595C552.885 211.988 553.09 211.927 553.211 211.806C553.342 211.685 553.407 211.475 553.407 211.176V202.244H555.381V211.176C555.381 212.856 554.537 213.696 552.847 213.696H552.035V211.988Z" fill="#5E709D"/>
<path d="M559.868 202.146C560.811 202.146 561.567 202.384 562.136 202.86C562.705 203.336 563.06 203.971 563.2 204.764H561.352C561.277 204.391 561.109 204.092 560.848 203.868C560.587 203.644 560.246 203.532 559.826 203.532C559.49 203.532 559.229 203.611 559.042 203.77C558.855 203.929 558.762 204.143 558.762 204.414C558.762 204.629 558.837 204.801 558.986 204.932C559.135 205.063 559.322 205.165 559.546 205.24C559.77 205.315 560.092 205.403 560.512 205.506C561.1 205.637 561.576 205.777 561.94 205.926C562.313 206.066 562.631 206.295 562.892 206.612C563.163 206.92 563.298 207.34 563.298 207.872C563.298 208.535 563.037 209.071 562.514 209.482C562.001 209.893 561.305 210.098 560.428 210.098C559.42 210.098 558.613 209.874 558.006 209.426C557.399 208.969 557.031 208.32 556.9 207.48H558.79C558.837 207.863 559.005 208.166 559.294 208.39C559.583 208.605 559.961 208.712 560.428 208.712C560.764 208.712 561.021 208.633 561.198 208.474C561.375 208.306 561.464 208.091 561.464 207.83C561.464 207.606 561.385 207.424 561.226 207.284C561.077 207.144 560.885 207.037 560.652 206.962C560.428 206.887 560.106 206.799 559.686 206.696C559.107 206.565 558.636 206.435 558.272 206.304C557.917 206.164 557.609 205.945 557.348 205.646C557.096 205.347 556.97 204.937 556.97 204.414C556.97 203.742 557.227 203.196 557.74 202.776C558.253 202.356 558.963 202.146 559.868 202.146Z" fill="#5E709D"/>
<g filter="url(#filter3_f)">
<path d="M270.8 291.213C272.09 285.811 276.918 282 282.471 282H346.894C352.118 282 356.743 285.381 358.328 290.359L372.019 333.359C374.484 341.099 368.708 349 360.585 349H272.203C264.448 349 258.73 341.755 260.531 334.213L270.8 291.213Z" fill="#7893AB" fill-opacity="0.3"/>
</g>
<path d="M243 224C243 212.954 251.954 204 263 204H368C379.046 204 388 212.954 388 224V315C388 326.046 379.046 335 368 335H263C251.954 335 243 326.046 243 315V224Z" fill="white"/>
<path fill-rule="evenodd" clip-rule="evenodd" d="M333.113 262.46C334.123 262.7 335.173 262.82 336.224 262.82C337.254 262.82 338.203 262.68 339.112 262.4C339.981 262.14 340.728 261.78 341.354 261.28C341.98 260.8 342.465 260.2 342.829 259.52C343.172 258.84 343.354 258.06 343.354 257.2C343.354 256.16 343.051 255.22 342.425 254.4C341.799 253.58 340.748 252.94 339.294 252.48L336.426 251.58C335.355 251.24 334.608 250.86 334.204 250.48C333.8 250.1 333.598 249.62 333.598 249.06C333.598 248.24 333.921 247.66 334.547 247.28C335.173 246.9 336.082 246.72 337.234 246.72C338.668 246.72 339.961 246.98 341.112 247.5C341.455 247.66 341.718 247.74 341.879 247.74C342.182 247.74 342.344 247.52 342.344 247.1V246.16C342.344 245.88 342.283 245.66 342.162 245.5C342.041 245.32 341.839 245.16 341.556 245C341.354 244.88 341.071 244.76 340.708 244.64C340.344 244.52 339.961 244.42 339.557 244.32C339.132 244.24 338.708 244.16 338.244 244.1C337.799 244.04 337.335 244.02 336.89 244.02C336.002 244.02 335.153 244.12 334.345 244.36C333.537 244.6 332.851 244.94 332.245 245.4C331.639 245.84 331.154 246.4 330.79 247.04C330.427 247.68 330.245 248.42 330.245 249.26C330.245 250.3 330.588 251.28 331.255 252.16C331.921 253.06 333.012 253.74 334.487 254.2L337.416 255.1C338.405 255.42 339.092 255.76 339.456 256.14C339.819 256.52 340.001 256.98 340.001 257.54C340.001 258.36 339.637 259 338.951 259.44C338.264 259.88 337.274 260.1 336.002 260.1C335.194 260.1 334.406 260.02 333.598 259.86C332.81 259.7 332.063 259.46 331.376 259.16C331.305 259.132 331.236 259.103 331.171 259.077C331.053 259.028 330.949 258.986 330.871 258.96C330.75 258.92 330.629 258.9 330.508 258.9C330.205 258.9 330.043 259.1 330.043 259.52V260.54C330.043 260.72 330.083 260.92 330.164 261.1C330.245 261.28 330.467 261.48 330.79 261.66C331.316 261.96 332.103 262.22 333.113 262.46ZM302.472 258.86C302.33 258.42 302.25 257.82 302.25 257.08H302.209V250.6C302.209 248.4 301.644 246.76 300.533 245.68C299.402 244.6 297.644 244.06 295.241 244.06C294.13 244.06 293.079 244.18 292.09 244.44C291.1 244.68 290.252 244.98 289.545 245.34C289.262 245.48 289.08 245.62 288.979 245.76C288.878 245.9 288.838 246.14 288.838 246.46V247.44C288.838 247.86 288.979 248.06 289.262 248.06C289.343 248.06 289.444 248.04 289.585 248C289.726 247.96 289.969 247.88 290.292 247.74C290.999 247.46 291.726 247.24 292.473 247.06C293.221 246.88 293.948 246.8 294.655 246.8C296.21 246.8 297.301 247.1 297.947 247.72C298.573 248.34 298.897 249.4 298.897 250.92V252.38C298.089 252.2 297.321 252.04 296.574 251.94C295.826 251.84 295.12 251.78 294.433 251.78C292.352 251.78 290.716 252.3 289.484 253.34C288.252 254.38 287.646 255.76 287.646 257.46C287.646 259.06 288.151 260.34 289.141 261.3C290.13 262.26 291.484 262.74 293.18 262.74C295.564 262.74 297.543 261.82 299.119 259.98C299.341 260.44 299.543 260.82 299.745 261.16C299.947 261.48 300.189 261.8 300.472 262.1C300.674 262.28 300.876 262.38 301.078 262.38C301.24 262.38 301.421 262.32 301.603 262.2L302.876 261.36C303.138 261.16 303.26 260.96 303.26 260.76C303.26 260.62 303.219 260.46 303.118 260.3C302.835 259.78 302.633 259.3 302.472 258.86ZM296.129 259.76C295.402 260 294.716 260.12 294.049 260.12C293.12 260.12 292.413 259.88 291.928 259.38C291.423 258.9 291.181 258.2 291.181 257.26C291.181 256.26 291.504 255.5 292.17 254.96C292.837 254.42 293.827 254.16 295.18 254.16C295.806 254.16 296.432 254.2 297.079 254.28C297.725 254.36 298.351 254.48 298.937 254.62V255.46C298.937 256.14 298.856 256.72 298.735 257.2C298.614 257.68 298.371 258.1 298.048 258.48C297.503 259.08 296.857 259.52 296.129 259.76ZM310.269 262.28C309.905 262.28 309.663 262.22 309.501 262.08C309.339 261.96 309.198 261.68 309.077 261.3L304.33 245.84C304.209 245.44 304.148 245.18 304.148 245.04C304.148 244.72 304.31 244.54 304.633 244.54H306.613C306.996 244.54 307.259 244.6 307.4 244.74C307.562 244.86 307.683 245.14 307.804 245.52L311.198 258.76L314.349 245.52C314.45 245.12 314.571 244.86 314.732 244.74C314.894 244.62 315.177 244.54 315.54 244.54H317.156C317.54 244.54 317.803 244.6 317.964 244.74C318.126 244.86 318.267 245.14 318.348 245.52L321.539 258.92L325.034 245.52C325.155 245.12 325.296 244.86 325.438 244.74C325.599 244.62 325.862 244.54 326.225 244.54H328.104C328.427 244.54 328.609 244.7 328.609 245.04C328.609 245.125 328.594 245.211 328.577 245.309L328.569 245.36C328.548 245.48 328.508 245.64 328.427 245.86L323.559 261.32C323.438 261.72 323.297 261.98 323.135 262.1C322.973 262.22 322.711 262.3 322.368 262.3H320.63C320.247 262.3 319.984 262.24 319.822 262.1C319.661 261.96 319.52 261.7 319.439 261.3L316.308 248.4L313.197 261.28C313.096 261.68 312.975 261.94 312.814 262.08C312.652 262.22 312.369 262.28 312.006 262.28H310.269Z" fill="#252F3E"/>
<path fill-rule="evenodd" clip-rule="evenodd" d="M340.041 272.54C333.396 277.4 323.741 279.98 315.439 279.98C303.805 279.98 293.322 275.72 285.404 268.64C284.778 268.08 285.343 267.32 286.091 267.76C294.655 272.68 305.219 275.66 316.146 275.66C323.519 275.66 331.618 274.14 339.072 271.02C340.183 270.52 341.132 271.74 340.041 272.54Z" fill="#FF9900"/>
<path fill-rule="evenodd" clip-rule="evenodd" d="M342.808 269.42C341.96 268.34 337.193 268.9 335.032 269.16C334.386 269.24 334.285 268.68 334.87 268.26C338.668 265.62 344.909 266.38 345.636 267.26C346.363 268.16 345.434 274.34 341.879 277.3C341.334 277.76 340.809 277.52 341.051 276.92C341.859 274.94 343.657 270.48 342.808 269.42Z" fill="#FF9900"/>
<path d="M293.917 307.012H289.955L289.255 309H287.169L290.809 299.228H293.063L296.689 309H294.603L293.917 307.012ZM293.385 305.514L291.929 301.342L290.473 305.514H293.385Z" fill="#5E709D"/>
<path d="M307.653 301.132C308.595 301.132 309.337 301.426 309.879 302.014C310.429 302.593 310.705 303.419 310.705 304.492V309H308.745V304.716C308.745 304.119 308.591 303.661 308.283 303.344C307.984 303.017 307.569 302.854 307.037 302.854C306.486 302.854 306.047 303.027 305.721 303.372C305.394 303.717 305.231 304.221 305.231 304.884V309H303.271V304.716C303.271 304.119 303.117 303.661 302.809 303.344C302.51 303.017 302.095 302.854 301.563 302.854C301.012 302.854 300.573 303.027 300.247 303.372C299.92 303.717 299.757 304.221 299.757 304.884V309H297.783V301.244H299.757V302.714C299.962 302.21 300.284 301.823 300.723 301.552C301.171 301.272 301.689 301.132 302.277 301.132C302.902 301.132 303.443 301.281 303.901 301.58C304.367 301.879 304.717 302.308 304.951 302.868C305.193 302.336 305.553 301.916 306.029 301.608C306.514 301.291 307.055 301.132 307.653 301.132Z" fill="#5E709D"/>
<path d="M315.505 301.146C316.158 301.146 316.718 301.3 317.185 301.608C317.652 301.916 317.983 302.331 318.179 302.854V301.244H320.139V309H318.179V307.376C317.983 307.899 317.652 308.319 317.185 308.636C316.718 308.944 316.158 309.098 315.505 309.098C314.852 309.098 314.264 308.939 313.741 308.622C313.218 308.305 312.808 307.847 312.509 307.25C312.22 306.643 312.075 305.934 312.075 305.122C312.075 304.31 312.22 303.605 312.509 303.008C312.808 302.401 313.218 301.939 313.741 301.622C314.264 301.305 314.852 301.146 315.505 301.146ZM316.121 302.868C315.505 302.868 315.01 303.069 314.637 303.47C314.264 303.871 314.077 304.422 314.077 305.122C314.077 305.822 314.264 306.373 314.637 306.774C315.01 307.166 315.505 307.362 316.121 307.362C316.718 307.362 317.208 307.161 317.591 306.76C317.983 306.349 318.179 305.803 318.179 305.122C318.179 304.431 317.983 303.885 317.591 303.484C317.208 303.073 316.718 302.868 316.121 302.868Z" fill="#5E709D"/>
<path d="M323.552 307.348H327.36V309H321.396V307.432L324.966 302.882H321.48V301.244H327.22V302.798L323.552 307.348Z" fill="#5E709D"/>
<path d="M332.199 301.146C332.955 301.146 333.632 301.305 334.229 301.622C334.836 301.939 335.312 302.401 335.657 303.008C336.003 303.605 336.175 304.31 336.175 305.122C336.175 305.934 336.003 306.639 335.657 307.236C335.312 307.833 334.836 308.295 334.229 308.622C333.632 308.939 332.955 309.098 332.199 309.098C331.443 309.098 330.762 308.939 330.155 308.622C329.558 308.295 329.087 307.833 328.741 307.236C328.396 306.639 328.223 305.934 328.223 305.122C328.223 304.31 328.396 303.605 328.741 303.008C329.087 302.401 329.558 301.939 330.155 301.622C330.762 301.305 331.443 301.146 332.199 301.146ZM332.199 302.854C331.649 302.854 331.182 303.05 330.799 303.442C330.417 303.825 330.225 304.385 330.225 305.122C330.225 305.859 330.417 306.424 330.799 306.816C331.182 307.199 331.649 307.39 332.199 307.39C332.75 307.39 333.217 307.199 333.599 306.816C333.982 306.424 334.173 305.859 334.173 305.122C334.173 304.385 333.982 303.825 333.599 303.442C333.217 303.05 332.75 302.854 332.199 302.854Z" fill="#5E709D"/>
<path d="M342.218 301.132C343.114 301.132 343.828 301.426 344.36 302.014C344.892 302.602 345.158 303.428 345.158 304.492V309H343.198V304.716C343.198 304.1 343.04 303.624 342.722 303.288C342.405 302.943 341.971 302.77 341.42 302.77C340.86 302.77 340.412 302.952 340.076 303.316C339.74 303.68 339.572 304.203 339.572 304.884V309H337.598V301.244H339.572V302.798C339.778 302.275 340.114 301.869 340.58 301.58C341.056 301.281 341.602 301.132 342.218 301.132Z" fill="#5E709D"/>
<g filter="url(#filter4_f)">
<path d="M37.7999 364.213C39.0899 358.811 43.9179 355 49.4709 355H113.894C119.118 355 123.743 358.381 125.328 363.359L139.019 406.359C141.484 414.099 135.708 422 127.585 422H39.2029C31.4479 422 25.7299 414.755 27.5309 407.213L37.7999 364.213Z" fill="#7893AB" fill-opacity="0.3"/>
</g>
<path d="M10 297C10 285.954 18.9543 277 30 277H135C146.046 277 155 285.954 155 297V388C155 399.046 146.046 408 135 408H30C18.9543 408 10 399.046 10 388V297Z" fill="white"/>
<path fill-rule="evenodd" clip-rule="evenodd" d="M96.4514 324.703C102.793 326.627 106.929 329.728 106.929 333C106.929 336.262 102.813 339.363 96.5123 341.286C97.9859 347.67 97.3457 352.755 94.49 354.386C93.8193 354.768 93.0469 354.95 92.1932 354.95C89.3985 354.95 85.74 352.996 82.0408 349.593C78.3416 353.016 74.6831 354.99 71.8884 354.99C71.0347 354.99 70.2623 354.809 69.6018 354.426C66.7359 352.795 66.0855 347.7 67.5489 341.297C61.2075 339.373 57.0713 336.272 57.0713 333C57.0713 329.738 61.1871 326.647 67.5083 324.714C66.0347 318.33 66.6749 313.245 69.5306 311.614C70.2014 311.232 70.9737 311.05 71.8274 311.05V311.04C74.6221 311.04 78.2806 312.994 81.9798 316.397C85.679 312.973 89.3375 311 92.1323 311V311.01C92.9718 311.012 93.7406 311.193 94.3985 311.574C97.2644 313.205 97.9148 318.3 96.4514 324.703ZM92.1221 313.245C90.0085 313.251 86.9034 314.922 83.5957 317.968C85.0286 319.448 86.4514 321.139 87.8233 323.002C90.1099 323.243 92.2847 323.616 94.2766 324.099C94.5001 323.082 94.6831 322.086 94.7949 321.139C95.2623 317.293 94.6628 314.303 93.2806 313.517C92.9656 313.346 92.5896 313.255 92.1221 313.255V313.245ZM80.364 317.978C77.051 314.947 73.931 313.286 71.8274 313.286V313.296C71.3599 313.296 70.9636 313.376 70.6587 313.557C69.2867 314.353 68.6973 317.343 69.1749 321.189C69.2969 322.126 69.4697 323.103 69.7034 324.109C71.6953 323.616 73.8701 323.243 76.1668 323.002C77.5184 321.139 78.9412 319.458 80.364 317.978ZM92.3254 330.261C92.8538 328.922 93.3213 327.583 93.6973 326.284C92.366 325.962 90.9737 325.7 89.5306 325.489C90.0286 326.254 90.5266 327.039 90.9941 327.845C91.4717 328.65 91.9087 329.456 92.3254 330.261ZM89.0428 337.007C88.2502 338.367 87.4371 339.655 86.5936 340.854C85.0794 340.984 83.5449 341.055 82.0002 341.055C80.4656 341.055 78.931 340.984 77.427 340.864C76.5835 339.665 75.7603 338.387 74.9676 337.038C74.1953 335.719 73.4941 334.379 72.8538 333.03C73.4839 331.681 74.1953 330.332 74.9575 329.013C75.7502 327.654 76.5632 326.365 77.4067 325.167C78.9209 325.036 80.4554 324.965 82.0002 324.965C83.5347 324.965 85.0693 325.036 86.5733 325.157C87.4168 326.355 88.24 327.633 89.0327 328.983C89.805 330.302 90.5062 331.641 91.1465 332.99C90.5062 334.339 89.805 335.688 89.0428 337.007ZM93.7278 339.706C93.3416 338.397 92.8741 337.048 92.3254 335.698C91.9087 336.504 91.4717 337.319 91.0042 338.125C90.5367 338.941 90.0388 339.736 89.5408 340.511C90.9941 340.3 92.3965 340.028 93.7278 339.706ZM82.0205 346.442C81.0754 345.475 80.1302 344.398 79.1953 343.22C80.1099 343.26 81.0449 343.29 81.99 343.29C82.9453 343.29 83.8904 343.27 84.8152 343.22C83.9006 344.398 82.9554 345.475 82.0205 346.442ZM70.2928 339.716C71.6241 340.038 73.0164 340.3 74.4595 340.511C73.9615 339.746 73.4737 338.961 72.9961 338.155C72.5184 337.35 72.0815 336.544 71.6648 335.739C71.1363 337.078 70.6688 338.417 70.2928 339.716ZM81.9697 319.558C82.9148 320.525 83.8599 321.602 84.7949 322.78C83.8802 322.74 82.9453 322.71 82.0002 322.71C81.0449 322.71 80.0997 322.73 79.1749 322.78C80.0896 321.602 81.0347 320.525 81.9697 319.558ZM72.9859 327.875C73.4534 327.059 73.9514 326.264 74.4493 325.489C72.9961 325.7 71.5936 325.972 70.2623 326.284C70.6485 327.593 71.116 328.942 71.6648 330.292C72.0815 329.486 72.5184 328.681 72.9859 327.875ZM65.2522 338.095C61.6546 336.574 59.3274 334.581 59.3274 333C59.3274 331.419 61.6546 329.416 65.2522 327.905C66.1262 327.533 67.0815 327.2 68.0672 326.888C68.6465 328.862 69.4087 330.916 70.3538 333.02C69.4188 335.114 68.6668 337.158 68.0977 339.122C67.0916 338.81 66.1363 338.467 65.2522 338.095ZM69.2054 344.861C68.738 348.707 69.3375 351.697 70.7197 352.483C71.0245 352.654 71.4107 352.745 71.868 352.755C73.9819 352.755 77.0916 351.083 80.4046 348.032C78.9717 346.552 77.5489 344.861 76.177 342.998C73.8904 342.757 71.7156 342.384 69.7237 341.901C69.5002 342.918 69.3172 343.914 69.2054 344.861ZM94.8254 344.811C95.303 348.657 94.7136 351.647 93.3416 352.443C93.0367 352.624 92.6404 352.704 92.1729 352.704C90.0693 352.704 86.9493 351.043 83.6363 348.012C85.0591 346.532 86.4819 344.851 87.8335 342.988C90.1302 342.746 92.305 342.374 94.2969 341.881C94.5306 342.897 94.7136 343.874 94.8254 344.811ZM95.9229 339.112C96.9087 338.8 97.864 338.467 98.738 338.095C102.336 336.584 104.663 334.581 104.673 333C104.673 331.419 102.346 329.426 98.7481 327.905C97.8538 327.533 96.8985 327.19 95.8924 326.878C95.3233 328.842 94.5713 330.886 93.6363 332.98C94.5815 335.084 95.3436 337.138 95.9229 339.112Z" fill="#61DAFB"/>
<path d="M81.99 337.601C84.555 337.601 86.6343 335.541 86.6343 333C86.6343 330.459 84.555 328.398 81.99 328.398C79.425 328.398 77.3457 330.459 77.3457 333C77.3457 335.541 79.425 337.601 81.99 337.601Z" fill="#61DAFB"/>
<path d="M68.4977 382L66.1877 378.15H65.3197V382H63.3457V372.116H67.1117C68.2597 372.116 69.1324 372.396 69.7297 372.956C70.3364 373.516 70.6397 374.254 70.6397 375.168C70.6397 375.915 70.4297 376.54 70.0097 377.044C69.599 377.548 69.0017 377.884 68.2177 378.052L70.6817 382H68.4977ZM65.3197 376.792H66.9437C68.073 376.792 68.6377 376.293 68.6377 375.294C68.6377 374.818 68.4977 374.45 68.2177 374.188C67.947 373.918 67.5224 373.782 66.9437 373.782H65.3197V376.792Z" fill="#5E709D"/>
<path d="M79.2948 377.828C79.2948 378.024 79.2715 378.248 79.2248 378.5H73.5408C73.5688 379.191 73.7555 379.7 74.1008 380.026C74.4462 380.353 74.8755 380.516 75.3888 380.516C75.8462 380.516 76.2242 380.404 76.5228 380.18C76.8308 379.956 77.0268 379.653 77.1108 379.27H79.1968C79.0942 379.812 78.8748 380.297 78.5388 380.726C78.2028 381.156 77.7688 381.492 77.2368 381.734C76.7142 381.977 76.1308 382.098 75.4868 382.098C74.7308 382.098 74.0588 381.94 73.4708 381.622C72.8828 381.296 72.4255 380.834 72.0988 380.236C71.7722 379.639 71.6088 378.934 71.6088 378.122C71.6088 377.31 71.7722 376.606 72.0988 376.008C72.4255 375.402 72.8828 374.94 73.4708 374.622C74.0588 374.305 74.7308 374.146 75.4868 374.146C76.2522 374.146 76.9195 374.305 77.4888 374.622C78.0675 374.94 78.5108 375.378 78.8188 375.938C79.1362 376.489 79.2948 377.119 79.2948 377.828ZM77.3068 377.632C77.3348 376.998 77.1668 376.517 76.8028 376.19C76.4482 375.864 76.0095 375.7 75.4868 375.7C74.9548 375.7 74.5068 375.864 74.1428 376.19C73.7788 376.517 73.5782 376.998 73.5408 377.632H77.3068Z" fill="#5E709D"/>
<path d="M83.7624 374.146C84.4157 374.146 84.9757 374.3 85.4424 374.608C85.909 374.916 86.2404 375.332 86.4364 375.854V374.244H88.3964V382H86.4364V380.376C86.2404 380.899 85.909 381.319 85.4424 381.636C84.9757 381.944 84.4157 382.098 83.7624 382.098C83.109 382.098 82.521 381.94 81.9984 381.622C81.4757 381.305 81.065 380.848 80.7664 380.25C80.477 379.644 80.3324 378.934 80.3324 378.122C80.3324 377.31 80.477 376.606 80.7664 376.008C81.065 375.402 81.4757 374.94 81.9984 374.622C82.521 374.305 83.109 374.146 83.7624 374.146ZM84.3784 375.868C83.7624 375.868 83.2677 376.069 82.8944 376.47C82.521 376.872 82.3344 377.422 82.3344 378.122C82.3344 378.822 82.521 379.373 82.8944 379.774C83.2677 380.166 83.7624 380.362 84.3784 380.362C84.9757 380.362 85.4657 380.162 85.8484 379.76C86.2404 379.35 86.4364 378.804 86.4364 378.122C86.4364 377.432 86.2404 376.886 85.8484 376.484C85.4657 376.074 84.9757 375.868 84.3784 375.868Z" fill="#5E709D"/>
<path d="M93.6995 374.146C94.6981 374.146 95.5288 374.417 96.1915 374.958C96.8635 375.5 97.2835 376.237 97.4515 377.17H95.3655C95.2815 376.76 95.0901 376.438 94.7915 376.204C94.4928 375.962 94.1148 375.84 93.6575 375.84C93.1348 375.84 92.6961 376.036 92.3415 376.428C91.9961 376.811 91.8235 377.376 91.8235 378.122C91.8235 378.869 91.9961 379.438 92.3415 379.83C92.6961 380.213 93.1348 380.404 93.6575 380.404C94.1148 380.404 94.4928 380.288 94.7915 380.054C95.0901 379.812 95.2815 379.485 95.3655 379.074H97.4515C97.2835 380.008 96.8635 380.745 96.1915 381.286C95.5288 381.828 94.6981 382.098 93.6995 382.098C92.9435 382.098 92.2715 381.94 91.6835 381.622C91.0955 381.296 90.6381 380.834 90.3115 380.236C89.9848 379.639 89.8215 378.934 89.8215 378.122C89.8215 377.31 89.9848 376.606 90.3115 376.008C90.6381 375.402 91.0955 374.94 91.6835 374.622C92.2715 374.305 92.9435 374.146 93.6995 374.146Z" fill="#5E709D"/>
<path d="M103.026 380.306V382H101.99C101.122 382 100.455 381.79 99.9883 381.37C99.531 380.95 99.3023 380.25 99.3023 379.27V375.91H98.2243V374.244H99.3023V372.326H101.276V374.244H103.012V375.91H101.276V379.298C101.276 379.672 101.351 379.933 101.5 380.082C101.65 380.232 101.902 380.306 102.256 380.306H103.026Z" fill="#5E709D"/>
<defs>
<filter id="filter0_f" x="137.014" y="50.8172" width="166.762" height="121.366" filterUnits="userSpaceOnUse" color-interpolation-filters="sRGB">
<feFlood flood-opacity="0" result="BackgroundImageFix"/>
<feBlend mode="normal" in="SourceGraphic" in2="BackgroundImageFix" result="shape"/>
<feGaussianBlur stdDeviation="13.5914" result="effect1_foregroundBlur"/>
</filter>
<filter id="filter1_f" x="376.014" y="458.817" width="166.762" height="121.366" filterUnits="userSpaceOnUse" color-interpolation-filters="sRGB">
<feFlood flood-opacity="0" result="BackgroundImageFix"/>
<feBlend mode="normal" in="SourceGraphic" in2="BackgroundImageFix" result="shape"/>
<feGaussianBlur stdDeviation="13.5914" result="effect1_foregroundBlur"/>
</filter>
<filter id="filter2_f" x="458.014" y="155.817" width="166.762" height="121.366" filterUnits="userSpaceOnUse" color-interpolation-filters="sRGB">
<feFlood flood-opacity="0" result="BackgroundImageFix"/>
<feBlend mode="normal" in="SourceGraphic" in2="BackgroundImageFix" result="shape"/>
<feGaussianBlur stdDeviation="13.5914" result="effect1_foregroundBlur"/>
</filter>
<filter id="filter3_f" x="233.014" y="254.817" width="166.762" height="121.366" filterUnits="userSpaceOnUse" color-interpolation-filters="sRGB">
<feFlood flood-opacity="0" result="BackgroundImageFix"/>
<feBlend mode="normal" in="SourceGraphic" in2="BackgroundImageFix" result="shape"/>
<feGaussianBlur stdDeviation="13.5914" result="effect1_foregroundBlur"/>
</filter>
<filter id="filter4_f" x="0.0144482" y="327.817" width="166.762" height="121.366" filterUnits="userSpaceOnUse" color-interpolation-filters="sRGB">
<feFlood flood-opacity="0" result="BackgroundImageFix"/>
<feBlend mode="normal" in="SourceGraphic" in2="BackgroundImageFix" result="shape"/>
<feGaussianBlur stdDeviation="13.5914" result="effect1_foregroundBlur"/>
</filter>
<radialGradient id="paint0_radial" cx="0" cy="0" r="1" gradientUnits="userSpaceOnUse" gradientTransform="translate(458.223 416.072) rotate(90) scale(47.9289 48.1217)">
<stop stop-color="#20C6B7"/>
<stop offset="1" stop-color="#4D9ABF"/>
</radialGradient>
</defs>
</svg>
