<svg width="414" height="78" viewBox="0 0 414 78" fill="none" xmlns="http://www.w3.org/2000/svg"><path d="M144.516 17.729h12.162l25.776 42.048V17.728h11.227V77.31h-12.08l-25.858-41.96v41.96h-11.227V17.73zM243.864 77.31h-10.462v-6.656c-2.382 4.684-7.229 7.321-13.351 7.321-9.698 0-15.995-6.98-15.995-17.025V34.408h10.462v24.346c0 5.873 3.575 9.958 8.933 9.958 5.869 0 9.951-4.597 9.951-10.894v-23.41h10.462V77.31zM280.272 77.31l-10.038-14.301-10.039 14.3h-11.143l15.483-22.386-14.291-20.515h11.398l8.592 12.346 8.504-12.346h11.485l-14.378 20.515 15.484 22.386h-11.057zM312.593 21.472v12.936h11.908v8.768h-11.908v21.297a2.7 2.7 0 002.693 2.7h9.215v10.12h-6.891c-9.357 0-15.48-5.45-15.48-14.975V43.186h-8.421v-8.777h5.283c2.465 0 3.899-1.468 3.899-3.897v-9.039h9.702zM350.876 63.816V17.728h11.223v42.556c0 11.493-5.529 17.026-14.885 17.026h-13.065V67.19h13.356a3.372 3.372 0 003.371-3.373M368.822 57.306h10.807c.598 6.656 5.021 10.894 12.166 10.894 6.381 0 10.808-2.55 10.808-7.828 0-12.77-32.007-3.918-32.007-26.73.009-9.787 8.43-16.587 20.53-16.587 12.591 0 21.095 7.233 21.615 18.385h-10.749c-.508-5.191-4.573-8.681-10.887-8.681-5.869 0-9.527 2.724-9.527 6.892C381.578 46.845 414 36.98 414 60.21 414 71.274 404.897 78 391.799 78c-13.525 0-22.371-8.173-22.965-20.685" fill="#003C3C"/><path d="M64.367 77.23h42.651a7.714 7.714 0 007.716-7.723 7.73 7.73 0 00-1.036-3.86L85.054 15.997a7.717 7.717 0 00-6.682-3.861 7.71 7.71 0 00-6.681 3.861l-7.324 12.703-14.32-24.84A7.721 7.721 0 0043.363 0a7.715 7.715 0 00-6.684 3.86L1.036 65.647a7.724 7.724 0 002.821 10.55 7.711 7.711 0 003.859 1.035h26.773c10.607 0 18.43-4.663 23.813-13.76l13.069-22.649 7-12.12L99.377 65.11H71.371l-7.004 12.12zM34.052 65.098l-18.684-.004 28.008-48.542L57.35 40.822l-9.356 16.222c-3.575 5.903-7.636 8.053-13.942 8.053z" fill="#00DC82"/></svg>