<svg width="308" height="308" viewBox="0 0 308 308" fill="none" xmlns="http://www.w3.org/2000/svg">
<rect width="308" height="308" rx="97" fill="#8F45ED"/>
<mask id="mask0" mask-type="alpha" maskUnits="userSpaceOnUse" x="0" y="0" width="308" height="308">
<rect width="308" height="308" rx="97" fill="#8F45ED"/>
</mask>
<g mask="url(#mask0)">
<path opacity="0.5" d="M242.764 315.486L70.0483 140.632L160.951 59.3542L320.298 218.701L308.534 303.722L242.764 315.486Z" fill="url(#paint0_linear)"/>
<path opacity="0.5" d="M309.604 413.34L148.118 250.25L227.791 157.208L387.138 316.556L375.375 401.576L309.604 413.34Z" fill="url(#paint1_linear)"/>
<g clip-path="url(#clip0)">
<path d="M158.935 197.172C156.781 199.327 154.223 201.037 151.408 202.203C148.593 203.369 145.575 203.969 142.528 203.969C139.481 203.969 136.464 203.369 133.649 202.203C130.834 201.037 128.276 199.327 126.122 197.172L72.3053 143.356C70.1503 141.201 68.4408 138.644 67.2744 135.828C66.1081 133.013 65.5078 129.996 65.5078 126.949C65.5078 123.902 66.1081 120.884 67.2744 118.069C68.4408 115.254 70.1503 112.696 72.3053 110.542L119.069 63.7784C111.439 72.7884 107.474 84.3374 107.962 96.1341C108.45 107.931 113.354 119.113 121.701 127.463C122.616 128.378 123.56 129.236 124.517 130.053L158.935 164.359C161.09 166.513 162.8 169.071 163.966 171.886C165.132 174.701 165.733 177.718 165.733 180.765C165.733 183.812 165.132 186.83 163.966 189.645C162.8 192.46 161.09 195.018 158.935 197.172Z" fill="url(#paint2_linear)"/>
<path d="M121.364 127.125C113.058 118.804 108.205 107.651 107.78 95.9022C107.354 84.1532 111.387 72.678 119.069 63.7784L124.573 58.2602C128.364 55.0448 132.64 52.4506 137.242 50.5742C142.148 49.4337 147.291 49.9206 151.896 51.9613C156.5 54.002 160.316 57.4856 162.765 61.886C165.215 66.2864 166.166 71.3646 165.475 76.3533C164.784 81.3421 162.489 85.9704 158.935 89.5393L121.533 126.956L121.364 127.125Z" fill="url(#paint3_linear)"/>
<path d="M121.701 60.8504C122.63 59.9213 123.588 59.0485 124.517 58.2039L119.069 63.7784C119.899 62.7367 120.772 61.7795 121.701 60.8504Z" fill="#0D1026"/>
</g>
<g clip-path="url(#clip1)">
<path d="M148.209 250.665C150.364 252.82 152.922 254.529 155.737 255.695C158.552 256.862 161.569 257.462 164.616 257.462C167.663 257.462 170.681 256.862 173.496 255.695C176.311 254.529 178.869 252.82 181.023 250.665L234.839 196.848C236.994 194.694 238.704 192.136 239.87 189.321C241.036 186.506 241.637 183.489 241.637 180.441C241.637 177.394 241.036 174.377 239.87 171.562C238.704 168.747 236.994 166.189 234.839 164.035L188.076 117.271C195.706 126.281 199.67 137.83 199.182 149.627C198.695 161.423 193.791 172.606 185.443 180.955C184.528 181.87 183.585 182.729 182.628 183.545L148.209 217.851C146.054 220.005 144.345 222.563 143.179 225.378C142.012 228.193 141.412 231.211 141.412 234.258C141.412 237.305 142.012 240.322 143.179 243.137C144.345 245.952 146.054 248.51 148.209 250.665Z" fill="url(#paint4_linear)"/>
<path d="M185.781 180.617C194.087 172.297 198.94 161.144 199.365 149.395C199.791 137.646 195.758 126.171 188.076 117.271L182.572 111.753C178.781 108.537 174.505 105.943 169.903 104.067C164.997 102.926 159.854 103.413 155.249 105.454C150.645 107.495 146.829 110.978 144.38 115.379C141.93 119.779 140.979 124.857 141.67 129.846C142.361 134.835 144.656 139.463 148.21 143.032L185.613 180.449L185.781 180.617Z" fill="url(#paint5_linear)"/>
<path d="M185.443 114.343C184.514 113.414 183.557 112.541 182.628 111.696L188.076 117.271C187.245 116.229 186.372 115.272 185.443 114.343Z" fill="#0D1026"/>
</g>
</g>
<defs>
<linearGradient id="paint0_linear" x1="122.451" y1="80.2083" x2="294.632" y2="296.236" gradientUnits="userSpaceOnUse">
<stop stop-color="#5B0CBF"/>
<stop offset="1" stop-color="#8F45ED" stop-opacity="0"/>
</linearGradient>
<linearGradient id="paint1_linear" x1="189.291" y1="178.063" x2="361.472" y2="394.09" gradientUnits="userSpaceOnUse">
<stop stop-color="#5B0CBF"/>
<stop offset="1" stop-color="#8F45ED" stop-opacity="0"/>
</linearGradient>
<linearGradient id="paint2_linear" x1="87.4523" y1="95.341" x2="174.091" y2="181.98" gradientUnits="userSpaceOnUse">
<stop stop-color="#F1E6FF"/>
<stop offset="1" stop-color="#A267ED"/>
</linearGradient>
<linearGradient id="paint3_linear" x1="158.882" y1="56.7396" x2="104.961" y2="110.66" gradientUnits="userSpaceOnUse">
<stop stop-color="#DCC1FF"/>
<stop offset="1" stop-color="#A069E6"/>
</linearGradient>
<linearGradient id="paint4_linear" x1="219.692" y1="148.834" x2="133.053" y2="235.473" gradientUnits="userSpaceOnUse">
<stop stop-color="#F1E6FF"/>
<stop offset="1" stop-color="#A267ED"/>
</linearGradient>
<linearGradient id="paint5_linear" x1="148.263" y1="110.232" x2="202.184" y2="164.153" gradientUnits="userSpaceOnUse">
<stop stop-color="#DCC1FF"/>
<stop offset="1" stop-color="#A069E6"/>
</linearGradient>
<clipPath id="clip0">
<rect width="100.228" height="154.045" fill="white" transform="translate(65.4497 49.9266)"/>
</clipPath>
<clipPath id="clip1">
<rect width="100.228" height="154.045" fill="white" transform="matrix(-1 0 0 1 241.695 103.419)"/>
</clipPath>
</defs>
</svg>
