<svg width="1074" height="903" viewBox="0 0 1074 903" fill="none" xmlns="http://www.w3.org/2000/svg">
<g style="mix-blend-mode:multiply" filter="url(#filter0_f)">
<rect x="60" y="275.211" width="829.842" height="586.888" rx="40" transform="rotate(-15 60 275.211)" fill="#99B0C2" fill-opacity="0.38"/>
</g>
<rect x="76.959" y="233.779" width="829.842" height="598.138" rx="40" transform="rotate(-15 76.959 233.779)" fill="white"/>
<rect x="251.104" y="213.102" width="494.111" height="32.6774" rx="10" transform="rotate(-15 251.104 213.102)" fill="#F4F9FE"/>
<circle cx="137.069" cy="265.372" r="4.46583" fill="#FD7A8C"/>
<circle cx="122.979" cy="269.979" r="4.46583" fill="#80EBFF"/>
<circle cx="150.835" cy="261.438" r="4.46583" fill="#FEE895"/>
<rect x="135.482" y="341.948" width="95.3589" height="13.5344" rx="5" transform="rotate(-15 135.482 341.948)" fill="#956FFF"/>
<rect x="144.414" y="370.579" width="64.3251" height="13.5344" rx="5" transform="rotate(-15 144.414 370.579)" fill="#D8E1EA"/>
<rect x="276.604" y="301.402" width="589.51" height="170.032" rx="10" transform="rotate(-15 276.604 301.402)" fill="#ECE5FF"/>
<circle cx="536.962" cy="319.55" r="27.2415" fill="#956FFF"/>
<circle cx="536.962" cy="319.55" r="25.2415" stroke="black" stroke-opacity="0.1" stroke-width="4"/>
<path d="M546.089 317.444L534.603 328.93L530.399 313.24L546.089 317.444Z" fill="white"/>
<rect x="390.93" y="478.107" width="310.664" height="9.35202" rx="3" transform="rotate(-15 390.93 478.107)" fill="#D8E1EA"/>
<rect x="395.396" y="495.077" width="134.563" height="9.35202" rx="3" transform="rotate(-15 395.396 495.077)" fill="#D8E1EA"/>
<path d="M401.819 513.253C401.426 513.864 400.627 514.078 399.98 513.739L399.887 513.691C395.432 511.407 392.52 509.911 391.899 507.237C391.628 506.065 391.924 504.792 392.712 503.879C394.185 502.166 396.566 502.143 398.145 503.228C398.97 501.499 401.041 500.322 403.175 501.075C404.314 501.473 405.206 502.427 405.558 503.577C406.364 506.201 404.584 508.955 401.871 513.173L401.819 513.253Z" fill="#EC7965"/>
<rect x="340.018" y="570.818" width="230.577" height="170.032" rx="10" transform="rotate(-15 340.018 570.818)" fill="#FFF5CE"/>
<circle cx="474.439" cy="622.333" r="27.2415" fill="#FED078"/>
<circle cx="474.439" cy="622.333" r="25.2415" stroke="black" stroke-opacity="0.2" stroke-width="4"/>
<path d="M483.565 620.227L472.079 631.713L467.875 616.022L483.565 620.227Z" fill="white"/>
<rect x="598.143" y="522.766" width="310.664" height="9.35202" rx="3" transform="rotate(-15 598.143 522.766)" fill="#D8E1EA"/>
<rect x="602.608" y="539.736" width="134.563" height="9.35202" rx="3" transform="rotate(-15 602.608 539.736)" fill="#D8E1EA"/>
<rect x="151.56" y="397.373" width="95.3589" height="13.5344" rx="5" transform="rotate(-15 151.56 397.373)" fill="#D8E1EA"/>
<rect x="158.705" y="422.383" width="85.1825" height="13.5344" rx="5" transform="rotate(-15 158.705 422.383)" fill="#D8E1EA"/>
<mask id="mask0" mask-type="alpha" maskUnits="userSpaceOnUse" x="316" y="470" width="71" height="71">
<path d="M363.249 528.504C376.003 521.967 381.042 506.328 374.505 493.574C367.967 480.82 352.328 475.781 339.574 482.318C326.821 488.856 321.781 504.494 328.319 517.248C334.856 530.002 350.495 535.042 363.249 528.504Z" fill="white"/>
</mask>
<g mask="url(#mask0)">
<path d="M363.249 528.504C376.003 521.967 381.042 506.328 374.505 493.574C367.967 480.82 352.328 475.781 339.574 482.318C326.821 488.856 321.781 504.494 328.319 517.248C334.856 530.002 350.495 535.042 363.249 528.504Z" fill="#DCD4FF"/>
<path fill-rule="evenodd" clip-rule="evenodd" d="M381.062 510.159L413.881 559.364L320.048 584.824L349.726 530.111L381.062 510.159Z" fill="#BB8AFF"/>
<path fill-rule="evenodd" clip-rule="evenodd" d="M365.594 528.407L367.288 527.174C369.411 525.63 369.885 522.634 368.342 520.516L363.2 513.455C361.658 511.337 358.659 510.867 356.537 512.411L354.842 513.644C352.719 515.188 352.245 518.184 353.787 520.303L358.93 527.363C360.472 529.481 363.471 529.951 365.594 528.407Z" fill="#AA6F55"/>
<path fill-rule="evenodd" clip-rule="evenodd" d="M357.352 520.528L359.791 519.278C364.084 517.077 365.799 511.771 363.603 507.485L359.457 499.397C357.26 495.112 351.951 493.406 347.658 495.606L345.218 496.857C340.925 499.057 339.21 504.364 341.407 508.649L345.553 516.737C347.75 521.023 353.059 522.729 357.352 520.528Z" fill="#BC8264"/>
<path fill-rule="evenodd" clip-rule="evenodd" d="M362.167 505.121C363.238 504.572 363.666 503.249 363.118 502.18L362.031 500.06C361.483 498.992 360.159 498.566 359.089 499.115C358.018 499.664 357.59 500.987 358.138 502.056L359.225 504.176C359.773 505.244 361.097 505.67 362.167 505.121Z" fill="#BC8264"/>
<path fill-rule="evenodd" clip-rule="evenodd" d="M344.118 514.374C345.189 513.825 345.617 512.502 345.069 511.433L343.982 509.313C343.435 508.245 342.11 507.819 341.04 508.368C339.969 508.917 339.541 510.24 340.089 511.309L341.176 513.429C341.724 514.497 343.048 514.923 344.118 514.374Z" fill="#BC8264"/>
<path fill-rule="evenodd" clip-rule="evenodd" d="M351.875 512.07C352.45 513.192 353.709 513.696 354.686 513.195C355.663 512.694 355.99 511.378 355.414 510.256C354.839 509.134 353.581 508.631 352.603 509.132C351.626 509.633 351.3 510.948 351.875 512.07Z" fill="#AA6F55"/>
<mask id="mask1" mask-type="alpha" maskUnits="userSpaceOnUse" x="328" y="480" width="38" height="34">
<path d="M355.178 480.152L328.28 493.94L338.495 513.867L365.392 500.08L355.178 480.152Z" fill="white"/>
</mask>
<g mask="url(#mask1)">
<path fill-rule="evenodd" clip-rule="evenodd" d="M335.112 507.268C334.353 505.787 334.607 504.053 335.619 502.855C334.789 502.501 334.072 501.866 333.628 501C332.619 499.032 333.4 496.617 335.372 495.607C335.605 495.487 335.844 495.393 336.087 495.323C335.49 493.485 336.298 491.433 338.076 490.521C338.56 490.273 339.07 490.134 339.58 490.092C339.59 490.017 339.603 489.942 339.617 489.868C339.619 489.86 339.62 489.852 339.621 489.845C339.635 489.774 339.651 489.704 339.668 489.634C339.67 489.63 339.671 489.625 339.672 489.62C339.73 489.396 339.807 489.177 339.902 488.966C339.907 488.956 339.912 488.945 339.916 488.935C339.943 488.876 339.972 488.818 340.002 488.76C340.008 488.749 340.014 488.738 340.02 488.726C340.054 488.662 340.09 488.598 340.128 488.536C340.129 488.534 340.13 488.532 340.131 488.53C340.172 488.463 340.214 488.397 340.259 488.332C340.262 488.329 340.264 488.326 340.266 488.323C340.306 488.266 340.348 488.21 340.391 488.154C340.402 488.139 340.414 488.125 340.426 488.11C340.461 488.066 340.497 488.023 340.535 487.98C340.549 487.964 340.563 487.948 340.577 487.932C340.616 487.888 340.657 487.845 340.699 487.803C340.71 487.791 340.721 487.779 340.733 487.767C340.788 487.714 340.843 487.661 340.9 487.61C340.906 487.606 340.912 487.601 340.918 487.596C340.969 487.552 341.021 487.509 341.074 487.466C341.093 487.451 341.112 487.438 341.131 487.423C341.174 487.391 341.216 487.36 341.26 487.329C341.282 487.314 341.303 487.299 341.326 487.284C341.37 487.254 341.416 487.226 341.462 487.197C341.483 487.185 341.503 487.172 341.524 487.159C341.591 487.12 341.659 487.082 341.729 487.046C341.799 487.01 341.87 486.977 341.94 486.946C341.963 486.936 341.985 486.927 342.007 486.918C342.057 486.897 342.107 486.877 342.158 486.858C342.183 486.848 342.208 486.839 342.233 486.831C342.283 486.813 342.333 486.797 342.384 486.781C342.407 486.774 342.429 486.766 342.452 486.76C342.518 486.741 342.583 486.724 342.649 486.709C342.656 486.707 342.664 486.705 342.671 486.703C342.746 486.686 342.821 486.672 342.896 486.659C342.912 486.656 342.929 486.654 342.945 486.651C343.004 486.643 343.062 486.634 343.121 486.628C343.142 486.626 343.163 486.624 343.184 486.622C343.241 486.616 343.297 486.612 343.354 486.609C343.373 486.609 343.391 486.607 343.41 486.607C343.48 486.604 343.55 486.603 343.619 486.604C343.623 486.604 343.627 486.604 343.631 486.604C343.71 486.605 343.789 486.609 343.867 486.615C343.869 486.615 343.871 486.616 343.873 486.616C343.946 486.622 344.019 486.63 344.091 486.639C344.104 486.641 344.116 486.643 344.129 486.645C344.193 486.654 344.257 486.665 344.321 486.677C344.332 486.679 344.343 486.682 344.355 486.684C344.582 486.73 344.804 486.795 345.02 486.879C345.024 486.881 345.029 486.883 345.033 486.884C345.1 486.911 345.166 486.939 345.232 486.969C345.239 486.972 345.246 486.976 345.253 486.979C345.321 487.011 345.39 487.044 345.456 487.08C345.788 486.69 346.199 486.357 346.683 486.109C348.461 485.198 350.599 485.74 351.743 487.298C351.941 487.142 352.157 487.002 352.391 486.883C354.362 485.872 356.778 486.648 357.787 488.617C358.231 489.483 358.328 490.435 358.131 491.315C359.695 491.193 361.25 491.999 362.01 493.48C362.667 494.763 362.564 496.236 361.867 497.385L361.867 497.385C361.867 497.385 362.617 498.039 362.976 499.704C363.336 501.369 360.987 502.327 360.987 502.327C360.987 502.327 359.385 499.203 359.372 499.206L359.372 499.206C357.782 499.589 356.09 498.962 355.144 497.597C354.776 498.15 354.267 498.62 353.633 498.945C352.758 499.394 351.794 499.49 350.905 499.286C350.886 499.332 350.865 499.378 350.843 499.424C350.84 499.433 350.836 499.441 350.832 499.449C350.812 499.492 350.791 499.534 350.769 499.576C350.763 499.587 350.758 499.599 350.751 499.61C350.73 499.65 350.708 499.689 350.686 499.729C350.679 499.741 350.671 499.754 350.664 499.767C350.641 499.805 350.618 499.843 350.594 499.88C350.587 499.893 350.578 499.906 350.57 499.918C350.546 499.955 350.522 499.993 350.496 500.03C350.488 500.04 350.48 500.05 350.473 500.061C350.385 500.185 350.29 500.303 350.187 500.417C350.18 500.425 350.173 500.434 350.165 500.442C350.141 500.469 350.115 500.494 350.09 500.521C350.072 500.539 350.054 500.559 350.035 500.578C350.012 500.601 349.988 500.623 349.964 500.645C349.942 500.666 349.92 500.687 349.898 500.707C349.875 500.728 349.851 500.748 349.828 500.768C349.803 500.79 349.778 500.811 349.753 500.831C349.73 500.85 349.707 500.869 349.683 500.887C349.656 500.909 349.628 500.93 349.601 500.95C349.578 500.967 349.555 500.984 349.532 501.001C349.501 501.022 349.47 501.043 349.439 501.064C349.417 501.078 349.395 501.093 349.373 501.108C349.338 501.13 349.301 501.152 349.265 501.174C349.246 501.185 349.227 501.197 349.208 501.208C349.152 501.24 349.094 501.272 349.036 501.301C348.978 501.331 348.919 501.36 348.86 501.386C348.84 501.395 348.819 501.404 348.799 501.413C348.76 501.43 348.721 501.446 348.682 501.462C348.657 501.472 348.632 501.481 348.608 501.49C348.573 501.503 348.537 501.516 348.502 501.528C348.475 501.537 348.448 501.546 348.421 501.555C348.388 501.565 348.355 501.576 348.322 501.585C348.293 501.593 348.265 501.601 348.236 501.609C348.205 501.617 348.173 501.625 348.141 501.633C348.111 501.64 348.081 501.647 348.05 501.654C348.021 501.66 347.991 501.666 347.962 501.672C347.929 501.678 347.897 501.684 347.865 501.69C347.839 501.694 347.813 501.698 347.786 501.702C347.751 501.707 347.715 501.712 347.679 501.716C347.668 501.718 347.657 501.718 347.646 501.72C347.494 501.736 347.342 501.744 347.191 501.744C347.177 501.743 347.164 501.744 347.151 501.744C347.106 501.743 347.062 501.741 347.017 501.739C347.002 501.739 346.987 501.738 346.972 501.737C346.928 501.734 346.884 501.731 346.84 501.727C346.825 501.726 346.81 501.724 346.796 501.723C346.751 501.718 346.706 501.713 346.661 501.706C346.649 501.705 346.636 501.703 346.623 501.701C346.576 501.694 346.53 501.687 346.484 501.678C346.475 501.677 346.466 501.675 346.457 501.673C346.407 501.664 346.358 501.653 346.308 501.642C345.955 502.483 345.315 503.209 344.439 503.658C343.806 503.983 343.126 504.122 342.462 504.098C343.018 505.662 342.539 507.402 341.3 508.469L341.3 508.469C341.29 508.478 342.892 511.603 342.892 511.603C342.892 511.603 340.742 512.951 339.6 511.687C338.458 510.423 338.365 509.432 338.365 509.432L338.365 509.432C337.025 509.327 335.769 508.551 335.112 507.268Z" fill="#5A372D"/>
</g>
<path fill-rule="evenodd" clip-rule="evenodd" d="M353.271 504.329L356.456 502.696C356.748 502.547 356.864 502.186 356.715 501.894C356.566 501.603 356.204 501.487 355.912 501.636L352.727 503.269C352.435 503.419 352.319 503.78 352.468 504.071C352.617 504.363 352.979 504.479 353.271 504.329Z" fill="#623D33"/>
<path fill-rule="evenodd" clip-rule="evenodd" d="M345.484 508.32L348.67 506.687C348.962 506.538 349.078 506.177 348.929 505.885C348.779 505.594 348.418 505.478 348.126 505.628L344.941 507.26C344.649 507.41 344.532 507.771 344.682 508.062C344.831 508.354 345.192 508.47 345.484 508.32Z" fill="#623D33"/>
<path fill-rule="evenodd" clip-rule="evenodd" d="M355.176 504.507C356.433 503.863 357.979 504.36 358.622 505.614C359.265 506.869 358.766 508.414 357.509 509.059C356.252 509.703 354.706 509.206 354.062 507.951C353.419 506.697 353.918 505.151 355.176 504.507ZM358.052 510.119C359.894 509.174 360.626 506.909 359.683 505.07C358.741 503.231 356.475 502.503 354.632 503.447C352.79 504.392 352.058 506.656 353.001 508.495C353.944 510.335 356.21 511.063 358.052 510.119Z" fill="#D5B6FF"/>
<path fill-rule="evenodd" clip-rule="evenodd" d="M347.605 508.584C348.862 507.94 350.408 508.437 351.051 509.691C351.695 510.946 351.196 512.491 349.938 513.136C348.681 513.78 347.135 513.283 346.492 512.028C345.849 510.774 346.348 509.229 347.605 508.584ZM350.482 514.196C352.324 513.251 353.056 510.986 352.113 509.147C351.17 507.308 348.904 506.58 347.062 507.524C345.22 508.469 344.488 510.733 345.43 512.572C346.373 514.412 348.639 515.14 350.482 514.196Z" fill="#D5B6FF"/>
<path fill-rule="evenodd" clip-rule="evenodd" d="M353.583 508.974L353.638 507.784L353.489 507.777C352.482 507.732 351.552 508.25 351.06 509.13L352.101 509.71C352.371 509.227 352.881 508.944 353.434 508.967L353.583 508.974Z" fill="#D5B6FF"/>
<path fill-rule="evenodd" clip-rule="evenodd" d="M355.521 507.413C355.771 507.901 356.37 508.094 356.859 507.843C357.347 507.593 357.541 506.994 357.291 506.506C357.041 506.018 356.442 505.826 355.953 506.077C355.464 506.327 355.271 506.925 355.521 507.413Z" fill="#1D1F22"/>
<path fill-rule="evenodd" clip-rule="evenodd" d="M348.09 511.223C348.34 511.711 348.939 511.903 349.428 511.653C349.917 511.402 350.11 510.804 349.86 510.316C349.61 509.828 349.011 509.636 348.522 509.886C348.034 510.137 347.84 510.735 348.09 511.223Z" fill="#1D1F22"/>
<path d="M359.398 513.233C359.398 513.233 358.872 515.288 354.46 517.549" stroke="#623D33" stroke-width="1.27702" stroke-linecap="round" stroke-linejoin="round"/>
</g>
<mask id="mask2" mask-type="alpha" maskUnits="userSpaceOnUse" x="604" y="551" width="69" height="69">
<path d="M649.348 608.997C662.204 603.128 667.867 587.948 661.997 575.092C656.127 562.236 640.947 556.573 628.092 562.443C615.236 568.312 609.573 583.492 615.443 596.348C621.312 609.204 636.492 614.867 649.348 608.997Z" fill="white"/>
</mask>
<g mask="url(#mask2)">
<path d="M649.348 608.997C662.204 603.128 667.867 587.948 661.997 575.092C656.127 562.236 640.947 556.573 628.092 562.443C615.236 568.312 609.573 583.492 615.443 596.348C621.312 609.204 636.492 614.867 649.348 608.997Z" fill="#D7EDB2"/>
<path fill-rule="evenodd" clip-rule="evenodd" d="M625.269 586.616L628.201 585.277L626.448 581.44L623.517 582.778L625.269 586.616Z" fill="#332612"/>
<path fill-rule="evenodd" clip-rule="evenodd" d="M645.497 577.38L648.429 576.042L646.677 572.204L643.745 573.543L645.497 577.38Z" fill="#332612"/>
<path fill-rule="evenodd" clip-rule="evenodd" d="M696.366 649.044L652.097 669.256C650.162 670.14 647.967 669.523 647.22 667.886L623.382 611.022L671.462 589.069L698.525 644.461C699.272 646.098 698.301 648.16 696.366 649.044Z" fill="#A6D753"/>
<path fill-rule="evenodd" clip-rule="evenodd" d="M649.596 608.328L649.235 608.492C645.949 609.993 642.023 608.513 640.512 605.203L636.035 595.398C635.171 593.507 636.002 591.258 637.88 590.4L643.363 587.897C645.241 587.039 647.484 587.885 648.348 589.776L652.825 599.582C654.336 602.891 652.883 606.827 649.596 608.328Z" fill="#E39E8F"/>
<path fill-rule="evenodd" clip-rule="evenodd" d="M648.53 597.055L640.995 600.496C637.168 602.243 632.596 600.52 630.836 596.666L624.426 582.627C622.666 578.773 624.358 574.189 628.186 572.442L635.721 569.001C639.549 567.254 644.12 568.977 645.88 572.831L652.29 586.87C654.05 590.724 652.358 595.308 648.53 597.055Z" fill="#F9BFB2"/>
<path fill-rule="evenodd" clip-rule="evenodd" d="M628.754 590.019L627.598 590.547C626.644 590.983 625.504 590.553 625.065 589.592L623.936 587.12C623.498 586.159 623.92 585.016 624.874 584.581L626.03 584.053C626.985 583.617 628.125 584.046 628.564 585.008L629.692 587.479C630.131 588.44 629.709 589.583 628.754 590.019Z" fill="#F9BFB2"/>
<path fill-rule="evenodd" clip-rule="evenodd" d="M650.208 580.223L649.052 580.751C648.097 581.187 646.957 580.757 646.518 579.796L645.39 577.325C644.951 576.364 645.373 575.221 646.327 574.785L647.483 574.257C648.438 573.821 649.578 574.251 650.017 575.212L651.145 577.683C651.584 578.645 651.162 579.788 650.208 580.223Z" fill="#F9BFB2"/>
<path fill-rule="evenodd" clip-rule="evenodd" d="M652.068 597.924L652.742 599.4C654.299 602.81 652.802 606.864 649.416 608.41C646.03 609.956 641.986 608.431 640.429 605.022L639.755 603.546L637.703 604.483L638.377 605.959C640.458 610.516 645.833 612.543 650.36 610.476C654.886 608.41 656.875 603.021 654.794 598.463L654.12 596.987L652.068 597.924Z" fill="#332612"/>
<path fill-rule="evenodd" clip-rule="evenodd" d="M635.693 585.433C635.957 586.012 635.706 586.693 635.131 586.956C634.557 587.218 633.877 586.962 633.613 586.383C633.349 585.805 633.601 585.123 634.175 584.861C634.749 584.599 635.429 584.855 635.693 585.433Z" fill="#1D1F22"/>
<path d="M630.286 585.486C630.19 583.697 631.987 582.158 634.302 582.045" stroke="#332612" stroke-width="1.27702" stroke-linecap="round" stroke-linejoin="round"/>
<path fill-rule="evenodd" clip-rule="evenodd" d="M641 583.01C641.264 583.589 641.944 583.845 642.518 583.583C643.092 583.32 643.344 582.639 643.08 582.06C642.816 581.482 642.136 581.226 641.562 581.488C640.987 581.75 640.736 582.432 641 583.01Z" fill="#1D1F22"/>
<path d="M644.583 578.958C643.293 577.714 640.954 578.063 639.352 579.739" stroke="#332612" stroke-width="1.27702" stroke-linecap="round" stroke-linejoin="round"/>
<path fill-rule="evenodd" clip-rule="evenodd" d="M648.596 580.957C650.235 584.546 648.821 588.741 645.455 590.278L637.909 593.723C634.542 595.261 630.447 593.582 628.808 589.992L628.467 589.246C628.358 589.007 628.083 588.898 627.853 589.003C627.623 589.108 627.525 589.387 627.634 589.626L631.218 597.474C632.856 601.064 636.952 602.743 640.319 601.205L640.983 601.157C644.26 600.917 647.317 599.43 649.53 597C652.897 595.462 654.311 591.268 652.672 587.679L649.088 579.83C648.979 579.591 648.704 579.483 648.474 579.588C648.244 579.693 648.146 579.971 648.255 580.21L648.596 580.957Z" fill="#332612"/>
<path fill-rule="evenodd" clip-rule="evenodd" d="M647.091 592.705L639.03 596.386C637.699 596.993 636.11 596.394 635.499 595.054L635.432 594.908C634.82 593.568 635.408 591.975 636.738 591.367L644.8 587.686C646.13 587.079 647.719 587.678 648.331 589.018L648.398 589.165C649.01 590.504 648.422 592.097 647.091 592.705Z" fill="#332612"/>
<path fill-rule="evenodd" clip-rule="evenodd" d="M638.293 593.212L645.054 589.767C645.4 589.591 645.812 589.844 645.814 590.235L645.814 590.236C645.822 591.843 645.027 593.343 643.697 594.229C642.189 595.232 640.239 595.286 638.669 594.366L638.27 594.132C637.912 593.922 637.925 593.399 638.293 593.212Z" fill="white"/>
<path fill-rule="evenodd" clip-rule="evenodd" d="M641.842 589.83L640.274 590.546C639.77 590.776 639.169 590.549 638.937 590.042L637.323 586.507C637.092 586 637.314 585.397 637.818 585.167L639.386 584.451C639.89 584.221 640.491 584.447 640.723 584.955L642.337 588.49C642.568 588.997 642.346 589.6 641.842 589.83Z" fill="#E39E8F"/>
<path fill-rule="evenodd" clip-rule="evenodd" d="M642.517 588.34L638.707 590.08C638.553 590.15 638.369 590.08 638.298 589.925L638.109 589.512C638.039 589.357 638.107 589.172 638.261 589.102L642.071 587.362C642.225 587.291 642.409 587.361 642.48 587.516L642.669 587.929C642.74 588.085 642.672 588.27 642.517 588.34Z" fill="#E39E8F"/>
<path fill-rule="evenodd" clip-rule="evenodd" d="M645.838 570.477L647.55 574.226L645.836 575.009L645.053 573.293C644.646 572.403 643.74 571.938 643.039 572.258L633.625 576.556L632.982 576.8C632.772 576.881 632.557 576.943 632.337 576.99C630.949 577.28 628.998 577.665 627.885 576.562C627.885 576.57 627.884 576.577 627.885 576.588C627.885 576.588 623.562 578.363 625.196 581.948L625.197 581.952C625.227 582.068 625.27 582.187 625.322 582.301L626.106 584.017L624.389 584.801L622.677 581.052C620.785 576.908 621.91 572.297 625.18 570.804L636.452 565.657C639.722 564.165 643.946 566.333 645.838 570.477Z" fill="#332612"/>
</g>
<defs>
<filter id="filter0_f" x="0" y="0.431641" width="1073.46" height="901.669" filterUnits="userSpaceOnUse" color-interpolation-filters="sRGB">
<feFlood flood-opacity="0" result="BackgroundImageFix"/>
<feBlend mode="normal" in="SourceGraphic" in2="BackgroundImageFix" result="shape"/>
<feGaussianBlur stdDeviation="30" result="effect1_foregroundBlur"/>
</filter>
</defs>
</svg>
