<svg width="708" height="568" viewBox="0 0 708 568" fill="none" xmlns="http://www.w3.org/2000/svg">
<mask id="mask0" style="mask-type:alpha" maskUnits="userSpaceOnUse" x="35" y="6" width="652" height="511">
<path d="M656 6.21898H66C48.8792 6.21898 35 20.6047 35 38.3504V484.044C35 501.79 48.8792 516.175 66 516.175H656C673.121 516.175 687 501.79 687 484.044V38.3504C687 20.6047 673.121 6.21898 656 6.21898Z" fill="white"/>
</mask>
<g mask="url(#mask0)">
<g filter="url(#filter0_d)">
<path d="M656 6.21898H66C48.8792 6.21898 35 20.6047 35 38.3504V484.044C35 501.79 48.8792 516.175 66 516.175H656C673.121 516.175 687 501.79 687 484.044V38.3504C687 20.6047 673.121 6.21898 656 6.21898Z" fill="black"/>
</g>
<path d="M672 6.21898H82C64.8792 6.21898 51 20.6047 51 38.3504V484.044C51 501.79 64.8792 516.175 82 516.175H672C689.121 516.175 703 501.79 703 484.044V38.3504C703 20.6047 689.121 6.21898 672 6.21898Z" fill="white"/>
<rect x="352" y="468.496" width="21" height="20.7299" rx="5" fill="#EEF2F5"/>
<rect x="409" y="468.496" width="23" height="20.7299" rx="5" fill="#EEF2F5"/>
<path d="M389.682 474.496C390.205 474.496 390.676 474.582 391.096 474.755C391.521 474.923 391.88 475.168 392.174 475.49C392.473 475.807 392.701 476.192 392.86 476.645C393.019 477.093 393.098 477.597 393.098 478.157C393.098 478.717 393.019 479.223 392.86 479.676C392.701 480.128 392.473 480.513 392.174 480.831C391.88 481.148 391.521 481.393 391.096 481.566C390.676 481.734 390.205 481.818 389.682 481.818C389.155 481.818 388.679 481.734 388.254 481.566C387.834 481.393 387.475 481.148 387.176 480.831C386.877 480.513 386.646 480.128 386.483 479.676C386.324 479.223 386.245 478.717 386.245 478.157C386.245 477.597 386.324 477.093 386.483 476.645C386.646 476.192 386.877 475.807 387.176 475.49C387.475 475.168 387.834 474.923 388.254 474.755C388.679 474.582 389.155 474.496 389.682 474.496ZM389.682 480.754C390.354 480.754 390.856 480.527 391.187 480.075C391.518 479.622 391.684 478.985 391.684 478.164C391.684 477.342 391.518 476.705 391.187 476.253C390.856 475.795 390.354 475.567 389.682 475.567C389.001 475.567 388.492 475.795 388.156 476.253C387.825 476.705 387.659 477.342 387.659 478.164C387.659 478.985 387.825 479.622 388.156 480.075C388.492 480.527 389.001 480.754 389.682 480.754ZM394.927 481.72V475.728L394.185 475.637C394.077 475.613 393.989 475.576 393.919 475.525C393.853 475.469 393.821 475.389 393.821 475.287V474.72H394.927V474.076C394.927 473.67 394.985 473.308 395.102 472.991C395.218 472.673 395.384 472.405 395.599 472.186C395.818 471.962 396.079 471.794 396.383 471.682C396.691 471.565 397.036 471.507 397.419 471.507C397.741 471.507 398.037 471.553 398.308 471.647L398.28 472.333C398.275 472.393 398.256 472.44 398.224 472.473C398.191 472.501 398.147 472.522 398.091 472.536C398.039 472.55 397.974 472.559 397.895 472.564C397.82 472.564 397.738 472.564 397.65 472.564C397.44 472.564 397.248 472.589 397.076 472.641C396.903 472.692 396.756 472.778 396.635 472.9C396.513 473.021 396.42 473.182 396.355 473.383C396.289 473.579 396.257 473.824 396.257 474.118V474.72H398.252V475.714H396.299V481.72H394.927Z" fill="#414141"/>
<path d="M466.441 470.051C465.621 470.051 464.832 470.16 464.074 470.379C463.316 470.598 462.602 470.909 461.93 471.314C461.258 471.719 460.656 472.201 460.125 472.76C459.594 473.318 459.129 473.946 458.73 474.642C458.332 475.339 458.031 476.076 457.828 476.853C457.625 477.63 457.516 478.452 457.5 479.319C457.5 480.169 457.605 480.987 457.816 481.772C458.027 482.558 458.328 483.299 458.719 483.995C459.109 484.692 459.574 485.315 460.113 485.866C460.652 486.416 461.258 486.898 461.93 487.311C462.602 487.724 463.312 488.036 464.062 488.246C464.812 488.457 465.605 488.57 466.441 488.587C467.262 488.587 468.051 488.477 468.809 488.259C469.566 488.04 470.281 487.728 470.953 487.323C471.625 486.918 472.227 486.437 472.758 485.878C473.289 485.319 473.754 484.692 474.152 483.995C474.551 483.299 474.852 482.562 475.055 481.785C475.258 481.007 475.367 480.185 475.383 479.319C475.383 478.469 475.277 477.651 475.066 476.865C474.855 476.08 474.555 475.343 474.164 474.655C473.773 473.966 473.305 473.339 472.758 472.772C472.211 472.205 471.609 471.723 470.953 471.326C470.297 470.93 469.586 470.618 468.82 470.391C468.055 470.164 467.262 470.051 466.441 470.051ZM466.441 468.496C467.402 468.496 468.324 468.626 469.207 468.885C470.09 469.144 470.922 469.509 471.703 469.978C472.484 470.448 473.188 471.011 473.812 471.667C474.437 472.322 474.984 473.055 475.453 473.865C475.922 474.675 476.273 475.533 476.508 476.44C476.742 477.347 476.867 478.307 476.883 479.319C476.883 480.315 476.758 481.27 476.508 482.185C476.258 483.1 475.906 483.963 475.453 484.773C475 485.582 474.457 486.311 473.824 486.959C473.191 487.607 472.484 488.174 471.703 488.659C470.922 489.145 470.094 489.51 469.219 489.753C468.344 489.996 467.418 490.125 466.441 490.141C465.48 490.141 464.559 490.012 463.676 489.753C462.793 489.493 461.961 489.129 461.18 488.659C460.398 488.19 459.695 487.627 459.07 486.971C458.445 486.315 457.898 485.582 457.43 484.773C456.961 483.963 456.609 483.104 456.375 482.198C456.141 481.291 456.016 480.331 456 479.319C456 478.323 456.125 477.367 456.375 476.452C456.625 475.537 456.977 474.675 457.43 473.865C457.883 473.055 458.426 472.327 459.059 471.679C459.691 471.031 460.398 470.464 461.18 469.978C461.961 469.492 462.789 469.128 463.664 468.885C464.539 468.642 465.465 468.513 466.441 468.496ZM465.41 484.979L464.355 483.886L468.691 479.38L464.355 474.873L465.41 473.78L470.812 479.38L465.41 484.979Z" fill="#BDC1CA"/>
<path d="M323.441 487.55C324.262 487.55 325.051 487.441 325.809 487.222C326.566 487.003 327.281 486.692 327.953 486.287C328.625 485.882 329.227 485.4 329.758 484.841C330.289 484.283 330.754 483.655 331.152 482.959C331.551 482.262 331.852 481.525 332.055 480.748C332.258 479.971 332.367 479.149 332.383 478.282C332.383 477.432 332.277 476.614 332.066 475.829C331.855 475.043 331.555 474.302 331.164 473.606C330.773 472.91 330.309 472.286 329.77 471.735C329.23 471.185 328.625 470.703 327.953 470.29C327.281 469.877 326.57 469.565 325.82 469.355C325.07 469.144 324.277 469.031 323.441 469.015C322.621 469.015 321.832 469.124 321.074 469.343C320.316 469.561 319.602 469.873 318.93 470.278C318.258 470.683 317.656 471.165 317.125 471.723C316.594 472.282 316.129 472.91 315.73 473.606C315.332 474.302 315.031 475.039 314.828 475.817C314.625 476.594 314.516 477.416 314.5 478.282C314.5 479.133 314.605 479.95 314.816 480.736C315.027 481.521 315.328 482.258 315.719 482.947C316.109 483.635 316.578 484.262 317.125 484.829C317.672 485.396 318.273 485.878 318.93 486.275C319.586 486.671 320.297 486.983 321.063 487.21C321.828 487.437 322.621 487.55 323.441 487.55ZM323.441 489.105C322.48 489.105 321.559 488.975 320.676 488.716C319.793 488.457 318.961 488.093 318.18 487.623C317.398 487.153 316.695 486.59 316.07 485.935C315.445 485.279 314.898 484.546 314.43 483.736C313.961 482.926 313.609 482.068 313.375 481.161C313.141 480.254 313.016 479.295 313 478.282C313 477.286 313.125 476.331 313.375 475.416C313.625 474.501 313.977 473.638 314.43 472.829C314.883 472.019 315.426 471.29 316.059 470.642C316.691 469.994 317.398 469.428 318.18 468.942C318.961 468.456 319.789 468.091 320.664 467.849C321.539 467.606 322.465 467.476 323.441 467.46C324.402 467.46 325.324 467.589 326.207 467.849C327.09 468.108 327.922 468.472 328.703 468.942C329.484 469.411 330.188 469.974 330.813 470.63C331.438 471.286 331.984 472.019 332.453 472.829C332.922 473.638 333.273 474.497 333.508 475.404C333.742 476.311 333.867 477.27 333.883 478.282C333.883 479.278 333.758 480.234 333.508 481.149C333.258 482.064 332.906 482.926 332.453 483.736C332 484.546 331.457 485.275 330.824 485.922C330.191 486.57 329.484 487.137 328.703 487.623C327.922 488.109 327.094 488.473 326.219 488.716C325.344 488.959 324.418 489.089 323.441 489.105ZM324.473 472.622L325.527 473.715L321.191 478.222L325.527 482.728L324.473 483.821L319.07 478.222L324.473 472.622Z" fill="#BDC1CA"/>
<path d="M164 6.21898H35V547.27H164V6.21898Z" fill="#F5F9FF"/>
<path d="M121.5 83.9562H67.5C66.1193 83.9562 65 85.1163 65 86.5474C65 87.9785 66.1193 89.1387 67.5 89.1387H121.5C122.881 89.1387 124 87.9785 124 86.5474C124 85.1163 122.881 83.9562 121.5 83.9562Z" fill="#ADC6E2"/>
<path d="M318.5 81.8832H196.5C195.119 81.8832 194 83.0433 194 84.4744C194 85.9056 195.119 87.0657 196.5 87.0657H318.5C319.881 87.0657 321 85.9056 321 84.4744C321 83.0433 319.881 81.8832 318.5 81.8832Z" fill="#ADC6E2"/>
<path d="M250.5 97.4307H196.5C195.119 97.4307 194 98.5908 194 100.022C194 101.453 195.119 102.613 196.5 102.613H250.5C251.881 102.613 253 101.453 253 100.022C253 98.5908 251.881 97.4307 250.5 97.4307Z" fill="#C3D7E9"/>
<path d="M292.5 97.4307H260.5C259.119 97.4307 258 98.5908 258 100.022C258 101.453 259.119 102.613 260.5 102.613H292.5C293.881 102.613 295 101.453 295 100.022C295 98.5908 293.881 97.4307 292.5 97.4307Z" fill="#C3D7E9"/>
<path d="M121.5 179.314H67.5C66.1193 179.314 65 180.474 65 181.905C65 183.336 66.1193 184.496 67.5 184.496H121.5C122.881 184.496 124 183.336 124 181.905C124 180.474 122.881 179.314 121.5 179.314Z" fill="#ADC6E2"/>
<path d="M99.5 105.723H67.5C66.1193 105.723 65 106.883 65 108.314C65 109.745 66.1193 110.905 67.5 110.905H99.5C100.881 110.905 102 109.745 102 108.314C102 106.883 100.881 105.723 99.5 105.723Z" fill="#D2E0F1"/>
<path d="M99.5 132.672H67.5C66.1193 132.672 65 133.832 65 135.263C65 136.694 66.1193 137.854 67.5 137.854H99.5C100.881 137.854 102 136.694 102 135.263C102 133.832 100.881 132.672 99.5 132.672Z" fill="#D2E0F1"/>
<path d="M99.5 146.146H67.5C66.1193 146.146 65 147.306 65 148.737C65 150.168 66.1193 151.328 67.5 151.328H99.5C100.881 151.328 102 150.168 102 148.737C102 147.306 100.881 146.146 99.5 146.146Z" fill="#D2E0F1"/>
<path d="M99.5 201.08H67.5C66.1193 201.08 65 202.24 65 203.672C65 205.103 66.1193 206.263 67.5 206.263H99.5C100.881 206.263 102 205.103 102 203.672C102 202.24 100.881 201.08 99.5 201.08Z" fill="#D2E0F1"/>
<path d="M99.5 214.555H67.5C66.1193 214.555 65 215.715 65 217.146C65 218.577 66.1193 219.737 67.5 219.737H99.5C100.881 219.737 102 218.577 102 217.146C102 215.715 100.881 214.555 99.5 214.555Z" fill="#D2E0F1"/>
<path d="M99.5 228.029H67.5C66.1193 228.029 65 229.189 65 230.62C65 232.052 66.1193 233.212 67.5 233.212H99.5C100.881 233.212 102 232.052 102 230.62C102 229.189 100.881 228.029 99.5 228.029Z" fill="#D2E0F1"/>
<path d="M99.5 241.504H67.5C66.1193 241.504 65 242.664 65 244.095C65 245.526 66.1193 246.686 67.5 246.686H99.5C100.881 246.686 102 245.526 102 244.095C102 242.664 100.881 241.504 99.5 241.504Z" fill="#D2E0F1"/>
<path d="M99.5 119.197H67.5C66.1193 119.197 65 120.357 65 121.788C65 123.219 66.1193 124.38 67.5 124.38H99.5C100.881 124.38 102 123.219 102 121.788C102 120.357 100.881 119.197 99.5 119.197Z" fill="#D2E0F1"/>
</g>
<path d="M70 36.2774C72.7614 36.2774 75 33.9571 75 31.0949C75 28.2327 72.7614 25.9124 70 25.9124C67.2386 25.9124 65 28.2327 65 31.0949C65 33.9571 67.2386 36.2774 70 36.2774Z" fill="#80EBFF"/>
<path d="M86 36.2774C88.7614 36.2774 91 33.9571 91 31.0949C91 28.2327 88.7614 25.9124 86 25.9124C83.2386 25.9124 81 28.2327 81 31.0949C81 33.9571 83.2386 36.2774 86 36.2774Z" fill="#FD7A8C"/>
<path d="M102 36.2774C104.761 36.2774 107 33.9571 107 31.0949C107 28.2327 104.761 25.9124 102 25.9124C99.2386 25.9124 97 28.2327 97 31.0949C97 33.9571 99.2386 36.2774 102 36.2774Z" fill="#FEE895"/>
<path d="M118.5 290.219H64.5C63.1193 290.219 62 291.379 62 292.81C62 294.241 63.1193 295.401 64.5 295.401H118.5C119.881 295.401 121 294.241 121 292.81C121 291.379 119.881 290.219 118.5 290.219Z" fill="#ADC6E2"/>
<path d="M100.5 309.912H68.5C67.1193 309.912 66 311.073 66 312.504C66 313.935 67.1193 315.095 68.5 315.095H100.5C101.881 315.095 103 313.935 103 312.504C103 311.073 101.881 309.912 100.5 309.912Z" fill="#D2E0F1"/>
<path d="M99.5 329.606H67.5C66.1193 329.606 65 330.766 65 332.197C65 333.628 66.1193 334.788 67.5 334.788H99.5C100.881 334.788 102 333.628 102 332.197C102 330.766 100.881 329.606 99.5 329.606Z" fill="#D2E0F1"/>
<path fill-rule="evenodd" clip-rule="evenodd" d="M68.4147 48.9249H56.688V54.99H62.4581C62.6637 54.99 62.8304 55.162 62.8304 55.374V61.244H68.787V49.3096C68.7871 49.2591 68.7775 49.2091 68.7589 49.1624C68.7402 49.1158 68.7128 49.0733 68.6782 49.0376C68.6436 49.0019 68.6025 48.9735 68.5573 48.9542C68.5121 48.9348 68.4636 48.9249 68.4147 48.9249Z" fill="#8E75FF"/>
<path opacity="0.405" fill-rule="evenodd" clip-rule="evenodd" d="M56.6874 48.9249V54.99H51.1862C51.1492 54.9899 51.1131 54.9785 51.0824 54.9572C51.0518 54.936 51.0279 54.9058 51.0139 54.8705C50.9999 54.8352 50.9964 54.7964 51.0038 54.7591C51.0112 54.7217 51.0292 54.6875 51.0555 54.6607L56.6874 48.9249ZM63.1476 66.9861C63.1214 67.0126 63.0882 67.0306 63.0522 67.0378C63.0161 67.0449 62.9788 67.0409 62.9449 67.0263C62.9111 67.0117 62.8821 66.9871 62.8618 66.9556C62.8414 66.9241 62.8305 66.887 62.8304 66.8492V61.244H68.787L63.1476 66.9854V66.9861Z" fill="#8E75FF"/>
<path opacity="0.405" d="M56.6874 54.99H62.6446C62.7467 54.99 62.8304 55.0756 62.8304 55.1817V61.244H57.0604C56.9616 61.244 56.8669 61.2035 56.7971 61.1315C56.7273 61.0594 56.6881 60.9617 56.6881 60.8599V54.99H56.6874Z" fill="#8E75FF"/>
<path fill-rule="evenodd" clip-rule="evenodd" d="M128.155 51.0078C128.484 51.2731 128.872 51.4052 129.32 51.4052C129.782 51.4052 130.178 51.2731 130.507 51.0078C130.836 50.7425 131 50.43 131 50.0688C131 49.7081 130.836 49.3924 130.507 49.1216C130.354 48.991 130.17 48.8876 129.966 48.8177C129.761 48.7478 129.542 48.713 129.32 48.7155C128.872 48.7155 128.484 48.8508 128.155 49.1211C127.826 49.3924 127.662 49.7076 127.662 50.0693C127.662 50.43 127.826 50.7425 128.155 51.0078V51.0078ZM92.4603 54.4676C92.4603 54.495 92.432 54.518 92.3977 54.518H90.0869V58.037C90.0869 58.3303 90.1784 58.5446 90.36 58.68C90.5416 58.8154 90.808 58.891 91.1579 58.908C91.4781 58.9239 91.8683 58.9228 92.3291 58.9053L92.3943 58.9026C92.4027 58.9022 92.4111 58.9032 92.419 58.9056C92.427 58.9079 92.4342 58.9116 92.4403 58.9163C92.4464 58.921 92.4513 58.9267 92.4546 58.933C92.4579 58.9393 92.4596 58.9461 92.4596 58.953V60.8336C92.4597 60.8461 92.4541 60.8582 92.4439 60.8675C92.4337 60.8768 92.4196 60.8827 92.4044 60.8841L92.362 60.8879C90.5524 61.043 89.2722 60.8989 88.5228 60.456C87.7599 60.0049 87.3792 59.1985 87.3792 58.037V54.518H85.6139C85.5975 54.518 85.5818 54.5127 85.5702 54.5032C85.5586 54.4938 85.552 54.481 85.552 54.4676V52.4707C85.552 52.4433 85.5796 52.4203 85.6139 52.4203H87.3785V51.0242C87.3785 50.9836 87.4081 50.9475 87.4532 50.931L90.0001 50.0282C90.0095 50.0247 90.0199 50.0232 90.0302 50.0239C90.0406 50.0245 90.0505 50.0272 90.0593 50.0318C90.068 50.0364 90.0751 50.0427 90.0801 50.0501C90.085 50.0575 90.0876 50.0658 90.0876 50.0743V52.4203H92.3977C92.4313 52.4203 92.4596 52.4428 92.4596 52.4707V54.4676H92.4603ZM97.3711 53.8756C97.6227 53.334 98.0392 52.9279 98.6197 52.6571C99.1925 52.3914 99.8402 52.2516 100.499 52.2515C100.534 52.2515 100.562 52.2739 100.562 52.3025V54.5964C100.562 54.6079 100.559 54.6192 100.553 54.6297C100.547 54.6402 100.539 54.6496 100.529 54.6573C100.518 54.665 100.506 54.6708 100.492 54.6744C100.479 54.678 100.465 54.6792 100.451 54.6781C99.6698 54.6211 98.9682 54.7597 98.3466 55.0936C97.6961 55.4427 97.3711 56.0237 97.3711 56.8361V60.8287C97.3711 60.8354 97.3695 60.842 97.3664 60.8481C97.3632 60.8543 97.3586 60.8599 97.3528 60.8646C97.347 60.8692 97.3401 60.8729 97.3325 60.8754C97.3249 60.878 97.3168 60.8792 97.3086 60.8791H94.724C94.7076 60.8791 94.6918 60.8738 94.6802 60.8644C94.6686 60.8549 94.6621 60.8421 94.6621 60.8287V52.4702C94.6621 52.4428 94.6897 52.4198 94.724 52.4198H97.3086C97.3422 52.4198 97.3705 52.4422 97.3705 52.4702V53.8745L97.3711 53.8756ZM110.177 52.4203C110.169 52.4202 110.161 52.4215 110.153 52.424C110.146 52.4265 110.139 52.4302 110.133 52.4349C110.127 52.4396 110.123 52.4452 110.119 52.4513C110.116 52.4575 110.115 52.4641 110.115 52.4707V53.419C109.303 52.5952 108.162 52.1835 106.692 52.1835C105.293 52.1835 104.092 52.6149 103.092 53.4777C102.091 54.3404 101.59 55.3978 101.59 56.6497C101.59 57.9017 102.091 58.959 103.092 59.8218C104.092 60.6845 105.293 61.1159 106.692 61.1159C108.162 61.1159 109.303 60.7043 110.115 59.881V60.8287C110.115 60.8561 110.143 60.8791 110.177 60.8791H112.761C112.795 60.8791 112.824 60.8567 112.824 60.8287V52.4702C112.824 52.4635 112.822 52.4569 112.819 52.4508C112.816 52.4446 112.811 52.439 112.805 52.4343C112.799 52.4296 112.793 52.4259 112.785 52.4234C112.777 52.4209 112.769 52.4197 112.761 52.4198H110.177V52.4203ZM105.118 58.3752C105.664 58.8154 106.356 59.0352 107.197 59.0352C108.037 59.0352 108.733 58.8121 109.286 58.3665C109.839 57.9214 110.115 57.3491 110.115 56.6497C110.115 55.9503 109.839 55.378 109.286 54.9324C108.733 54.4873 108.037 54.2642 107.196 54.2642C106.357 54.2642 105.664 54.4873 105.118 54.933C104.573 55.378 104.299 55.9503 104.299 56.6497C104.299 57.3491 104.572 57.9241 105.118 58.3752V58.3752ZM124.863 53.4777C123.862 52.6149 122.654 52.1835 121.241 52.1835C119.771 52.1835 118.637 52.5952 117.839 53.4185V52.4707C117.839 52.4574 117.833 52.4445 117.821 52.4351C117.81 52.4256 117.794 52.4203 117.778 52.4203H115.193C115.177 52.4203 115.161 52.4256 115.149 52.4351C115.138 52.4445 115.131 52.4574 115.131 52.4707V64.2118C115.131 64.2397 115.159 64.2628 115.193 64.2628H117.778C117.811 64.2628 117.839 64.2397 117.839 64.2118V59.881C118.637 60.7043 119.771 61.1159 121.241 61.1159C122.654 61.1159 123.862 60.6845 124.863 59.8218C125.863 58.959 126.364 57.9017 126.364 56.6497C126.364 55.3978 125.863 54.3404 124.863 53.4777V53.4777ZM118.658 58.3752C119.204 58.8154 119.897 59.0352 120.737 59.0352C121.576 59.0352 122.273 58.8121 122.826 58.3665C123.379 57.9214 123.655 57.3491 123.655 56.6497C123.655 55.9503 123.379 55.378 122.826 54.9324C122.273 54.4873 121.576 54.2642 120.737 54.2642C119.897 54.2642 119.204 54.4873 118.658 54.933C118.113 55.378 117.839 55.9503 117.839 56.6497C117.839 57.3491 118.113 57.9241 118.658 58.3752V58.3752ZM128.039 60.8791C128.022 60.8791 128.007 60.8738 127.995 60.8644C127.983 60.8549 127.977 60.8421 127.977 60.8287V52.4702C127.977 52.4428 128.004 52.4198 128.039 52.4198H130.623C130.658 52.4198 130.685 52.4422 130.685 52.4702V60.8292C130.685 60.8426 130.679 60.8555 130.667 60.8649C130.655 60.8744 130.64 60.8797 130.623 60.8797H128.039V60.8791ZM79.7471 55.3726C79.3758 55.2317 79.1908 55.0481 79.1908 54.8228C79.1908 54.6085 79.3058 54.4391 79.5372 54.3152C79.768 54.1913 80.0586 54.1288 80.4084 54.1288C81.0791 54.1288 81.5857 54.3399 81.9287 54.7614C81.9402 54.7757 81.9574 54.7863 81.9775 54.7913C81.9975 54.7963 82.0191 54.7954 82.0384 54.7888L84.3243 53.9737C84.3322 53.9708 84.3393 53.9666 84.3451 53.9614C84.3509 53.9561 84.3552 53.9499 84.3579 53.9432C84.3606 53.9365 84.3615 53.9294 84.3605 53.9224C84.3596 53.9154 84.3569 53.9086 84.3526 53.9025C84.3262 53.8667 84.2993 53.8313 84.2718 53.7961C83.881 53.3001 83.3744 52.9301 82.7387 52.6489C82.0391 52.3386 81.2621 52.1835 80.4084 52.1835C79.2742 52.1835 78.3263 52.423 77.5628 52.9027C76.8006 53.3817 76.4191 54.0389 76.4191 54.8732C76.4191 55.4263 76.6048 55.8856 76.9755 56.2523C77.3337 56.6113 77.8004 56.8882 78.3297 57.0559C78.8611 57.2247 79.3932 57.3661 79.9254 57.4785C80.4568 57.5914 80.9089 57.7186 81.2796 57.8595C81.6502 58.0003 81.8359 58.1834 81.8359 58.4092C81.8359 58.8943 81.3529 59.1366 80.3875 59.1366C79.4679 59.1366 78.8308 58.8625 78.4763 58.3155C78.4621 58.2924 78.4376 58.2747 78.4079 58.2658C78.3781 58.257 78.3453 58.2577 78.3162 58.2678L76.037 59.0818C76.0294 59.0845 76.0226 59.0884 76.0169 59.0934C76.0112 59.0983 76.0068 59.1041 76.0039 59.1104C76.001 59.1168 75.9997 59.1235 76.0001 59.1303C76.0004 59.137 76.0025 59.1437 76.0061 59.1498L76.0316 59.192C76.8281 60.4746 78.2799 61.1159 80.3875 61.1159C81.591 61.1159 82.5954 60.8819 83.4 60.4143C84.2052 59.9457 84.6075 59.2775 84.6075 58.4092C84.6075 57.8337 84.4219 57.3546 84.0512 56.9709C83.7017 56.6007 83.2329 56.3168 82.697 56.1509C82.1754 55.99 81.6426 55.8543 81.1013 55.7447C80.5692 55.6373 80.1178 55.5134 79.7471 55.372V55.3726Z" fill="#1D1B84"/>
<rect x="602" y="54.9343" width="33" height="15.2662" rx="5" fill="#10CD45"/>
<rect x="550" y="53.8978" width="38.7893" height="16.3027" rx="5" fill="#EEF2F5"/>
<rect opacity="0.4" x="174" y="147.182" width="454" height="18.6569" fill="#EEF2F5"/>
<rect opacity="0.4" x="174" y="209.372" width="454" height="18.6569" fill="#EEF2F5"/>
<rect opacity="0.4" x="174" y="242.54" width="454" height="18.6569" fill="#EEF2F5"/>
<rect opacity="0.4" x="174" y="178.277" width="454" height="18.6569" fill="#EEF2F5"/>
<defs>
<filter id="filter0_d" x="7" y="-10.781" width="708" height="565.956" filterUnits="userSpaceOnUse" color-interpolation-filters="sRGB">
<feFlood flood-opacity="0" result="BackgroundImageFix"/>
<feColorMatrix in="SourceAlpha" type="matrix" values="0 0 0 0 0 0 0 0 0 0 0 0 0 0 0 0 0 0 127 0" result="hardAlpha"/>
<feOffset dy="11"/>
<feGaussianBlur stdDeviation="14"/>
<feColorMatrix type="matrix" values="0 0 0 0 0.458824 0 0 0 0 0.552941 0 0 0 0 0.65098 0 0 0 0.214161 0"/>
<feBlend mode="normal" in2="BackgroundImageFix" result="effect1_dropShadow"/>
<feBlend mode="normal" in="SourceGraphic" in2="effect1_dropShadow" result="shape"/>
</filter>
</defs>
</svg>
