<svg width="38" height="33" viewBox="0 0 38 33" fill="none" xmlns="http://www.w3.org/2000/svg">
<rect width="38" height="32.6643" rx="3" fill="#80EBFF"/>
<path d="M3.47949 8.15479H34.522V28.3186C34.522 28.8709 34.0743 29.3186 33.522 29.3186H4.47949C3.92721 29.3186 3.47949 28.8709 3.47949 28.3186V8.15479Z" fill="white"/>
<path d="M22.0475 23.2814L20.705 14.3138C20.6692 14.0453 20.4365 13.8305 20.1501 13.8305H17.9127C17.6442 13.8305 17.3936 14.0274 17.3578 14.3138L16.0153 23.2814C15.9616 23.6036 16.0511 23.9258 16.248 24.1764L18.1275 26.557C18.5929 27.1477 19.5057 27.1477 19.9711 26.557L21.8327 24.1764C22.0117 23.9258 22.1012 23.6036 22.0475 23.2814Z" fill="#3CBBD2"/>
<path d="M17.3578 12.5596C17.3936 12.8281 17.6442 13.025 17.9127 13.025H20.1681C20.4366 13.025 20.6692 12.8281 20.7229 12.5596L21.0272 10.6623C21.0809 10.3043 20.8303 10 20.4724 10H17.6084C17.2683 10 16.9999 10.3043 17.0536 10.6444L17.3578 12.5596Z" fill="#3CBBD2"/>
<circle cx="4.45801" cy="3.91553" r="1.5" fill="white"/>
<circle cx="8.89062" cy="3.91553" r="1.5" fill="white"/>
</svg>
