<svg width="703" height="599" viewBox="0 0 703 599" fill="none" xmlns="http://www.w3.org/2000/svg">
<g filter="url(#filter0_f)">
<path d="M55.4258 168C55.4258 156.954 64.3801 148 75.4258 148H627.426C638.471 148 647.426 156.954 647.426 168V524C647.426 535.046 638.471 544 627.426 544H75.4258C64.3801 544 55.4258 535.046 55.4258 524V168Z" fill="#7893AB" fill-opacity="0.25"/>
</g>
<path d="M21.4258 20C21.4258 8.95432 30.3801 0 41.4258 0H661.426C672.471 0 681.426 8.9543 681.426 20V476C681.426 487.046 672.471 496 661.426 496H41.4258C30.3801 496 21.4258 487.046 21.4258 476V20Z" fill="white"/>
<rect x="62.4258" y="38" width="182" height="133" rx="10" fill="#FAF9FF"/>
<rect x="259.426" y="38" width="182" height="133" rx="10" fill="#F1FDFF"/>
<rect x="458.426" y="38" width="182" height="133" rx="10" fill="#FFFBEB"/>
<rect x="121.184" y="59.1816" width="68.1833" height="58.6377" rx="5" fill="#956FFF"/>
<path d="M125.633 76.1816C125.633 75.0771 126.528 74.1816 127.633 74.1816H182.917C184.022 74.1816 184.917 75.0771 184.917 76.1816V110.727C184.917 111.831 184.022 112.727 182.917 112.727H127.633C126.528 112.727 125.633 111.831 125.633 110.727V76.1816Z" fill="white"/>
<path d="M132.092 85.4648H162.092" stroke="#CAB7FF" stroke-width="3"/>
<path d="M132.092 91.5352H151.183" stroke="#CAB7FF" stroke-width="3"/>
<circle cx="129.364" cy="67.0008" r="2.72733" fill="white"/>
<circle cx="137.548" cy="67.0008" r="2.72733" fill="white"/>
<path d="M81.6937 144.737V147.217H79.9837V140.147H82.7537C83.5937 140.147 84.2337 140.357 84.6737 140.777C85.1137 141.19 85.3337 141.75 85.3337 142.457C85.3337 142.897 85.2337 143.29 85.0337 143.637C84.8404 143.977 84.5504 144.247 84.1637 144.447C83.777 144.64 83.307 144.737 82.7537 144.737H81.6937ZM82.5637 143.367C83.2504 143.367 83.5937 143.063 83.5937 142.457C83.5937 141.837 83.2504 141.527 82.5637 141.527H81.6937V143.367H82.5637ZM90.2051 147.217L88.6751 144.547H88.2851V147.217H86.5751V140.147H89.4951C90.0551 140.147 90.5284 140.243 90.9151 140.437C91.3018 140.63 91.5918 140.897 91.7851 141.237C91.9784 141.57 92.0751 141.953 92.0751 142.387C92.0751 142.9 91.9318 143.337 91.6451 143.697C91.3651 144.057 90.9551 144.303 90.4151 144.437L92.0951 147.217H90.2051ZM88.2851 143.377H89.3451C89.6851 143.377 89.9351 143.303 90.0951 143.157C90.2551 143.003 90.3351 142.78 90.3351 142.487C90.3351 142.207 90.2518 141.987 90.0851 141.827C89.9251 141.667 89.6784 141.587 89.3451 141.587H88.2851V143.377ZM95.0425 141.507V142.987H97.4325V144.277H95.0425V145.847H97.7325V147.217H93.3325V140.147H97.7325V141.507H95.0425ZM102.984 142.997V144.417H98.5736V142.997H102.984ZM108.563 147.217L107.033 144.547H106.643V147.217H104.933V140.147H107.853C108.413 140.147 108.887 140.243 109.273 140.437C109.66 140.63 109.95 140.897 110.143 141.237C110.337 141.57 110.433 141.953 110.433 142.387C110.433 142.9 110.29 143.337 110.003 143.697C109.723 144.057 109.313 144.303 108.773 144.437L110.453 147.217H108.563ZM106.643 143.377H107.703C108.043 143.377 108.293 143.303 108.453 143.157C108.613 143.003 108.693 142.78 108.693 142.487C108.693 142.207 108.61 141.987 108.443 141.827C108.283 141.667 108.037 141.587 107.703 141.587H106.643V143.377ZM113.401 141.507V142.987H115.791V144.277H113.401V145.847H116.091V147.217H111.691V140.147H116.091V141.507H113.401ZM123.742 147.217H122.032L119.172 142.877V147.217H117.462V140.147H119.172L122.032 144.527V140.147H123.742V147.217ZM131.683 143.667C131.683 144.36 131.533 144.977 131.233 145.517C130.939 146.05 130.513 146.467 129.953 146.767C129.399 147.067 128.746 147.217 127.993 147.217H125.323V140.147H127.993C128.753 140.147 129.409 140.293 129.963 140.587C130.516 140.88 130.939 141.293 131.233 141.827C131.533 142.36 131.683 142.973 131.683 143.667ZM127.843 145.687C128.509 145.687 129.026 145.51 129.393 145.157C129.766 144.803 129.953 144.307 129.953 143.667C129.953 143.027 129.766 142.53 129.393 142.177C129.026 141.823 128.509 141.647 127.843 141.647H127.033V145.687H127.843ZM134.767 141.507V142.987H137.157V144.277H134.767V145.847H137.457V147.217H133.057V140.147H137.457V141.507H134.767ZM142.458 147.217L140.928 144.547H140.538V147.217H138.828V140.147H141.748C142.308 140.147 142.781 140.243 143.168 140.437C143.554 140.63 143.844 140.897 144.038 141.237C144.231 141.57 144.328 141.953 144.328 142.387C144.328 142.9 144.184 143.337 143.898 143.697C143.618 144.057 143.208 144.303 142.668 144.437L144.348 147.217H142.458ZM140.538 143.377H141.598C141.938 143.377 142.188 143.303 142.348 143.157C142.508 143.003 142.588 142.78 142.588 142.487C142.588 142.207 142.504 141.987 142.338 141.827C142.178 141.667 141.931 141.587 141.598 141.587H140.538V143.377ZM147.295 141.507V142.987H149.685V144.277H147.295V145.847H149.985V147.217H145.585V140.147H149.985V141.507H147.295ZM157.716 143.667C157.716 144.36 157.566 144.977 157.266 145.517C156.973 146.05 156.546 146.467 155.986 146.767C155.433 147.067 154.78 147.217 154.026 147.217H151.356V140.147H154.026C154.786 140.147 155.443 140.293 155.996 140.587C156.55 140.88 156.973 141.293 157.266 141.827C157.566 142.36 157.716 142.973 157.716 143.667ZM153.876 145.687C154.543 145.687 155.06 145.51 155.426 145.157C155.8 144.803 155.986 144.307 155.986 143.667C155.986 143.027 155.8 142.53 155.426 142.177C155.06 141.823 154.543 141.647 153.876 141.647H153.066V145.687H153.876ZM160.19 146.157C160.39 146.543 160.49 146.963 160.49 147.417C160.49 147.877 160.367 148.257 160.12 148.557C159.88 148.857 159.504 149.007 158.99 149.007V148.377C159.17 148.377 159.3 148.337 159.38 148.257C159.467 148.177 159.51 148.023 159.51 147.797V147.697H158.78V146.157H160.19ZM169.345 145.227C169.345 145.6 169.249 145.943 169.055 146.257C168.869 146.57 168.589 146.82 168.215 147.007C167.849 147.193 167.402 147.287 166.875 147.287C166.082 147.287 165.429 147.093 164.915 146.707C164.402 146.32 164.122 145.78 164.075 145.087H165.895C165.922 145.353 166.015 145.563 166.175 145.717C166.342 145.87 166.552 145.947 166.805 145.947C167.025 145.947 167.199 145.887 167.325 145.767C167.452 145.647 167.515 145.487 167.515 145.287C167.515 145.107 167.455 144.957 167.335 144.837C167.222 144.717 167.079 144.62 166.905 144.547C166.732 144.467 166.492 144.373 166.185 144.267C165.739 144.113 165.372 143.967 165.085 143.827C164.805 143.68 164.562 143.467 164.355 143.187C164.155 142.9 164.055 142.53 164.055 142.077C164.055 141.657 164.162 141.293 164.375 140.987C164.589 140.68 164.882 140.447 165.255 140.287C165.635 140.12 166.069 140.037 166.555 140.037C167.342 140.037 167.965 140.223 168.425 140.597C168.892 140.97 169.155 141.483 169.215 142.137H167.365C167.332 141.903 167.245 141.72 167.105 141.587C166.972 141.447 166.789 141.377 166.555 141.377C166.355 141.377 166.192 141.43 166.065 141.537C165.945 141.643 165.885 141.8 165.885 142.007C165.885 142.173 165.939 142.317 166.045 142.437C166.159 142.55 166.299 142.643 166.465 142.717C166.632 142.79 166.872 142.883 167.185 142.997C167.639 143.15 168.009 143.303 168.295 143.457C168.582 143.603 168.829 143.82 169.035 144.107C169.242 144.393 169.345 144.767 169.345 145.227ZM175.771 140.147V141.507H173.851V147.217H172.131V141.507H170.231V140.147H175.771ZM181.272 145.927H178.622L178.182 147.217H176.382L178.972 140.197H180.942L183.532 147.217H181.712L181.272 145.927ZM180.832 144.627L179.952 142.027L179.062 144.627H180.832ZM189.676 140.147V141.507H187.756V147.217H186.036V141.507H184.136V140.147H189.676ZM192.507 140.147V147.217H190.797V140.147H192.507ZM197.318 140.077C198.218 140.077 198.961 140.313 199.548 140.787C200.141 141.26 200.524 141.9 200.698 142.707H198.888C198.754 142.38 198.548 142.123 198.268 141.937C197.994 141.75 197.668 141.657 197.288 141.657C196.788 141.657 196.384 141.84 196.078 142.207C195.771 142.573 195.618 143.063 195.618 143.677C195.618 144.29 195.771 144.78 196.078 145.147C196.384 145.507 196.788 145.687 197.288 145.687C197.668 145.687 197.994 145.593 198.268 145.407C198.548 145.22 198.754 144.967 198.888 144.647H200.698C200.524 145.447 200.141 146.087 199.548 146.567C198.961 147.04 198.218 147.277 197.318 147.277C196.631 147.277 196.028 147.127 195.508 146.827C194.988 146.52 194.584 146.093 194.298 145.547C194.018 145 193.878 144.377 193.878 143.677C193.878 142.977 194.018 142.353 194.298 141.807C194.584 141.26 194.988 140.837 195.508 140.537C196.028 140.23 196.631 140.077 197.318 140.077ZM209.538 145.227C209.538 145.6 209.441 145.943 209.248 146.257C209.061 146.57 208.781 146.82 208.408 147.007C208.041 147.193 207.595 147.287 207.068 147.287C206.275 147.287 205.621 147.093 205.108 146.707C204.595 146.32 204.315 145.78 204.268 145.087H206.088C206.115 145.353 206.208 145.563 206.368 145.717C206.535 145.87 206.745 145.947 206.998 145.947C207.218 145.947 207.391 145.887 207.518 145.767C207.645 145.647 207.708 145.487 207.708 145.287C207.708 145.107 207.648 144.957 207.528 144.837C207.415 144.717 207.271 144.62 207.098 144.547C206.925 144.467 206.685 144.373 206.378 144.267C205.931 144.113 205.565 143.967 205.278 143.827C204.998 143.68 204.755 143.467 204.548 143.187C204.348 142.9 204.248 142.53 204.248 142.077C204.248 141.657 204.355 141.293 204.568 140.987C204.781 140.68 205.075 140.447 205.448 140.287C205.828 140.12 206.261 140.037 206.748 140.037C207.535 140.037 208.158 140.223 208.618 140.597C209.085 140.97 209.348 141.483 209.408 142.137H207.558C207.525 141.903 207.438 141.72 207.298 141.587C207.165 141.447 206.981 141.377 206.748 141.377C206.548 141.377 206.385 141.43 206.258 141.537C206.138 141.643 206.078 141.8 206.078 142.007C206.078 142.173 206.131 142.317 206.238 142.437C206.351 142.55 206.491 142.643 206.658 142.717C206.825 142.79 207.065 142.883 207.378 142.997C207.831 143.15 208.201 143.303 208.488 143.457C208.775 143.603 209.021 143.82 209.228 144.107C209.435 144.393 209.538 144.767 209.538 145.227ZM212.593 140.147V147.217H210.883V140.147H212.593ZM219.254 140.147V141.507H217.334V147.217H215.614V141.507H213.714V140.147H219.254ZM222.085 141.507V142.987H224.475V144.277H222.085V145.847H224.775V147.217H220.375V140.147H224.775V141.507H222.085Z" fill="#956FFF"/>
<path d="M525.513 139.82C526.18 139.82 526.783 139.977 527.323 140.29C527.87 140.597 528.3 141.027 528.613 141.58C528.926 142.127 529.083 142.747 529.083 143.44C529.083 144.133 528.923 144.757 528.603 145.31C528.29 145.863 527.86 146.297 527.313 146.61C526.773 146.917 526.173 147.07 525.513 147.07C524.853 147.07 524.25 146.917 523.703 146.61C523.163 146.297 522.733 145.863 522.413 145.31C522.1 144.757 521.943 144.133 521.943 143.44C521.943 142.747 522.1 142.127 522.413 141.58C522.733 141.027 523.163 140.597 523.703 140.29C524.25 139.977 524.853 139.82 525.513 139.82ZM525.513 141.41C524.953 141.41 524.506 141.593 524.173 141.96C523.846 142.32 523.683 142.813 523.683 143.44C523.683 144.06 523.846 144.553 524.173 144.92C524.506 145.287 524.953 145.47 525.513 145.47C526.066 145.47 526.51 145.287 526.843 144.92C527.176 144.553 527.343 144.06 527.343 143.44C527.343 142.82 527.176 142.327 526.843 141.96C526.516 141.593 526.073 141.41 525.513 141.41ZM534.074 147L532.544 144.33H532.154V147H530.444V139.93H533.364C533.924 139.93 534.397 140.027 534.784 140.22C535.17 140.413 535.46 140.68 535.654 141.02C535.847 141.353 535.944 141.737 535.944 142.17C535.944 142.683 535.8 143.12 535.514 143.48C535.234 143.84 534.824 144.087 534.284 144.22L535.964 147H534.074ZM532.154 143.16H533.214C533.554 143.16 533.804 143.087 533.964 142.94C534.124 142.787 534.204 142.563 534.204 142.27C534.204 141.99 534.12 141.77 533.954 141.61C533.794 141.45 533.547 141.37 533.214 141.37H532.154V143.16ZM538.911 139.93V147H537.201V139.93H538.911ZM543.802 139.86C544.688 139.86 545.418 140.077 545.992 140.51C546.565 140.943 546.922 141.53 547.062 142.27H545.252C545.132 142.017 544.948 141.817 544.702 141.67C544.455 141.517 544.158 141.44 543.812 141.44C543.272 141.44 542.838 141.623 542.512 141.99C542.185 142.35 542.022 142.84 542.022 143.46C542.022 144.133 542.192 144.65 542.532 145.01C542.878 145.37 543.368 145.55 544.002 145.55C544.408 145.55 544.765 145.44 545.072 145.22C545.378 144.993 545.595 144.673 545.722 144.26H543.562V143.03H547.152V144.72C547.018 145.133 546.805 145.517 546.512 145.87C546.218 146.223 545.842 146.51 545.382 146.73C544.928 146.95 544.408 147.06 543.822 147.06C543.108 147.06 542.485 146.91 541.952 146.61C541.418 146.303 541.005 145.877 540.712 145.33C540.425 144.783 540.282 144.16 540.282 143.46C540.282 142.76 540.425 142.137 540.712 141.59C541.005 141.043 541.415 140.62 541.942 140.32C542.475 140.013 543.095 139.86 543.802 139.86ZM550.219 139.93V147H548.509V139.93H550.219ZM558.079 147H556.369L553.509 142.66V147H551.799V139.93H553.509L556.369 144.31V139.93H558.079V147ZM567.142 145.01C567.142 145.383 567.046 145.727 566.852 146.04C566.666 146.353 566.386 146.603 566.012 146.79C565.646 146.977 565.199 147.07 564.672 147.07C563.879 147.07 563.226 146.877 562.712 146.49C562.199 146.103 561.919 145.563 561.872 144.87H563.692C563.719 145.137 563.812 145.347 563.972 145.5C564.139 145.653 564.349 145.73 564.602 145.73C564.822 145.73 564.996 145.67 565.122 145.55C565.249 145.43 565.312 145.27 565.312 145.07C565.312 144.89 565.252 144.74 565.132 144.62C565.019 144.5 564.876 144.403 564.702 144.33C564.529 144.25 564.289 144.157 563.982 144.05C563.536 143.897 563.169 143.75 562.882 143.61C562.602 143.463 562.359 143.25 562.152 142.97C561.952 142.683 561.852 142.313 561.852 141.86C561.852 141.44 561.959 141.077 562.172 140.77C562.386 140.463 562.679 140.23 563.052 140.07C563.432 139.903 563.866 139.82 564.352 139.82C565.139 139.82 565.762 140.007 566.222 140.38C566.689 140.753 566.952 141.267 567.012 141.92H565.162C565.129 141.687 565.042 141.503 564.902 141.37C564.769 141.23 564.586 141.16 564.352 141.16C564.152 141.16 563.989 141.213 563.862 141.32C563.742 141.427 563.682 141.583 563.682 141.79C563.682 141.957 563.736 142.1 563.842 142.22C563.956 142.333 564.096 142.427 564.262 142.5C564.429 142.573 564.669 142.667 564.982 142.78C565.436 142.933 565.806 143.087 566.092 143.24C566.379 143.387 566.626 143.603 566.832 143.89C567.039 144.177 567.142 144.55 567.142 145.01ZM570.198 141.29V142.77H572.588V144.06H570.198V145.63H572.888V147H568.488V139.93H572.888V141.29H570.198ZM577.889 147L576.359 144.33H575.969V147H574.259V139.93H577.179C577.739 139.93 578.212 140.027 578.599 140.22C578.985 140.413 579.275 140.68 579.469 141.02C579.662 141.353 579.759 141.737 579.759 142.17C579.759 142.683 579.615 143.12 579.329 143.48C579.049 143.84 578.639 144.087 578.099 144.22L579.779 147H577.889ZM575.969 143.16H577.029C577.369 143.16 577.619 143.087 577.779 142.94C577.939 142.787 578.019 142.563 578.019 142.27C578.019 141.99 577.935 141.77 577.769 141.61C577.609 141.45 577.362 141.37 577.029 141.37H575.969V143.16ZM582.336 139.93L584.066 145.25L585.796 139.93H587.626L585.166 147H582.956L580.506 139.93H582.336ZM590.392 141.29V142.77H592.782V144.06H590.392V145.63H593.082V147H588.682V139.93H593.082V141.29H590.392ZM598.083 147L596.553 144.33H596.163V147H594.453V139.93H597.373C597.933 139.93 598.406 140.027 598.793 140.22C599.18 140.413 599.47 140.68 599.663 141.02C599.856 141.353 599.953 141.737 599.953 142.17C599.953 142.683 599.81 143.12 599.523 143.48C599.243 143.84 598.833 144.087 598.293 144.22L599.973 147H598.083ZM596.163 143.16H597.223C597.563 143.16 597.813 143.087 597.973 142.94C598.133 142.787 598.213 142.563 598.213 142.27C598.213 141.99 598.13 141.77 597.963 141.61C597.803 141.45 597.556 141.37 597.223 141.37H596.163V143.16Z" fill="#FAE081"/>
<rect x="539.426" y="68" width="38" height="17" rx="3" fill="#FEE895"/>
<rect x="542.355" y="71.0977" width="32.1385" height="10.8051" rx="2" fill="white"/>
<ellipse cx="568.17" cy="76.5" rx="2.4359" ry="2.5" fill="#FFF2BF"/>
<path d="M548.195 74H550.143L547.22 79H545.271L548.195 74Z" fill="#FFF2BF"/>
<path d="M552.093 74H554.042L551.119 79H549.17L552.093 74Z" fill="#FFF2BF"/>
<path d="M555.989 74H557.938L555.015 79H553.066L555.989 74Z" fill="#FFF2BF"/>
<rect x="539.426" y="82" width="38" height="17" rx="3" fill="#FEE895"/>
<rect x="542.355" y="85.0977" width="32.1385" height="10.8051" rx="2" fill="white"/>
<ellipse cx="568.17" cy="90.5" rx="2.4359" ry="2.5" fill="#FFF2BF"/>
<path d="M548.195 88H550.143L547.22 93H545.271L548.195 88Z" fill="#FFF2BF"/>
<path d="M552.093 88H554.042L551.119 93H549.17L552.093 88Z" fill="#FFF2BF"/>
<path d="M555.989 88H557.938L555.015 93H553.066L555.989 88Z" fill="#FFF2BF"/>
<rect x="539.426" y="96" width="38" height="17" rx="3" fill="#FEE895"/>
<rect x="542.355" y="99.0977" width="32.1385" height="10.8051" rx="2" fill="white"/>
<ellipse cx="568.17" cy="104.5" rx="2.4359" ry="2.5" fill="#FFF2BF"/>
<path d="M548.195 102H550.143L547.22 107H545.271L548.195 102Z" fill="#FFF2BF"/>
<path d="M552.093 102H554.042L551.119 107H549.17L552.093 102Z" fill="#FFF2BF"/>
<path d="M555.989 102H557.938L555.015 107H553.066L555.989 102Z" fill="#FFF2BF"/>
<rect x="309.426" y="74" width="38" height="17" rx="3" fill="#FD7A8C"/>
<rect x="312.355" y="77.1172" width="32.1385" height="10.7647" rx="2" fill="white"/>
<ellipse cx="338.17" cy="82.5" rx="2.4359" ry="2.5" fill="#FFCDD4"/>
<path d="M318.195 80H320.143L317.22 85H315.271L318.195 80Z" fill="#FFCDD4"/>
<path d="M322.093 80H324.042L321.119 85H319.17L322.093 80Z" fill="#FFCDD4"/>
<path d="M325.989 80H327.938L325.015 85H323.066L325.989 80Z" fill="#FFCDD4"/>
<rect x="309.426" y="98" width="38" height="17" rx="3" fill="#80EBFF"/>
<rect x="312.355" y="101.143" width="32.1385" height="10.7162" rx="2" fill="white"/>
<ellipse opacity="0.82" cx="338.17" cy="106.5" rx="2.4359" ry="2.5" fill="#B4F3FF"/>
<path opacity="0.82" d="M318.195 104H320.143L317.22 109H315.271L318.195 104Z" fill="#B4F3FF"/>
<path opacity="0.82" d="M322.093 104H324.042L321.119 109H319.17L322.093 104Z" fill="#B4F3FF"/>
<path opacity="0.82" d="M325.989 104H327.938L325.015 109H323.066L325.989 104Z" fill="#B4F3FF"/>
<rect x="354.426" y="98" width="38" height="17" rx="3" fill="#80EBFF"/>
<rect x="357.355" y="101.143" width="32.1385" height="10.7162" rx="2" fill="white"/>
<ellipse opacity="0.82" cx="383.17" cy="106.5" rx="2.4359" ry="2.5" fill="#B4F3FF"/>
<path opacity="0.82" d="M363.195 104H365.143L362.22 109H360.271L363.195 104Z" fill="#B4F3FF"/>
<path opacity="0.82" d="M367.093 104H369.042L366.119 109H364.17L367.093 104Z" fill="#B4F3FF"/>
<path opacity="0.82" d="M370.989 104H372.938L370.015 109H368.066L370.989 104Z" fill="#B4F3FF"/>
<rect x="354.426" y="74" width="38" height="17" rx="3" fill="#80EBFF"/>
<rect x="357.355" y="77.0977" width="32.1385" height="10.8051" rx="2" fill="white"/>
<ellipse cx="383.17" cy="82.5" rx="2.4359" ry="2.5" fill="#B4F3FF"/>
<path d="M363.195 80H365.143L362.22 85H360.271L363.195 80Z" fill="#B4F3FF"/>
<path d="M367.093 80H369.042L366.119 85H364.17L367.093 80Z" fill="#B4F3FF"/>
<path d="M370.989 80H372.938L370.015 85H368.066L370.989 80Z" fill="#B4F3FF"/>
<path d="M343.329 139.86C344.229 139.86 344.972 140.097 345.559 140.57C346.152 141.043 346.536 141.683 346.709 142.49H344.899C344.766 142.163 344.559 141.907 344.279 141.72C344.006 141.533 343.679 141.44 343.299 141.44C342.799 141.44 342.396 141.623 342.089 141.99C341.782 142.357 341.629 142.847 341.629 143.46C341.629 144.073 341.782 144.563 342.089 144.93C342.396 145.29 342.799 145.47 343.299 145.47C343.679 145.47 344.006 145.377 344.279 145.19C344.559 145.003 344.766 144.75 344.899 144.43H346.709C346.536 145.23 346.152 145.87 345.559 146.35C344.972 146.823 344.229 147.06 343.329 147.06C342.642 147.06 342.039 146.91 341.519 146.61C340.999 146.303 340.596 145.877 340.309 145.33C340.029 144.783 339.889 144.16 339.889 143.46C339.889 142.76 340.029 142.137 340.309 141.59C340.596 141.043 340.999 140.62 341.519 140.32C342.039 140.013 342.642 139.86 343.329 139.86ZM354.427 143.45C354.427 144.143 354.277 144.76 353.977 145.3C353.684 145.833 353.257 146.25 352.697 146.55C352.144 146.85 351.491 147 350.737 147H348.067V139.93H350.737C351.497 139.93 352.154 140.077 352.707 140.37C353.261 140.663 353.684 141.077 353.977 141.61C354.277 142.143 354.427 142.757 354.427 143.45ZM350.587 145.47C351.254 145.47 351.771 145.293 352.137 144.94C352.511 144.587 352.697 144.09 352.697 143.45C352.697 142.81 352.511 142.313 352.137 141.96C351.771 141.607 351.254 141.43 350.587 141.43H349.777V145.47H350.587ZM362.081 147H360.371L357.511 142.66V147H355.801V139.93H357.511L360.371 144.31V139.93H362.081V147Z" fill="#80EBFF"/>
<path d="M274.426 124.5C280.501 124.5 285.426 119.575 285.426 113.5C285.426 107.425 280.501 102.5 274.426 102.5C268.351 102.5 263.426 107.425 263.426 113.5C263.426 119.575 268.351 124.5 274.426 124.5Z" fill="white" stroke="#80EBFF" stroke-width="3"/>
<path d="M279.262 109.224L272.751 115.166L270.999 113.307C270.227 112.712 269.013 113.405 269.565 114.296L271.647 117.543C271.977 117.939 272.751 118.335 273.523 117.543C273.853 117.146 280.144 110.114 280.144 110.114C280.917 109.322 279.924 108.629 279.262 109.223V109.224Z" fill="#80EBFF"/>
<path d="M232.926 109.5L232.926 113.5L232.926 117.5L227.426 113.5L232.926 109.5Z" fill="#80EBFF"/>
<path d="M264.926 113.5L232.926 113.5M232.926 113.5L232.926 109.5L227.426 113.5L232.926 117.5L232.926 113.5Z" stroke="#80EBFF" stroke-width="3"/>
<path d="M235.926 91.5C229.851 91.5 224.926 86.5751 224.926 80.5C224.926 74.4249 229.851 69.5 235.926 69.5C242.001 69.5 246.926 74.4249 246.926 80.5C246.926 86.5751 242.001 91.5 235.926 91.5Z" fill="white" stroke="#FD7A8C" stroke-width="3"/>
<path d="M277.426 76.5L277.426 80.5L277.426 84.5L282.926 80.5L277.426 76.5Z" fill="#FD7A8C"/>
<path d="M245.426 80.5L277.426 80.5M277.426 80.5L277.426 76.5L282.926 80.5L277.426 84.5L277.426 80.5Z" stroke="#FD7A8C" stroke-width="3"/>
<path d="M234.425 85.1142C234.425 85.9398 235.094 86.621 235.92 86.621C236.745 86.621 237.414 85.9398 237.414 85.1142C237.414 84.2887 236.745 83.6074 235.92 83.6074C235.094 83.6074 234.425 84.2887 234.425 85.1142Z" fill="#FD7A8C"/>
<path d="M237.414 79.7509V75.4947C237.414 74.6692 236.745 74 235.92 74C235.094 74 234.425 74.6692 234.425 75.4947V79.7509C234.425 80.5764 235.094 81.2456 235.92 81.2456C236.745 81.2456 237.414 80.5764 237.414 79.7509Z" fill="#FD7A8C"/>
<g filter="url(#filter1_d)">
<rect x="62.4258" y="407" width="180" height="50" rx="10" fill="#956FFF"/>
</g>
<path d="M112.583 427.809V434.088C112.583 435.05 112.318 435.791 111.79 436.311C111.27 436.831 110.546 437.091 109.619 437.091C108.613 437.091 107.816 436.809 107.227 436.246C106.637 435.674 106.343 434.855 106.343 433.789H108.54C108.54 434.647 108.865 435.076 109.515 435.076C110.078 435.076 110.36 434.747 110.36 434.088V427.809H112.583ZM121.043 435.323H117.598L117.026 437H114.686L118.053 427.874H120.614L123.981 437H121.615L121.043 435.323ZM120.471 433.633L119.327 430.253L118.17 433.633H120.471ZM127.861 427.809L130.11 434.725L132.359 427.809H134.738L131.54 437H128.667L125.482 427.809H127.861ZM142.585 435.323H139.14L138.568 437H136.228L139.595 427.874H142.156L145.523 437H143.157L142.585 435.323ZM142.013 433.633L140.869 430.253L139.712 433.633H142.013ZM154.291 434.413C154.291 434.898 154.165 435.345 153.914 435.752C153.671 436.159 153.307 436.484 152.822 436.727C152.345 436.97 151.764 437.091 151.08 437.091C150.048 437.091 149.199 436.84 148.532 436.337C147.864 435.834 147.5 435.132 147.44 434.231H149.806C149.84 434.578 149.962 434.851 150.17 435.05C150.386 435.249 150.659 435.349 150.989 435.349C151.275 435.349 151.5 435.271 151.665 435.115C151.829 434.959 151.912 434.751 151.912 434.491C151.912 434.257 151.834 434.062 151.678 433.906C151.53 433.75 151.344 433.624 151.119 433.529C150.893 433.425 150.581 433.304 150.183 433.165C149.602 432.966 149.125 432.775 148.753 432.593C148.389 432.402 148.072 432.125 147.804 431.761C147.544 431.388 147.414 430.907 147.414 430.318C147.414 429.772 147.552 429.3 147.83 428.901C148.107 428.502 148.488 428.199 148.974 427.991C149.468 427.774 150.031 427.666 150.664 427.666C151.686 427.666 152.497 427.909 153.095 428.394C153.701 428.879 154.044 429.547 154.122 430.396H151.717C151.673 430.093 151.561 429.854 151.379 429.681C151.205 429.499 150.967 429.408 150.664 429.408C150.404 429.408 150.191 429.477 150.027 429.616C149.871 429.755 149.793 429.958 149.793 430.227C149.793 430.444 149.862 430.63 150.001 430.786C150.148 430.933 150.33 431.055 150.547 431.15C150.763 431.245 151.075 431.367 151.483 431.514C152.072 431.713 152.553 431.913 152.926 432.112C153.298 432.303 153.619 432.584 153.888 432.957C154.156 433.33 154.291 433.815 154.291 434.413ZM161.019 427.718C162.189 427.718 163.155 428.026 163.918 428.641C164.689 429.256 165.188 430.088 165.413 431.137H163.06C162.887 430.712 162.618 430.379 162.254 430.136C161.899 429.893 161.474 429.772 160.98 429.772C160.33 429.772 159.806 430.01 159.407 430.487C159.008 430.964 158.809 431.601 158.809 432.398C158.809 433.195 159.008 433.832 159.407 434.309C159.806 434.777 160.33 435.011 160.98 435.011C161.474 435.011 161.899 434.89 162.254 434.647C162.618 434.404 162.887 434.075 163.06 433.659H165.413C165.188 434.699 164.689 435.531 163.918 436.155C163.155 436.77 162.189 437.078 161.019 437.078C160.126 437.078 159.342 436.883 158.666 436.493C157.99 436.094 157.466 435.54 157.093 434.829C156.729 434.118 156.547 433.308 156.547 432.398C156.547 431.488 156.729 430.678 157.093 429.967C157.466 429.256 157.99 428.706 158.666 428.316C159.342 427.917 160.126 427.718 161.019 427.718ZM172.678 437L170.689 433.529H170.182V437H167.959V427.809H171.755C172.483 427.809 173.098 427.935 173.601 428.186C174.103 428.437 174.48 428.784 174.732 429.226C174.983 429.659 175.109 430.158 175.109 430.721C175.109 431.388 174.922 431.956 174.55 432.424C174.186 432.892 173.653 433.213 172.951 433.386L175.135 437H172.678ZM170.182 432.008H171.56C172.002 432.008 172.327 431.913 172.535 431.722C172.743 431.523 172.847 431.232 172.847 430.851C172.847 430.487 172.738 430.201 172.522 429.993C172.314 429.785 171.993 429.681 171.56 429.681H170.182V432.008ZM179.746 427.809V437H177.523V427.809H179.746ZM184.804 433.776V437H182.581V427.809H186.182C187.274 427.809 188.106 428.082 188.678 428.628C189.25 429.165 189.536 429.893 189.536 430.812C189.536 431.384 189.406 431.895 189.146 432.346C188.895 432.788 188.518 433.139 188.015 433.399C187.512 433.65 186.901 433.776 186.182 433.776H184.804ZM185.935 431.995C186.828 431.995 187.274 431.601 187.274 430.812C187.274 430.006 186.828 429.603 185.935 429.603H184.804V431.995H185.935ZM198.534 427.809V429.577H196.038V437H193.802V429.577H191.332V427.809H198.534Z" fill="white"/>
<g filter="url(#filter2_d)">
<rect x="259.426" y="407" width="182" height="50" rx="10" fill="#80EBFF"/>
</g>
<path d="M339.68 435.323H336.235L335.663 437H333.323L336.69 427.874H339.251L342.618 437H340.252L339.68 435.323ZM339.108 433.633L337.964 430.253L336.807 433.633H339.108ZM347.005 433.776V437H344.782V427.809H348.383C349.475 427.809 350.307 428.082 350.879 428.628C351.451 429.165 351.737 429.893 351.737 430.812C351.737 431.384 351.607 431.895 351.347 432.346C351.096 432.788 350.719 433.139 350.216 433.399C349.713 433.65 349.102 433.776 348.383 433.776H347.005ZM348.136 431.995C349.029 431.995 349.475 431.601 349.475 430.812C349.475 430.006 349.029 429.603 348.136 429.603H347.005V431.995H348.136ZM356.354 427.809V437H354.131V427.809H356.354ZM361.828 429.655C362.746 429.655 363.479 429.885 364.025 430.344C364.579 430.803 364.926 431.41 365.065 432.164H362.985C362.924 431.869 362.785 431.64 362.569 431.475C362.361 431.302 362.096 431.215 361.776 431.215C361.524 431.215 361.334 431.271 361.204 431.384C361.074 431.488 361.009 431.64 361.009 431.839C361.009 432.064 361.126 432.233 361.36 432.346C361.602 432.459 361.979 432.571 362.491 432.684C363.045 432.814 363.5 432.948 363.856 433.087C364.211 433.217 364.519 433.434 364.779 433.737C365.039 434.04 365.169 434.448 365.169 434.959C365.169 435.375 365.056 435.743 364.831 436.064C364.605 436.385 364.28 436.636 363.856 436.818C363.431 437 362.928 437.091 362.348 437.091C361.368 437.091 360.584 436.874 359.995 436.441C359.405 436.008 359.046 435.388 358.916 434.582H361.061C361.095 434.894 361.225 435.132 361.451 435.297C361.685 435.462 361.984 435.544 362.348 435.544C362.599 435.544 362.79 435.488 362.92 435.375C363.05 435.254 363.115 435.098 363.115 434.907C363.115 434.656 362.993 434.478 362.751 434.374C362.517 434.261 362.131 434.144 361.594 434.023C361.056 433.91 360.614 433.789 360.268 433.659C359.921 433.529 359.622 433.321 359.371 433.035C359.119 432.74 358.994 432.342 358.994 431.839C358.994 431.189 359.241 430.665 359.735 430.266C360.229 429.859 360.926 429.655 361.828 429.655Z" fill="white"/>
<g filter="url(#filter3_d)">
<rect x="458.426" y="407" width="180" height="50" rx="10" fill="#FEE895"/>
</g>
<path d="M528.418 427.874V437H526.195V431.293L524.219 437H522.295L520.306 431.28V437H518.083V427.874H520.8L523.283 434.231L525.714 427.874H528.418ZM536.947 435.323H533.502L532.93 437H530.59L533.957 427.874H536.518L539.885 437H537.519L536.947 435.323ZM536.375 433.633L535.231 430.253L534.074 433.633H536.375ZM546.768 437L544.779 433.529H544.272V437H542.049V427.809H545.845C546.573 427.809 547.188 427.935 547.691 428.186C548.194 428.437 548.571 428.784 548.822 429.226C549.073 429.659 549.199 430.158 549.199 430.721C549.199 431.388 549.013 431.956 548.64 432.424C548.276 432.892 547.743 433.213 547.041 433.386L549.225 437H546.768ZM544.272 432.008H545.65C546.092 432.008 546.417 431.913 546.625 431.722C546.833 431.523 546.937 431.232 546.937 430.851C546.937 430.487 546.829 430.201 546.612 429.993C546.404 429.785 546.083 429.681 545.65 429.681H544.272V432.008ZM555.943 432.307L559.648 437H556.957L553.837 432.879V437H551.614V427.809H553.837V431.852L556.983 427.809H559.648L555.943 432.307ZM564.047 427.809V433.113C564.047 433.72 564.182 434.183 564.45 434.504C564.728 434.825 565.126 434.985 565.646 434.985C566.166 434.985 566.561 434.825 566.829 434.504C567.107 434.183 567.245 433.72 567.245 433.113V427.809H569.468V433.113C569.468 433.98 569.299 434.712 568.961 435.31C568.623 435.899 568.16 436.346 567.57 436.649C566.99 436.944 566.331 437.091 565.594 437.091C564.858 437.091 564.208 436.944 563.644 436.649C563.081 436.354 562.639 435.908 562.318 435.31C561.998 434.712 561.837 433.98 561.837 433.113V427.809H564.047ZM574.477 433.776V437H572.254V427.809H575.855C576.947 427.809 577.779 428.082 578.351 428.628C578.923 429.165 579.209 429.893 579.209 430.812C579.209 431.384 579.079 431.895 578.819 432.346C578.567 432.788 578.19 433.139 577.688 433.399C577.185 433.65 576.574 433.776 575.855 433.776H574.477ZM575.608 431.995C576.5 431.995 576.947 431.601 576.947 430.812C576.947 430.006 576.5 429.603 575.608 429.603H574.477V431.995H575.608Z" fill="white"/>
<path d="M553.426 397V344C553.426 332.954 544.471 324 533.426 324H169.426C158.38 324 149.426 332.954 149.426 344V397" stroke="#DDEAF6" stroke-width="3" stroke-linecap="round"/>
<path d="M149.426 184L149.426 237C149.426 248.046 158.38 257 169.426 257L533.426 257C544.471 257 553.426 248.046 553.426 237L553.426 184" stroke="#DDEAF6" stroke-width="3" stroke-linecap="round"/>
<circle cx="354.926" cy="323" r="7" fill="white" stroke="#DDEAF7" stroke-width="3"/>
<path d="M350.926 282H354.926H358.926L354.926 276.5L350.926 282Z" fill="#DDEAF6"/>
<path d="M354.926 317.5V282M354.926 282H350.926L354.926 276.5L358.926 282H354.926Z" stroke="#DDEAF6" stroke-width="3"/>
<circle cx="331.926" cy="255.5" r="7" transform="rotate(-180 331.926 255.5)" fill="white" stroke="#DDEAF7" stroke-width="3"/>
<path d="M335.926 296.5L331.926 296.5L327.926 296.5L331.926 302L335.926 296.5Z" fill="#DDEAF6"/>
<path d="M331.926 261L331.926 296.5M331.926 296.5L335.926 296.5L331.926 302L327.926 296.5L331.926 296.5Z" stroke="#DDEAF6" stroke-width="3"/>
<defs>
<filter id="filter0_f" x="0.425781" y="93" width="702" height="506" filterUnits="userSpaceOnUse" color-interpolation-filters="sRGB">
<feFlood flood-opacity="0" result="BackgroundImageFix"/>
<feBlend mode="normal" in="SourceGraphic" in2="BackgroundImageFix" result="shape"/>
<feGaussianBlur stdDeviation="27.5" result="effect1_foregroundBlur"/>
</filter>
<filter id="filter1_d" x="52.4258" y="402" width="200" height="70" filterUnits="userSpaceOnUse" color-interpolation-filters="sRGB">
<feFlood flood-opacity="0" result="BackgroundImageFix"/>
<feColorMatrix in="SourceAlpha" type="matrix" values="0 0 0 0 0 0 0 0 0 0 0 0 0 0 0 0 0 0 127 0"/>
<feOffset dy="5"/>
<feGaussianBlur stdDeviation="5"/>
<feColorMatrix type="matrix" values="0 0 0 0 0.470588 0 0 0 0 0.576471 0 0 0 0 0.670588 0 0 0 0.1 0"/>
<feBlend mode="normal" in2="BackgroundImageFix" result="effect1_dropShadow"/>
<feBlend mode="normal" in="SourceGraphic" in2="effect1_dropShadow" result="shape"/>
</filter>
<filter id="filter2_d" x="249.426" y="402" width="202" height="70" filterUnits="userSpaceOnUse" color-interpolation-filters="sRGB">
<feFlood flood-opacity="0" result="BackgroundImageFix"/>
<feColorMatrix in="SourceAlpha" type="matrix" values="0 0 0 0 0 0 0 0 0 0 0 0 0 0 0 0 0 0 127 0"/>
<feOffset dy="5"/>
<feGaussianBlur stdDeviation="5"/>
<feColorMatrix type="matrix" values="0 0 0 0 0.470588 0 0 0 0 0.576471 0 0 0 0 0.670588 0 0 0 0.1 0"/>
<feBlend mode="normal" in2="BackgroundImageFix" result="effect1_dropShadow"/>
<feBlend mode="normal" in="SourceGraphic" in2="effect1_dropShadow" result="shape"/>
</filter>
<filter id="filter3_d" x="448.426" y="402" width="200" height="70" filterUnits="userSpaceOnUse" color-interpolation-filters="sRGB">
<feFlood flood-opacity="0" result="BackgroundImageFix"/>
<feColorMatrix in="SourceAlpha" type="matrix" values="0 0 0 0 0 0 0 0 0 0 0 0 0 0 0 0 0 0 127 0"/>
<feOffset dy="5"/>
<feGaussianBlur stdDeviation="5"/>
<feColorMatrix type="matrix" values="0 0 0 0 0.470588 0 0 0 0 0.576471 0 0 0 0 0.670588 0 0 0 0.1 0"/>
<feBlend mode="normal" in2="BackgroundImageFix" result="effect1_dropShadow"/>
<feBlend mode="normal" in="SourceGraphic" in2="effect1_dropShadow" result="shape"/>
</filter>
</defs>
</svg>
