<svg width="657" height="625" viewBox="0 0 657 625" fill="none" xmlns="http://www.w3.org/2000/svg">
<g filter="url(#filter0_f)">
<path d="M297.784 42.1736C299.074 36.7718 303.902 32.9609 309.456 32.9609H329.102C334.327 32.9609 338.952 36.3416 340.537 41.3201L342.673 48.0302C345.138 55.77 339.362 63.671 331.239 63.671H307.853C300.099 63.671 294.38 56.4262 296.182 48.8837L297.784 42.1736Z" fill="#7893AB" fill-opacity="0.3"/>
</g>
<rect x="293.193" y="0.621094" width="55" height="55" rx="10" fill="white"/>
<circle cx="320.159" cy="20.2288" r="5.0101" stroke="#956FFF" stroke-width="3"/>
<path d="M330.75 41.2577C330.75 35.4081 326.008 30.666 320.158 30.666C314.308 30.666 309.566 35.4081 309.566 41.2577" stroke="#956FFF" stroke-width="3" stroke-linecap="round"/>
<g filter="url(#filter1_f)">
<path d="M291.175 127.967C292.465 122.565 297.293 118.754 302.847 118.754H322.493C327.718 118.754 332.342 122.135 333.927 127.113L336.064 133.823C338.528 141.563 332.752 149.464 324.63 149.464H301.244C293.49 149.464 287.771 142.219 289.572 134.677L291.175 127.967Z" fill="#7893AB" fill-opacity="0.3"/>
</g>
<rect x="286.584" y="86.4141" width="55" height="55" rx="10" fill="white"/>
<circle cx="313.549" cy="106.022" r="5.0101" stroke="#936EFD" stroke-width="3"/>
<path d="M324.14 127.051C324.14 121.201 319.398 116.459 313.549 116.459C307.699 116.459 302.957 121.201 302.957 127.051" stroke="#936EFD" stroke-width="3" stroke-linecap="round"/>
<g filter="url(#filter2_f)">
<path d="M442.368 176.551C443.658 171.149 448.486 167.338 454.04 167.338H473.686C478.911 167.338 483.536 170.719 485.121 175.697L487.257 182.407C489.722 190.147 483.946 198.048 475.823 198.048H452.437C444.683 198.048 438.964 190.803 440.766 183.261L442.368 176.551Z" fill="#7893AB" fill-opacity="0.3"/>
</g>
<rect x="437.777" y="134.998" width="55" height="55" rx="10" fill="white"/>
<circle cx="464.743" cy="154.606" r="5.0101" stroke="#956FFF" stroke-width="3"/>
<path d="M475.334 175.635C475.334 169.785 470.592 165.043 464.742 165.043C458.892 165.043 454.15 169.785 454.15 175.635" stroke="#956FFF" stroke-width="3" stroke-linecap="round"/>
<g opacity="0.3">
<g filter="url(#filter3_f)">
<path d="M447.083 49.0818C448.373 43.68 453.201 39.8691 458.755 39.8691H478.401C483.626 39.8691 488.25 43.2498 489.836 48.2284L491.972 54.9384C494.437 62.6782 488.66 70.5792 480.538 70.5792H457.152C449.398 70.5792 443.679 63.3344 445.481 55.7919L447.083 49.0818Z" fill="#7893AB" fill-opacity="0.3"/>
</g>
<rect x="442.492" y="7.5293" width="55" height="55" rx="10" fill="white"/>
<circle cx="469.457" cy="27.1371" r="5.0101" stroke="#C9B6FE" stroke-width="3"/>
<path d="M480.049 48.1659C480.049 42.3163 475.307 37.5742 469.457 37.5742C463.607 37.5742 458.865 42.3163 458.865 48.1659" stroke="#C9B6FE" stroke-width="3" stroke-linecap="round"/>
</g>
<g opacity="0.3">
<g filter="url(#filter4_f)">
<path d="M151.013 172.531C152.303 167.129 157.131 163.318 162.684 163.318H182.331C187.556 163.318 192.18 166.699 193.765 171.678L195.902 178.388C198.366 186.127 192.59 194.028 184.467 194.028H161.082C153.327 194.028 147.609 186.784 149.41 179.241L151.013 172.531Z" fill="#7893AB" fill-opacity="0.3"/>
</g>
<rect x="146.422" y="130.979" width="55" height="55" rx="10" fill="white"/>
<circle cx="173.387" cy="150.586" r="5.0101" stroke="#DDEAF6" stroke-width="3"/>
<path d="M183.978 171.615C183.978 165.766 179.236 161.023 173.387 161.023C167.537 161.023 162.795 165.766 162.795 171.615" stroke="#DDEAF6" stroke-width="3" stroke-linecap="round"/>
</g>
<g opacity="0.5">
<g filter="url(#filter5_f)">
<path d="M382.451 108.128C383.64 103.15 388.089 99.6387 393.207 99.6387H403.682C408.497 99.6387 412.759 102.754 414.219 107.342C416.49 114.474 411.168 121.755 403.682 121.755H393.207C386.061 121.755 380.792 115.079 382.451 108.128Z" fill="#7893AB" fill-opacity="0.3"/>
</g>
<rect x="379.588" y="77.1875" width="39.6091" height="39.6091" rx="10" fill="white"/>
<circle cx="399.008" cy="91.3073" r="3.6081" stroke="#946EFE" stroke-width="3"/>
<path d="M406.635 106.452C406.635 102.239 403.22 98.8242 399.008 98.8242C394.795 98.8242 391.38 102.239 391.38 106.452" stroke="#946EFE" stroke-width="3" stroke-linecap="round"/>
</g>
<g opacity="0.5">
<g filter="url(#filter6_f)">
<path d="M520.905 114.941C522.093 109.963 526.542 106.451 531.66 106.451H542.136C546.95 106.451 551.212 109.567 552.672 114.154C554.943 121.287 549.621 128.568 542.136 128.568H531.66C524.514 128.568 519.245 121.891 520.905 114.941Z" fill="#7893AB" fill-opacity="0.3"/>
</g>
<rect x="518.041" y="84" width="39.6091" height="39.6091" rx="10" fill="white"/>
<circle cx="537.461" cy="98.1198" r="3.6081" stroke="#EFE9FF" stroke-width="3"/>
<path d="M545.089 113.265C545.089 109.052 541.674 105.637 537.461 105.637C533.248 105.637 529.833 109.052 529.833 113.265" stroke="#EFE9FF" stroke-width="3" stroke-linecap="round"/>
</g>
<g opacity="0.5">
<g filter="url(#filter7_f)">
<path d="M202.49 72.2553C203.679 67.2774 208.128 63.7656 213.246 63.7656H223.721C228.536 63.7656 232.798 66.881 234.258 71.4688C236.529 78.6011 231.207 85.882 223.721 85.882H213.246C206.1 85.882 200.831 79.2058 202.49 72.2553Z" fill="#7893AB" fill-opacity="0.3"/>
</g>
<rect x="199.627" y="41.3145" width="39.6091" height="39.6091" rx="10" fill="white"/>
<circle cx="219.047" cy="55.4343" r="3.6081" stroke="#956FFF" stroke-width="3"/>
<path d="M226.675 70.579C226.675 66.3663 223.259 62.9512 219.047 62.9512C214.834 62.9512 211.419 66.3663 211.419 70.579" stroke="#956FFF" stroke-width="3" stroke-linecap="round"/>
</g>
<g opacity="0.5">
<g filter="url(#filter8_f)">
<path d="M99.9045 106.941C101.093 101.963 105.542 98.4512 110.66 98.4512H121.136C125.95 98.4512 130.212 101.567 131.672 106.154C133.943 113.287 128.621 120.568 121.136 120.568H110.66C103.514 120.568 98.2447 113.891 99.9045 106.941Z" fill="#7893AB" fill-opacity="0.3"/>
</g>
<rect x="97.041" y="76" width="39.6091" height="39.6091" rx="10" fill="white"/>
<circle cx="116.461" cy="90.1198" r="3.6081" stroke="#936EFD" stroke-width="3"/>
<path d="M124.089 105.265C124.089 101.052 120.674 97.6367 116.461 97.6367C112.248 97.6367 108.833 101.052 108.833 105.265" stroke="#936EFD" stroke-width="3" stroke-linecap="round"/>
</g>
<g opacity="0.5">
<g filter="url(#filter9_f)">
<path d="M234.518 203.878C235.707 198.9 240.156 195.389 245.274 195.389H255.749C260.564 195.389 264.825 198.504 266.286 203.092C268.557 210.224 263.234 217.505 255.749 217.505H245.274C238.128 217.505 232.858 210.829 234.518 203.878Z" fill="#7893AB" fill-opacity="0.3"/>
</g>
<rect x="231.654" y="172.938" width="39.6091" height="39.6091" rx="10" fill="white"/>
<circle cx="251.074" cy="187.057" r="3.6081" stroke="#DDEAF6" stroke-width="3"/>
<path d="M258.702 202.202C258.702 197.989 255.287 194.574 251.074 194.574C246.861 194.574 243.446 197.989 243.446 202.202" stroke="#DDEAF6" stroke-width="3" stroke-linecap="round"/>
</g>
<g style="mix-blend-mode:multiply" filter="url(#filter10_f)">
<path d="M55.6504 217C55.6504 205.954 64.6047 197 75.6504 197H581.65C592.696 197 601.65 205.954 601.65 217V550C601.65 561.046 592.696 570 581.65 570H75.6504C64.6047 570 55.6504 561.046 55.6504 550V217Z" fill="#7893AB" fill-opacity="0.25"/>
</g>
<rect x="31.6504" y="171.76" width="594" height="354" rx="20" fill="white"/>
<rect x="196.65" y="187.76" width="293" height="23" rx="5" fill="#F4F9FE"/>
<circle cx="90.348" cy="199.147" r="5.00001" transform="rotate(15 90.348 199.147)" fill="#FD7A8C"/>
<circle cx="73.7738" cy="199.048" r="5.00001" transform="rotate(15 73.7738 199.048)" fill="#80EBFF"/>
<circle cx="106.375" cy="198.883" r="5.00001" transform="rotate(15 106.375 198.883)" fill="#FEE895"/>
<rect x="84.6504" y="275.76" width="145" height="138" rx="20" fill="#FFF9E1"/>
<path d="M144.707 352.207L170.228 353.776C171.108 353.814 171.72 352.896 171.261 352.131L164.374 339.581C163.991 338.93 163.073 338.815 162.575 339.351L156.186 346.238C155.765 346.697 155 346.736 154.579 346.238L151.479 343.062C151.02 342.565 150.217 342.603 149.796 343.139L143.904 350.371C143.33 351.098 143.789 352.169 144.707 352.207Z" fill="#FEE895"/>
<path d="M156.11 338.892C157.273 338.892 158.215 337.967 158.215 336.826C158.215 335.685 157.273 334.76 156.11 334.76C154.948 334.76 154.006 335.685 154.006 336.826C154.006 337.967 154.948 338.892 156.11 338.892Z" fill="#FEE895"/>
<rect x="84.6504" y="440" width="112" height="6" rx="3" fill="#A3BFDB"/>
<rect x="84.6504" y="452" width="128" height="6" rx="3" fill="#C4D8EA"/>
<rect x="84.6504" y="464" width="97" height="6" rx="3" fill="#C4D8EA"/>
<rect x="257.65" y="275.76" width="145" height="138" rx="20" fill="#FFF9E1"/>
<path d="M317.707 352.207L343.228 353.776C344.108 353.814 344.72 352.896 344.261 352.131L337.374 339.581C336.991 338.93 336.073 338.815 335.575 339.351L329.186 346.238C328.765 346.697 328 346.736 327.579 346.238L324.479 343.062C324.02 342.565 323.217 342.603 322.796 343.139L316.904 350.371C316.33 351.098 316.789 352.169 317.707 352.207Z" fill="#FEE895"/>
<path d="M329.11 338.892C330.273 338.892 331.215 337.967 331.215 336.826C331.215 335.685 330.273 334.76 329.11 334.76C327.948 334.76 327.006 335.685 327.006 336.826C327.006 337.967 327.948 338.892 329.11 338.892Z" fill="#FEE895"/>
<rect x="257.65" y="440" width="112" height="6" rx="3" fill="#A3BFDB"/>
<rect x="257.65" y="452" width="128" height="6" rx="3" fill="#C4D8EA"/>
<rect x="257.65" y="464" width="97" height="6" rx="3" fill="#C4D8EA"/>
<rect x="428.65" y="275.76" width="145" height="138" rx="20" fill="#FFF9E1"/>
<path d="M488.707 352.207L514.228 353.776C515.108 353.814 515.72 352.896 515.261 352.131L508.374 339.581C507.991 338.93 507.073 338.815 506.575 339.351L500.186 346.238C499.765 346.697 499 346.736 498.579 346.238L495.479 343.062C495.02 342.565 494.217 342.603 493.796 343.139L487.904 350.371C487.33 351.098 487.789 352.169 488.707 352.207Z" fill="#FEE895"/>
<path d="M500.11 338.892C501.273 338.892 502.215 337.967 502.215 336.826C502.215 335.685 501.273 334.76 500.11 334.76C498.948 334.76 498.006 335.685 498.006 336.826C498.006 337.967 498.948 338.892 500.11 338.892Z" fill="#FEE895"/>
<rect x="428.65" y="440" width="112" height="6" rx="3" fill="#A3BFDB"/>
<rect x="428.65" y="452" width="128" height="6" rx="3" fill="#C4D8EA"/>
<rect x="428.65" y="464" width="97" height="6" rx="3" fill="#C4D8EA"/>
<defs>
<filter id="filter0_f" x="275.848" y="12.9609" width="87.3996" height="70.7101" filterUnits="userSpaceOnUse" color-interpolation-filters="sRGB">
<feFlood flood-opacity="0" result="BackgroundImageFix"/>
<feBlend mode="normal" in="SourceGraphic" in2="BackgroundImageFix" result="shape"/>
<feGaussianBlur stdDeviation="10" result="effect1_foregroundBlur"/>
</filter>
<filter id="filter1_f" x="269.238" y="98.7539" width="87.3996" height="70.7101" filterUnits="userSpaceOnUse" color-interpolation-filters="sRGB">
<feFlood flood-opacity="0" result="BackgroundImageFix"/>
<feBlend mode="normal" in="SourceGraphic" in2="BackgroundImageFix" result="shape"/>
<feGaussianBlur stdDeviation="10" result="effect1_foregroundBlur"/>
</filter>
<filter id="filter2_f" x="420.432" y="147.338" width="87.3996" height="70.7101" filterUnits="userSpaceOnUse" color-interpolation-filters="sRGB">
<feFlood flood-opacity="0" result="BackgroundImageFix"/>
<feBlend mode="normal" in="SourceGraphic" in2="BackgroundImageFix" result="shape"/>
<feGaussianBlur stdDeviation="10" result="effect1_foregroundBlur"/>
</filter>
<filter id="filter3_f" x="425.146" y="19.8691" width="87.3996" height="70.7101" filterUnits="userSpaceOnUse" color-interpolation-filters="sRGB">
<feFlood flood-opacity="0" result="BackgroundImageFix"/>
<feBlend mode="normal" in="SourceGraphic" in2="BackgroundImageFix" result="shape"/>
<feGaussianBlur stdDeviation="10" result="effect1_foregroundBlur"/>
</filter>
<filter id="filter4_f" x="129.076" y="143.318" width="87.3996" height="70.7101" filterUnits="userSpaceOnUse" color-interpolation-filters="sRGB">
<feFlood flood-opacity="0" result="BackgroundImageFix"/>
<feBlend mode="normal" in="SourceGraphic" in2="BackgroundImageFix" result="shape"/>
<feGaussianBlur stdDeviation="10" result="effect1_foregroundBlur"/>
</filter>
<filter id="filter5_f" x="362.144" y="79.6387" width="72.6046" height="62.1163" filterUnits="userSpaceOnUse" color-interpolation-filters="sRGB">
<feFlood flood-opacity="0" result="BackgroundImageFix"/>
<feBlend mode="normal" in="SourceGraphic" in2="BackgroundImageFix" result="shape"/>
<feGaussianBlur stdDeviation="10" result="effect1_foregroundBlur"/>
</filter>
<filter id="filter6_f" x="500.597" y="86.4512" width="72.6046" height="62.1163" filterUnits="userSpaceOnUse" color-interpolation-filters="sRGB">
<feFlood flood-opacity="0" result="BackgroundImageFix"/>
<feBlend mode="normal" in="SourceGraphic" in2="BackgroundImageFix" result="shape"/>
<feGaussianBlur stdDeviation="10" result="effect1_foregroundBlur"/>
</filter>
<filter id="filter7_f" x="182.183" y="43.7656" width="72.6046" height="62.1163" filterUnits="userSpaceOnUse" color-interpolation-filters="sRGB">
<feFlood flood-opacity="0" result="BackgroundImageFix"/>
<feBlend mode="normal" in="SourceGraphic" in2="BackgroundImageFix" result="shape"/>
<feGaussianBlur stdDeviation="10" result="effect1_foregroundBlur"/>
</filter>
<filter id="filter8_f" x="79.5967" y="78.4512" width="72.6046" height="62.1163" filterUnits="userSpaceOnUse" color-interpolation-filters="sRGB">
<feFlood flood-opacity="0" result="BackgroundImageFix"/>
<feBlend mode="normal" in="SourceGraphic" in2="BackgroundImageFix" result="shape"/>
<feGaussianBlur stdDeviation="10" result="effect1_foregroundBlur"/>
</filter>
<filter id="filter9_f" x="214.21" y="175.389" width="72.6046" height="62.1163" filterUnits="userSpaceOnUse" color-interpolation-filters="sRGB">
<feFlood flood-opacity="0" result="BackgroundImageFix"/>
<feBlend mode="normal" in="SourceGraphic" in2="BackgroundImageFix" result="shape"/>
<feGaussianBlur stdDeviation="10" result="effect1_foregroundBlur"/>
</filter>
<filter id="filter10_f" x="0.650391" y="142" width="656" height="483" filterUnits="userSpaceOnUse" color-interpolation-filters="sRGB">
<feFlood flood-opacity="0" result="BackgroundImageFix"/>
<feBlend mode="normal" in="SourceGraphic" in2="BackgroundImageFix" result="shape"/>
<feGaussianBlur stdDeviation="27.5" result="effect1_foregroundBlur"/>
</filter>
</defs>
</svg>
