<svg width="890" height="807" viewBox="0 0 890 807" fill="none" xmlns="http://www.w3.org/2000/svg">
<g filter="url(#filter0_f)">
<path d="M233.289 91.8689C233.36 85.293 238.712 80 245.288 80H646.19C652.846 80 658.23 85.4169 658.19 92.0725L654.424 715.073C654.384 721.672 649.023 727 642.424 727H238.483C231.805 727 226.411 721.547 226.484 714.869L233.289 91.8689Z" fill="#7893AB" fill-opacity="0.55"/>
</g>
<rect x="196" y="26" width="494" height="670" rx="20" fill="white"/>
<path d="M196 46C196 34.9543 204.954 26 216 26H670C681.046 26 690 34.9543 690 46V105H196V46Z" fill="#F1FDFF"/>
<path d="M246.467 72.133C245.226 72.133 244.086 71.8417 243.047 71.259C242.008 70.6763 241.185 69.872 240.577 68.846C239.969 67.8073 239.665 66.6357 239.665 65.331C239.665 64.039 239.969 62.88 240.577 61.854C241.185 60.8153 242.008 60.0047 243.047 59.422C244.086 58.8393 245.226 58.548 246.467 58.548C247.721 58.548 248.861 58.8393 249.887 59.422C250.926 60.0047 251.743 60.8153 252.338 61.854C252.946 62.88 253.25 64.039 253.25 65.331C253.25 66.6357 252.946 67.8073 252.338 68.846C251.743 69.872 250.926 70.6763 249.887 71.259C248.848 71.8417 247.708 72.133 246.467 72.133ZM246.467 69.758C247.265 69.758 247.968 69.5807 248.576 69.226C249.184 68.8587 249.659 68.3393 250.001 67.668C250.343 66.9967 250.514 66.2177 250.514 65.331C250.514 64.4443 250.343 63.6717 250.001 63.013C249.659 62.3417 249.184 61.8287 248.576 61.474C247.968 61.1193 247.265 60.942 246.467 60.942C245.669 60.942 244.96 61.1193 244.339 61.474C243.731 61.8287 243.256 62.3417 242.914 63.013C242.572 63.6717 242.401 64.4443 242.401 65.331C242.401 66.2177 242.572 66.9967 242.914 67.668C243.256 68.3393 243.731 68.8587 244.339 69.226C244.96 69.5807 245.669 69.758 246.467 69.758ZM259.618 69.549L262.278 61.474H265.109L261.214 72H257.984L254.108 61.474H256.958L259.618 69.549ZM276.388 66.509C276.388 66.889 276.363 67.231 276.312 67.535H268.617C268.68 68.295 268.946 68.8903 269.415 69.321C269.884 69.7517 270.46 69.967 271.144 69.967C272.132 69.967 272.835 69.5427 273.253 68.694H276.122C275.818 69.7073 275.235 70.5433 274.374 71.202C273.513 71.848 272.455 72.171 271.201 72.171C270.188 72.171 269.276 71.9493 268.465 71.506C267.667 71.05 267.04 70.4103 266.584 69.587C266.141 68.7637 265.919 67.8137 265.919 66.737C265.919 65.6477 266.141 64.6913 266.584 63.868C267.027 63.0447 267.648 62.4113 268.446 61.968C269.244 61.5247 270.162 61.303 271.201 61.303C272.202 61.303 273.095 61.5183 273.88 61.949C274.678 62.3797 275.292 62.994 275.723 63.792C276.166 64.5773 276.388 65.483 276.388 66.509ZM273.633 65.749C273.62 65.065 273.373 64.5203 272.892 64.115C272.411 63.697 271.822 63.488 271.125 63.488C270.466 63.488 269.909 63.6907 269.453 64.096C269.01 64.4887 268.737 65.0397 268.636 65.749H273.633ZM280.99 63.108C281.332 62.5507 281.775 62.1137 282.32 61.797C282.877 61.4803 283.51 61.322 284.22 61.322V64.115H283.517C282.681 64.115 282.047 64.3113 281.617 64.704C281.199 65.0967 280.99 65.7807 280.99 66.756V72H278.33V61.474H280.99V63.108ZM285.327 66.699C285.327 65.635 285.536 64.6913 285.954 63.868C286.385 63.0447 286.961 62.4113 287.683 61.968C288.418 61.5247 289.235 61.303 290.134 61.303C290.92 61.303 291.604 61.4613 292.186 61.778C292.782 62.0947 293.257 62.4937 293.611 62.975V61.474H296.29V72H293.611V70.461C293.269 70.955 292.794 71.3667 292.186 71.696C291.591 72.0127 290.901 72.171 290.115 72.171C289.229 72.171 288.418 71.943 287.683 71.487C286.961 71.031 286.385 70.3913 285.954 69.568C285.536 68.732 285.327 67.7757 285.327 66.699ZM293.611 66.737C293.611 66.091 293.485 65.54 293.231 65.084C292.978 64.6153 292.636 64.2607 292.205 64.02C291.775 63.7667 291.312 63.64 290.818 63.64C290.324 63.64 289.868 63.7603 289.45 64.001C289.032 64.2417 288.69 64.5963 288.424 65.065C288.171 65.521 288.044 66.0657 288.044 66.699C288.044 67.3323 288.171 67.8897 288.424 68.371C288.69 68.8397 289.032 69.2007 289.45 69.454C289.881 69.7073 290.337 69.834 290.818 69.834C291.312 69.834 291.775 69.7137 292.205 69.473C292.636 69.2197 292.978 68.865 293.231 68.409C293.485 67.9403 293.611 67.383 293.611 66.737ZM301.548 57.94V72H298.888V57.94H301.548ZM306.836 57.94V72H304.176V57.94H306.836ZM318.571 72.133C317.646 72.133 316.81 71.9747 316.063 71.658C315.328 71.3413 314.745 70.8853 314.315 70.29C313.884 69.6947 313.662 68.9917 313.65 68.181H316.5C316.538 68.7257 316.728 69.1563 317.07 69.473C317.424 69.7897 317.906 69.948 318.514 69.948C319.134 69.948 319.622 69.8023 319.977 69.511C320.331 69.207 320.509 68.8143 320.509 68.333C320.509 67.9403 320.388 67.6173 320.148 67.364C319.907 67.1107 319.603 66.9143 319.236 66.775C318.881 66.623 318.387 66.4583 317.754 66.281C316.892 66.0277 316.189 65.7807 315.645 65.54C315.113 65.2867 314.65 64.913 314.258 64.419C313.878 63.9123 313.688 63.241 313.688 62.405C313.688 61.6197 313.884 60.9357 314.277 60.353C314.669 59.7703 315.22 59.327 315.93 59.023C316.639 58.7063 317.45 58.548 318.362 58.548C319.73 58.548 320.838 58.8837 321.687 59.555C322.548 60.2137 323.023 61.1383 323.112 62.329H320.186C320.16 61.873 319.964 61.4993 319.597 61.208C319.242 60.904 318.767 60.752 318.172 60.752C317.652 60.752 317.234 60.885 316.918 61.151C316.614 61.417 316.462 61.8033 316.462 62.31C316.462 62.6647 316.576 62.9623 316.804 63.203C317.044 63.431 317.336 63.621 317.678 63.773C318.032 63.9123 318.526 64.077 319.16 64.267C320.021 64.5203 320.724 64.7737 321.269 65.027C321.813 65.2803 322.282 65.6603 322.675 66.167C323.067 66.6737 323.264 67.3387 323.264 68.162C323.264 68.8713 323.08 69.53 322.713 70.138C322.345 70.746 321.807 71.2337 321.098 71.601C320.388 71.9557 319.546 72.133 318.571 72.133ZM324.886 66.737C324.886 65.6477 325.107 64.6977 325.551 63.887C325.994 63.0637 326.608 62.4303 327.394 61.987C328.179 61.531 329.078 61.303 330.092 61.303C331.396 61.303 332.473 61.6323 333.322 62.291C334.183 62.937 334.759 63.849 335.051 65.027H332.182C332.03 64.571 331.77 64.2163 331.403 63.963C331.048 63.697 330.605 63.564 330.073 63.564C329.313 63.564 328.711 63.8427 328.268 64.4C327.824 64.9447 327.603 65.7237 327.603 66.737C327.603 67.7377 327.824 68.5167 328.268 69.074C328.711 69.6187 329.313 69.891 330.073 69.891C331.149 69.891 331.852 69.4097 332.182 68.447H335.051C334.759 69.587 334.183 70.4927 333.322 71.164C332.46 71.8353 331.384 72.171 330.092 72.171C329.078 72.171 328.179 71.9493 327.394 71.506C326.608 71.05 325.994 70.4167 325.551 69.606C325.107 68.7827 324.886 67.8263 324.886 66.737ZM341.673 72.171C340.66 72.171 339.748 71.9493 338.937 71.506C338.127 71.05 337.487 70.4103 337.018 69.587C336.562 68.7637 336.334 67.8137 336.334 66.737C336.334 65.6603 336.569 64.7103 337.037 63.887C337.519 63.0637 338.171 62.4303 338.994 61.987C339.818 61.531 340.736 61.303 341.749 61.303C342.763 61.303 343.681 61.531 344.504 61.987C345.328 62.4303 345.974 63.0637 346.442 63.887C346.924 64.7103 347.164 65.6603 347.164 66.737C347.164 67.8137 346.917 68.7637 346.423 69.587C345.942 70.4103 345.283 71.05 344.447 71.506C343.624 71.9493 342.699 72.171 341.673 72.171ZM341.673 69.853C342.155 69.853 342.604 69.739 343.022 69.511C343.453 69.2703 343.795 68.9157 344.048 68.447C344.302 67.9783 344.428 67.4083 344.428 66.737C344.428 65.7363 344.162 64.97 343.63 64.438C343.111 63.8933 342.471 63.621 341.711 63.621C340.951 63.621 340.312 63.8933 339.792 64.438C339.286 64.97 339.032 65.7363 339.032 66.737C339.032 67.7377 339.279 68.5103 339.773 69.055C340.28 69.587 340.913 69.853 341.673 69.853ZM351.776 63.108C352.118 62.5507 352.561 62.1137 353.106 61.797C353.663 61.4803 354.296 61.322 355.006 61.322V64.115H354.303C353.467 64.115 352.833 64.3113 352.403 64.704C351.985 65.0967 351.776 65.7807 351.776 66.756V72H349.116V61.474H351.776V63.108ZM366.582 66.509C366.582 66.889 366.557 67.231 366.506 67.535H358.811C358.875 68.295 359.141 68.8903 359.609 69.321C360.078 69.7517 360.654 69.967 361.338 69.967C362.326 69.967 363.029 69.5427 363.447 68.694H366.316C366.012 69.7073 365.43 70.5433 364.568 71.202C363.707 71.848 362.649 72.171 361.395 72.171C360.382 72.171 359.47 71.9493 358.659 71.506C357.861 71.05 357.234 70.4103 356.778 69.587C356.335 68.7637 356.113 67.8137 356.113 66.737C356.113 65.6477 356.335 64.6913 356.778 63.868C357.222 63.0447 357.842 62.4113 358.64 61.968C359.438 61.5247 360.357 61.303 361.395 61.303C362.396 61.303 363.289 61.5183 364.074 61.949C364.872 62.3797 365.487 62.994 365.917 63.792C366.361 64.5773 366.582 65.483 366.582 66.509ZM363.827 65.749C363.815 65.065 363.568 64.5203 363.086 64.115C362.605 63.697 362.016 63.488 361.319 63.488C360.661 63.488 360.103 63.6907 359.647 64.096C359.204 64.4887 358.932 65.0397 358.83 65.749H363.827Z" fill="#2F2E8B"/>
<path d="M529 263.5C529 311.972 490.351 351 443 351C395.649 351 357 311.972 357 263.5C357 215.028 395.649 176 443 176C490.351 176 529 215.028 529 263.5Z" fill="white" stroke="#EFF4F9" stroke-width="20"/>
<path d="M443 178C489.392 178 527 216.28 527 263.5C527 310.72 489.392 349 443 349C396.608 349 359 310.72 359 263.5C359 248.596 362.747 234.582 369.334 222.382" stroke="#80EBFF" stroke-width="20" stroke-linecap="round"/>
<path d="M430.452 244.7C430.772 246.78 431.852 247.82 433.692 247.82C435.092 247.82 436.102 247.21 436.722 245.99C437.342 244.75 437.612 242.82 437.532 240.2C437.212 241.16 436.582 241.93 435.642 242.51C434.722 243.07 433.642 243.35 432.402 243.35C430.362 243.35 428.752 242.74 427.572 241.52C426.412 240.28 425.832 238.53 425.832 236.27C425.832 234.89 426.112 233.66 426.672 232.58C427.232 231.48 428.062 230.62 429.162 230C430.282 229.38 431.632 229.07 433.212 229.07C436.292 229.07 438.412 230.01 439.572 231.89C440.732 233.75 441.312 236.34 441.312 239.66C441.312 243.44 440.722 246.31 439.542 248.27C438.382 250.23 436.432 251.21 433.692 251.21C432.232 251.21 430.972 250.92 429.912 250.34C428.872 249.76 428.062 248.98 427.482 248C426.922 247 426.592 245.9 426.492 244.7H430.452ZM437.172 236.57C437.172 235.45 436.842 234.53 436.182 233.81C435.542 233.07 434.592 232.7 433.332 232.7C432.252 232.7 431.392 233.02 430.752 233.66C430.112 234.3 429.792 235.19 429.792 236.33C429.792 237.53 430.112 238.46 430.752 239.12C431.412 239.76 432.292 240.08 433.392 240.08C434.412 240.08 435.292 239.78 436.032 239.18C436.792 238.56 437.172 237.69 437.172 236.57ZM455.308 235.58C454.988 233.5 453.928 232.46 452.128 232.46C450.728 232.46 449.708 233.08 449.068 234.32C448.428 235.54 448.148 237.46 448.228 240.08C448.548 239.12 449.168 238.36 450.088 237.8C451.028 237.22 452.118 236.93 453.358 236.93C455.398 236.93 456.998 237.55 458.158 238.79C459.338 240.01 459.928 241.75 459.928 244.01C459.928 245.41 459.648 246.65 459.088 247.73C458.528 248.81 457.688 249.66 456.568 250.28C455.468 250.9 454.128 251.21 452.548 251.21C449.468 251.21 447.348 250.26 446.188 248.36C445.028 246.44 444.448 243.8 444.448 240.44C444.448 236.58 445.068 233.72 446.308 231.86C447.568 230 449.598 229.07 452.398 229.07C454.538 229.07 456.178 229.68 457.318 230.9C458.458 232.12 459.108 233.68 459.268 235.58H455.308ZM448.588 243.71C448.588 244.83 448.908 245.76 449.548 246.5C450.208 247.22 451.168 247.58 452.428 247.58C453.508 247.58 454.368 247.26 455.008 246.62C455.648 245.98 455.968 245.09 455.968 243.95C455.968 242.75 455.638 241.83 454.978 241.19C454.338 240.55 453.468 240.23 452.368 240.23C451.328 240.23 450.438 240.53 449.698 241.13C448.958 241.73 448.588 242.59 448.588 243.71Z" fill="#2F2E8B"/>
<path d="M408 266H477" stroke="#E7EDF1" stroke-width="2"/>
<path d="M419.454 284.78V280.82H427.074V302H422.634V284.78H419.454ZM430.406 291.23C430.406 298.41 433.106 302 438.506 302C441.366 302 443.426 301.04 444.686 299.12C445.946 297.2 446.576 294.57 446.576 291.23C446.576 287.91 445.946 285.29 444.686 283.37C443.426 281.45 441.366 280.49 438.506 280.49C433.106 280.49 430.406 284.07 430.406 291.23ZM442.406 291.23C442.406 293.41 442.136 295.09 441.596 296.27C441.076 297.43 440.046 298.01 438.506 298.01C436.946 298.01 435.896 297.43 435.356 296.27C434.836 295.09 434.576 293.41 434.576 291.23C434.576 289.07 434.836 287.41 435.356 286.25C435.896 285.07 436.946 284.48 438.506 284.48C440.046 284.48 441.076 285.07 441.596 286.25C442.136 287.41 442.406 289.07 442.406 291.23ZM449.361 291.23C449.361 298.41 452.061 302 457.461 302C460.321 302 462.381 301.04 463.641 299.12C464.901 297.2 465.531 294.57 465.531 291.23C465.531 287.91 464.901 285.29 463.641 283.37C462.381 281.45 460.321 280.49 457.461 280.49C452.061 280.49 449.361 284.07 449.361 291.23ZM461.361 291.23C461.361 293.41 461.091 295.09 460.551 296.27C460.031 297.43 459.001 298.01 457.461 298.01C455.901 298.01 454.851 297.43 454.311 296.27C453.791 295.09 453.531 293.41 453.531 291.23C453.531 289.07 453.791 287.41 454.311 286.25C454.851 285.07 455.901 284.48 457.461 284.48C459.001 284.48 460.031 285.07 460.551 286.25C461.091 287.41 461.361 289.07 461.361 291.23Z" fill="#2F2E8B"/>
<rect x="407" y="451" width="239" height="17" rx="8.5" fill="#F4F9FE"/>
<rect x="406" y="452" width="29" height="16" rx="8" fill="#FEE895"/>
<path d="M250.826 446.806C250.826 447.441 250.673 448.036 250.367 448.591C250.072 449.146 249.602 449.594 248.956 449.934C248.321 450.274 247.517 450.444 246.542 450.444L244.553 450.444L244.553 455L242.173 455L242.173 443.134L246.542 443.134C247.46 443.134 248.242 443.293 248.888 443.61C249.534 443.927 250.016 444.364 250.333 444.919C250.662 445.474 250.826 446.103 250.826 446.806ZM246.44 448.523C247.097 448.523 247.585 448.376 247.902 448.081C248.219 447.775 248.378 447.35 248.378 446.806C248.378 445.65 247.732 445.072 246.44 445.072L244.553 445.072L244.553 448.523L246.44 448.523ZM261.271 450.087C261.271 450.427 261.248 450.733 261.203 451.005L254.318 451.005C254.374 451.685 254.612 452.218 255.032 452.603C255.451 452.988 255.967 453.181 256.579 453.181C257.463 453.181 258.092 452.801 258.466 452.042L261.033 452.042C260.761 452.949 260.239 453.697 259.469 454.286C258.698 454.864 257.752 455.153 256.63 455.153C255.723 455.153 254.907 454.955 254.182 454.558C253.468 454.15 252.907 453.578 252.499 452.841C252.102 452.104 251.904 451.254 251.904 450.291C251.904 449.316 252.102 448.461 252.499 447.724C252.895 446.987 253.451 446.421 254.165 446.024C254.879 445.627 255.7 445.429 256.63 445.429C257.525 445.429 258.324 445.622 259.027 446.007C259.741 446.392 260.29 446.942 260.676 447.656C261.072 448.359 261.271 449.169 261.271 450.087ZM258.806 449.407C258.794 448.795 258.573 448.308 258.143 447.945C257.712 447.571 257.185 447.384 256.562 447.384C255.972 447.384 255.474 447.565 255.066 447.928C254.669 448.279 254.425 448.772 254.335 449.407L258.806 449.407ZM265.388 447.044C265.694 446.545 266.091 446.154 266.578 445.871C267.077 445.588 267.643 445.446 268.278 445.446L268.278 447.945L267.649 447.945C266.901 447.945 266.334 448.121 265.949 448.472C265.575 448.823 265.388 449.435 265.388 450.308L265.388 455L263.008 455L263.008 445.582L265.388 445.582L265.388 447.044ZM274.199 447.537L272.55 447.537L272.55 455L270.136 455L270.136 447.537L269.065 447.537L269.065 445.582L270.136 445.582L270.136 445.106C270.136 443.95 270.465 443.1 271.122 442.556C271.779 442.012 272.771 441.757 274.097 441.791L274.097 443.797C273.519 443.786 273.117 443.882 272.89 444.086C272.663 444.29 272.55 444.658 272.55 445.191L272.55 445.582L274.199 445.582L274.199 447.537ZM279.923 455.153C279.017 455.153 278.201 454.955 277.475 454.558C276.75 454.15 276.178 453.578 275.758 452.841C275.35 452.104 275.146 451.254 275.146 450.291C275.146 449.328 275.356 448.478 275.775 447.741C276.206 447.004 276.79 446.438 277.526 446.041C278.263 445.633 279.085 445.429 279.991 445.429C280.898 445.429 281.72 445.633 282.456 446.041C283.193 446.438 283.771 447.004 284.19 447.741C284.621 448.478 284.836 449.328 284.836 450.291C284.836 451.254 284.615 452.104 284.173 452.841C283.743 453.578 283.153 454.15 282.405 454.558C281.669 454.955 280.841 455.153 279.923 455.153ZM279.923 453.079C280.354 453.079 280.756 452.977 281.13 452.773C281.516 452.558 281.822 452.24 282.048 451.821C282.275 451.402 282.388 450.892 282.388 450.291C282.388 449.396 282.15 448.71 281.674 448.234C281.21 447.747 280.637 447.503 279.957 447.503C279.277 447.503 278.705 447.747 278.24 448.234C277.787 448.71 277.56 449.396 277.56 450.291C277.56 451.186 277.781 451.878 278.223 452.365C278.677 452.841 279.243 453.079 279.923 453.079ZM288.962 447.044C289.268 446.545 289.665 446.154 290.152 445.871C290.651 445.588 291.218 445.446 291.852 445.446L291.852 447.945L291.223 447.945C290.475 447.945 289.909 448.121 289.523 448.472C289.149 448.823 288.962 449.435 288.962 450.308L288.962 455L286.582 455L286.582 445.582L288.962 445.582L288.962 447.044ZM305.151 445.446C306.307 445.446 307.237 445.803 307.939 446.517C308.653 447.22 309.01 448.206 309.01 449.475L309.01 455L306.63 455L306.63 449.798C306.63 449.061 306.443 448.5 306.069 448.115C305.695 447.718 305.185 447.52 304.539 447.52C303.893 447.52 303.378 447.718 302.992 448.115C302.618 448.5 302.431 449.061 302.431 449.798L302.431 455L300.051 455L300.051 449.798C300.051 449.061 299.864 448.5 299.49 448.115C299.116 447.718 298.606 447.52 297.96 447.52C297.303 447.52 296.782 447.718 296.396 448.115C296.022 448.5 295.835 449.061 295.835 449.798L295.835 455L293.455 455L293.455 445.582L295.835 445.582L295.835 446.721C296.141 446.324 296.532 446.013 297.008 445.786C297.496 445.559 298.028 445.446 298.606 445.446C299.343 445.446 300 445.605 300.578 445.922C301.156 446.228 301.604 446.67 301.921 447.248C302.227 446.704 302.669 446.268 303.247 445.939C303.837 445.61 304.471 445.446 305.151 445.446ZM310.657 450.257C310.657 449.305 310.844 448.461 311.218 447.724C311.603 446.987 312.119 446.421 312.765 446.024C313.422 445.627 314.153 445.429 314.958 445.429C315.66 445.429 316.272 445.571 316.794 445.854C317.326 446.137 317.751 446.494 318.069 446.925L318.069 445.582L320.466 445.582L320.466 455L318.069 455L318.069 453.623C317.763 454.065 317.338 454.433 316.794 454.728C316.261 455.011 315.643 455.153 314.941 455.153C314.147 455.153 313.422 454.949 312.765 454.541C312.119 454.133 311.603 453.561 311.218 452.824C310.844 452.076 310.657 451.22 310.657 450.257ZM318.069 450.291C318.069 449.713 317.955 449.22 317.729 448.812C317.502 448.393 317.196 448.075 316.811 447.86C316.425 447.633 316.012 447.52 315.57 447.52C315.128 447.52 314.72 447.628 314.346 447.843C313.972 448.058 313.666 448.376 313.428 448.795C313.201 449.203 313.088 449.69 313.088 450.257C313.088 450.824 313.201 451.322 313.428 451.753C313.666 452.172 313.972 452.495 314.346 452.722C314.731 452.949 315.139 453.062 315.57 453.062C316.012 453.062 316.425 452.954 316.811 452.739C317.196 452.512 317.502 452.195 317.729 451.787C317.955 451.368 318.069 450.869 318.069 450.291ZM328.009 445.446C329.131 445.446 330.038 445.803 330.729 446.517C331.421 447.22 331.766 448.206 331.766 449.475L331.766 455L329.386 455L329.386 449.798C329.386 449.05 329.199 448.478 328.825 448.081C328.451 447.673 327.941 447.469 327.295 447.469C326.638 447.469 326.117 447.673 325.731 448.081C325.357 448.478 325.17 449.05 325.17 449.798L325.17 455L322.79 455L322.79 445.582L325.17 445.582L325.17 446.755C325.488 446.347 325.89 446.03 326.377 445.803C326.876 445.565 327.42 445.446 328.009 445.446ZM333.417 450.291C333.417 449.316 333.616 448.466 334.012 447.741C334.409 447.004 334.959 446.438 335.661 446.041C336.364 445.633 337.169 445.429 338.075 445.429C339.243 445.429 340.206 445.724 340.965 446.313C341.736 446.891 342.252 447.707 342.512 448.761L339.945 448.761C339.809 448.353 339.577 448.036 339.248 447.809C338.931 447.571 338.534 447.452 338.058 447.452C337.378 447.452 336.84 447.701 336.443 448.2C336.047 448.687 335.848 449.384 335.848 450.291C335.848 451.186 336.047 451.883 336.443 452.382C336.84 452.869 337.378 453.113 338.058 453.113C339.022 453.113 339.651 452.682 339.945 451.821L342.512 451.821C342.252 452.841 341.736 453.651 340.965 454.252C340.195 454.853 339.231 455.153 338.075 455.153C337.169 455.153 336.364 454.955 335.661 454.558C334.959 454.15 334.409 453.583 334.012 452.858C333.616 452.121 333.417 451.266 333.417 450.291ZM353.011 450.087C353.011 450.427 352.988 450.733 352.943 451.005L346.058 451.005C346.115 451.685 346.353 452.218 346.772 452.603C347.191 452.988 347.707 453.181 348.319 453.181C349.203 453.181 349.832 452.801 350.206 452.042L352.773 452.042C352.501 452.949 351.98 453.697 351.209 454.286C350.438 454.864 349.492 455.153 348.37 455.153C347.463 455.153 346.647 454.955 345.922 454.558C345.208 454.15 344.647 453.578 344.239 452.841C343.842 452.104 343.644 451.254 343.644 450.291C343.644 449.316 343.842 448.461 344.239 447.724C344.636 446.987 345.191 446.421 345.905 446.024C346.619 445.627 347.441 445.429 348.37 445.429C349.265 445.429 350.064 445.622 350.767 446.007C351.481 446.392 352.031 446.942 352.416 447.656C352.813 448.359 353.011 449.169 353.011 450.087ZM350.546 449.407C350.535 448.795 350.314 448.308 349.883 447.945C349.452 447.571 348.925 447.384 348.302 447.384C347.713 447.384 347.214 447.565 346.806 447.928C346.409 448.279 346.166 448.772 346.075 449.407L350.546 449.407Z" fill="#2F2E8B"/>
<path d="M242.649 474.314C243.737 473.407 244.604 472.654 245.25 472.053C245.896 471.441 246.434 470.806 246.865 470.149C247.296 469.492 247.511 468.846 247.511 468.211C247.511 467.633 247.375 467.18 247.103 466.851C246.831 466.522 246.412 466.358 245.845 466.358C245.278 466.358 244.842 466.551 244.536 466.936C244.23 467.31 244.071 467.826 244.06 468.483L241.748 468.483C241.793 467.123 242.196 466.092 242.955 465.389C243.726 464.686 244.7 464.335 245.879 464.335C247.171 464.335 248.163 464.681 248.854 465.372C249.545 466.052 249.891 466.953 249.891 468.075C249.891 468.959 249.653 469.803 249.177 470.608C248.701 471.413 248.157 472.115 247.545 472.716C246.933 473.305 246.134 474.019 245.148 474.858L250.163 474.858L250.163 476.83L241.765 476.83L241.765 475.062L242.649 474.314ZM251.663 470.642C251.663 468.681 252.014 467.146 252.717 466.035C253.431 464.924 254.609 464.369 256.253 464.369C257.896 464.369 259.069 464.924 259.772 466.035C260.486 467.146 260.843 468.681 260.843 470.642C260.843 472.614 260.486 474.161 259.772 475.283C259.069 476.405 257.896 476.966 256.253 476.966C254.609 476.966 253.431 476.405 252.717 475.283C252.014 474.161 251.663 472.614 251.663 470.642ZM258.497 470.642C258.497 469.803 258.44 469.101 258.327 468.534C258.225 467.956 258.009 467.486 257.681 467.123C257.363 466.76 256.887 466.579 256.253 466.579C255.618 466.579 255.136 466.76 254.808 467.123C254.49 467.486 254.275 467.956 254.162 468.534C254.06 469.101 254.009 469.803 254.009 470.642C254.009 471.503 254.06 472.229 254.162 472.818C254.264 473.396 254.479 473.866 254.808 474.229C255.136 474.58 255.618 474.756 256.253 474.756C256.887 474.756 257.369 474.58 257.698 474.229C258.026 473.866 258.242 473.396 258.344 472.818C258.446 472.229 258.497 471.503 258.497 470.642ZM270.58 477.153C269.809 477.153 269.118 477.017 268.506 476.745C267.894 476.462 267.406 476.082 267.044 475.606C266.692 475.13 266.5 474.603 266.466 474.025L268.863 474.025C268.908 474.388 269.084 474.688 269.39 474.926C269.707 475.164 270.098 475.283 270.563 475.283C271.016 475.283 271.367 475.192 271.617 475.011C271.877 474.83 272.008 474.597 272.008 474.314C272.008 474.008 271.849 473.781 271.532 473.634C271.226 473.475 270.733 473.305 270.053 473.124C269.35 472.954 268.772 472.778 268.319 472.597C267.877 472.416 267.491 472.138 267.163 471.764C266.845 471.39 266.687 470.886 266.687 470.251C266.687 469.73 266.834 469.254 267.129 468.823C267.435 468.392 267.865 468.052 268.421 467.803C268.987 467.554 269.65 467.429 270.41 467.429C271.532 467.429 272.427 467.712 273.096 468.279C273.764 468.834 274.133 469.588 274.201 470.54L271.923 470.54C271.889 470.166 271.73 469.871 271.447 469.656C271.175 469.429 270.806 469.316 270.342 469.316C269.911 469.316 269.577 469.395 269.339 469.554C269.112 469.713 268.999 469.934 268.999 470.217C268.999 470.534 269.157 470.778 269.475 470.948C269.792 471.107 270.285 471.271 270.954 471.441C271.634 471.611 272.195 471.787 272.637 471.968C273.079 472.149 273.458 472.433 273.776 472.818C274.104 473.192 274.274 473.691 274.286 474.314C274.286 474.858 274.133 475.345 273.827 475.776C273.532 476.207 273.101 476.547 272.535 476.796C271.979 477.034 271.328 477.153 270.58 477.153ZM284.994 472.087C284.994 472.427 284.972 472.733 284.926 473.005L278.041 473.005C278.098 473.685 278.336 474.218 278.755 474.603C279.175 474.988 279.69 475.181 280.302 475.181C281.186 475.181 281.815 474.801 282.189 474.042L284.756 474.042C284.484 474.949 283.963 475.697 283.192 476.286C282.422 476.864 281.475 477.153 280.353 477.153C279.447 477.153 278.631 476.955 277.905 476.558C277.191 476.15 276.63 475.578 276.222 474.841C275.826 474.104 275.627 473.254 275.627 472.291C275.627 471.316 275.826 470.461 276.222 469.724C276.619 468.987 277.174 468.421 277.888 468.024C278.602 467.627 279.424 467.429 280.353 467.429C281.249 467.429 282.048 467.622 282.75 468.007C283.464 468.392 284.014 468.942 284.399 469.656C284.796 470.359 284.994 471.169 284.994 472.087ZM282.529 471.407C282.518 470.795 282.297 470.308 281.866 469.945C281.436 469.571 280.909 469.384 280.285 469.384C279.696 469.384 279.197 469.565 278.789 469.928C278.393 470.279 278.149 470.772 278.058 471.407L282.529 471.407ZM286.12 472.291C286.12 471.316 286.318 470.466 286.715 469.741C287.111 469.004 287.661 468.438 288.364 468.041C289.066 467.633 289.871 467.429 290.778 467.429C291.945 467.429 292.908 467.724 293.668 468.313C294.438 468.891 294.954 469.707 295.215 470.761L292.648 470.761C292.512 470.353 292.279 470.036 291.951 469.809C291.633 469.571 291.237 469.452 290.761 469.452C290.081 469.452 289.542 469.701 289.146 470.2C288.749 470.687 288.551 471.384 288.551 472.291C288.551 473.186 288.749 473.883 289.146 474.382C289.542 474.869 290.081 475.113 290.761 475.113C291.724 475.113 292.353 474.682 292.648 473.821L295.215 473.821C294.954 474.841 294.438 475.651 293.668 476.252C292.897 476.853 291.934 477.153 290.778 477.153C289.871 477.153 289.066 476.955 288.364 476.558C287.661 476.15 287.111 475.583 286.715 474.858C286.318 474.121 286.12 473.266 286.12 472.291ZM300.562 477.153C299.791 477.153 299.1 477.017 298.488 476.745C297.876 476.462 297.389 476.082 297.026 475.606C296.675 475.13 296.482 474.603 296.448 474.025L298.845 474.025C298.89 474.388 299.066 474.688 299.372 474.926C299.689 475.164 300.08 475.283 300.545 475.283C300.998 475.283 301.35 475.192 301.599 475.011C301.86 474.83 301.99 474.597 301.99 474.314C301.99 474.008 301.831 473.781 301.514 473.634C301.208 473.475 300.715 473.305 300.035 473.124C299.332 472.954 298.754 472.778 298.301 472.597C297.859 472.416 297.474 472.138 297.145 471.764C296.828 471.39 296.669 470.886 296.669 470.251C296.669 469.73 296.816 469.254 297.111 468.823C297.417 468.392 297.848 468.052 298.403 467.803C298.97 467.554 299.633 467.429 300.392 467.429C301.514 467.429 302.409 467.712 303.078 468.279C303.747 468.834 304.115 469.588 304.183 470.54L301.905 470.54C301.871 470.166 301.712 469.871 301.429 469.656C301.157 469.429 300.789 469.316 300.324 469.316C299.893 469.316 299.559 469.395 299.321 469.554C299.094 469.713 298.981 469.934 298.981 470.217C298.981 470.534 299.14 470.778 299.457 470.948C299.774 471.107 300.267 471.271 300.936 471.441C301.616 471.611 302.177 471.787 302.619 471.968C303.061 472.149 303.441 472.433 303.758 472.818C304.087 473.192 304.257 473.691 304.268 474.314C304.268 474.858 304.115 475.345 303.809 475.776C303.514 476.207 303.084 476.547 302.517 476.796C301.962 477.034 301.31 477.153 300.562 477.153Z" fill="#5E709D"/>
<rect x="407" y="526" width="239" height="17" rx="8.5" fill="#F4F9FE"/>
<rect x="406" y="527" width="228" height="16" rx="8" fill="#FD7A8C"/>
<path d="M246.27 530.119C245.443 530.119 244.695 529.977 244.026 529.694C243.369 529.411 242.847 529.003 242.462 528.47C242.077 527.937 241.878 527.308 241.867 526.583L244.417 526.583C244.451 527.07 244.621 527.456 244.927 527.739C245.244 528.022 245.675 528.164 246.219 528.164C246.774 528.164 247.211 528.034 247.528 527.773C247.845 527.501 248.004 527.15 248.004 526.719C248.004 526.368 247.896 526.079 247.681 525.852C247.466 525.625 247.194 525.45 246.865 525.325C246.548 525.189 246.106 525.042 245.539 524.883C244.768 524.656 244.139 524.435 243.652 524.22C243.176 523.993 242.762 523.659 242.411 523.217C242.071 522.764 241.901 522.163 241.901 521.415C241.901 520.712 242.077 520.1 242.428 519.579C242.779 519.058 243.272 518.661 243.907 518.389C244.542 518.106 245.267 517.964 246.083 517.964C247.307 517.964 248.299 518.264 249.058 518.865C249.829 519.454 250.254 520.282 250.333 521.347L247.715 521.347C247.692 520.939 247.517 520.605 247.188 520.344C246.871 520.072 246.446 519.936 245.913 519.936C245.448 519.936 245.074 520.055 244.791 520.293C244.519 520.531 244.383 520.877 244.383 521.33C244.383 521.647 244.485 521.914 244.689 522.129C244.904 522.333 245.165 522.503 245.471 522.639C245.788 522.764 246.23 522.911 246.797 523.081C247.568 523.308 248.197 523.534 248.684 523.761C249.171 523.988 249.591 524.328 249.942 524.781C250.293 525.234 250.469 525.829 250.469 526.566C250.469 527.201 250.305 527.79 249.976 528.334C249.647 528.878 249.166 529.314 248.531 529.643C247.896 529.96 247.143 530.119 246.27 530.119ZM251.92 525.291C251.92 524.316 252.119 523.466 252.515 522.741C252.912 522.004 253.462 521.438 254.164 521.041C254.867 520.633 255.672 520.429 256.578 520.429C257.746 520.429 258.709 520.724 259.468 521.313C260.239 521.891 260.755 522.707 261.015 523.761L258.448 523.761C258.312 523.353 258.08 523.036 257.751 522.809C257.434 522.571 257.037 522.452 256.561 522.452C255.881 522.452 255.343 522.701 254.946 523.2C254.55 523.687 254.351 524.384 254.351 525.291C254.351 526.186 254.55 526.883 254.946 527.382C255.343 527.869 255.881 528.113 256.561 528.113C257.525 528.113 258.154 527.682 258.448 526.821L261.015 526.821C260.755 527.841 260.239 528.651 259.468 529.252C258.698 529.853 257.734 530.153 256.578 530.153C255.672 530.153 254.867 529.955 254.164 529.558C253.462 529.15 252.912 528.583 252.515 527.858C252.119 527.121 251.92 526.266 251.92 525.291ZM266.941 530.153C266.034 530.153 265.218 529.955 264.493 529.558C263.768 529.15 263.195 528.578 262.776 527.841C262.368 527.104 262.164 526.254 262.164 525.291C262.164 524.328 262.374 523.478 262.793 522.741C263.224 522.004 263.807 521.438 264.544 521.041C265.281 520.633 266.102 520.429 267.009 520.429C267.916 520.429 268.737 520.633 269.474 521.041C270.211 521.438 270.789 522.004 271.208 522.741C271.639 523.478 271.854 524.328 271.854 525.291C271.854 526.254 271.633 527.104 271.191 527.841C270.76 528.578 270.171 529.15 269.423 529.558C268.686 529.955 267.859 530.153 266.941 530.153ZM266.941 528.079C267.372 528.079 267.774 527.977 268.148 527.773C268.533 527.558 268.839 527.24 269.066 526.821C269.293 526.402 269.406 525.892 269.406 525.291C269.406 524.396 269.168 523.71 268.692 523.234C268.227 522.747 267.655 522.503 266.975 522.503C266.295 522.503 265.723 522.747 265.258 523.234C264.805 523.71 264.578 524.396 264.578 525.291C264.578 526.186 264.799 526.878 265.241 527.365C265.694 527.841 266.261 528.079 266.941 528.079ZM275.98 522.044C276.286 521.545 276.682 521.154 277.17 520.871C277.668 520.588 278.235 520.446 278.87 520.446L278.87 522.945L278.241 522.945C277.493 522.945 276.926 523.121 276.541 523.472C276.167 523.823 275.98 524.435 275.98 525.308L275.98 530L273.6 530L273.6 520.582L275.98 520.582L275.98 522.044ZM289.228 525.087C289.228 525.427 289.205 525.733 289.16 526.005L282.275 526.005C282.331 526.685 282.569 527.218 282.989 527.603C283.408 527.988 283.924 528.181 284.536 528.181C285.42 528.181 286.049 527.801 286.423 527.042L288.99 527.042C288.718 527.949 288.196 528.697 287.426 529.286C286.655 529.864 285.709 530.153 284.587 530.153C283.68 530.153 282.864 529.955 282.139 529.558C281.425 529.15 280.864 528.578 280.456 527.841C280.059 527.104 279.861 526.254 279.861 525.291C279.861 524.316 280.059 523.461 280.456 522.724C280.852 521.987 281.408 521.421 282.122 521.024C282.836 520.627 283.657 520.429 284.587 520.429C285.482 520.429 286.281 520.622 286.984 521.007C287.698 521.392 288.247 521.942 288.633 522.656C289.029 523.359 289.228 524.169 289.228 525.087ZM286.763 524.407C286.751 523.795 286.53 523.308 286.1 522.945C285.669 522.571 285.142 522.384 284.519 522.384C283.929 522.384 283.431 522.565 283.023 522.928C282.626 523.279 282.382 523.772 282.292 524.407L286.763 524.407Z" fill="#2F2E8B"/>
<path d="M244.655 548.515C244.746 549.014 244.95 549.399 245.267 549.671C245.596 549.932 246.032 550.062 246.576 550.062C247.279 550.062 247.789 549.773 248.106 549.195C248.423 548.606 248.582 547.62 248.582 546.237C248.321 546.6 247.953 546.883 247.477 547.087C247.012 547.291 246.508 547.393 245.964 547.393C245.239 547.393 244.581 547.246 243.992 546.951C243.414 546.645 242.955 546.197 242.615 545.608C242.275 545.007 242.105 544.282 242.105 543.432C242.105 542.174 242.479 541.177 243.227 540.44C243.975 539.692 244.995 539.318 246.287 539.318C247.896 539.318 249.03 539.834 249.687 540.865C250.356 541.896 250.69 543.449 250.69 545.523C250.69 546.996 250.56 548.203 250.299 549.144C250.05 550.085 249.613 550.799 248.99 551.286C248.378 551.773 247.539 552.017 246.474 552.017C245.635 552.017 244.921 551.858 244.332 551.541C243.743 551.212 243.289 550.787 242.972 550.266C242.666 549.733 242.49 549.15 242.445 548.515L244.655 548.515ZM246.457 545.455C247.046 545.455 247.511 545.274 247.851 544.911C248.191 544.548 248.361 544.061 248.361 543.449C248.361 542.78 248.18 542.265 247.817 541.902C247.466 541.528 246.984 541.341 246.372 541.341C245.76 541.341 245.273 541.534 244.91 541.919C244.559 542.293 244.383 542.792 244.383 543.415C244.383 544.016 244.553 544.509 244.893 544.894C245.244 545.268 245.766 545.455 246.457 545.455ZM260.431 541.409L255.909 552L253.495 552L258.051 541.681L252.237 541.681L252.237 539.641L260.431 539.641L260.431 541.409ZM268.503 535.901L263.913 555.077L261.584 555.077L266.174 535.901L268.503 535.901ZM269.835 541.8L269.835 539.607L273.932 539.607L273.932 552L271.484 552L271.484 541.8L269.835 541.8ZM276.283 545.642C276.283 543.681 276.634 542.146 277.337 541.035C278.051 539.924 279.23 539.369 280.873 539.369C282.516 539.369 283.689 539.924 284.392 541.035C285.106 542.146 285.463 543.681 285.463 545.642C285.463 547.614 285.106 549.161 284.392 550.283C283.689 551.405 282.516 551.966 280.873 551.966C279.23 551.966 278.051 551.405 277.337 550.283C276.634 549.161 276.283 547.614 276.283 545.642ZM283.117 545.642C283.117 544.803 283.06 544.101 282.947 543.534C282.845 542.956 282.63 542.486 282.301 542.123C281.984 541.76 281.508 541.579 280.873 541.579C280.238 541.579 279.757 541.76 279.428 542.123C279.111 542.486 278.895 542.956 278.782 543.534C278.68 544.101 278.629 544.803 278.629 545.642C278.629 546.503 278.68 547.229 278.782 547.818C278.884 548.396 279.099 548.866 279.428 549.229C279.757 549.58 280.238 549.756 280.873 549.756C281.508 549.756 281.989 549.58 282.318 549.229C282.647 548.866 282.862 548.396 282.964 547.818C283.066 547.229 283.117 546.503 283.117 545.642ZM287.273 545.642C287.273 543.681 287.624 542.146 288.327 541.035C289.041 539.924 290.22 539.369 291.863 539.369C293.506 539.369 294.679 539.924 295.382 541.035C296.096 542.146 296.453 543.681 296.453 545.642C296.453 547.614 296.096 549.161 295.382 550.283C294.679 551.405 293.506 551.966 291.863 551.966C290.22 551.966 289.041 551.405 288.327 550.283C287.624 549.161 287.273 547.614 287.273 545.642ZM294.107 545.642C294.107 544.803 294.05 544.101 293.937 543.534C293.835 542.956 293.62 542.486 293.291 542.123C292.974 541.76 292.498 541.579 291.863 541.579C291.228 541.579 290.747 541.76 290.418 542.123C290.101 542.486 289.885 542.956 289.772 543.534C289.67 544.101 289.619 544.803 289.619 545.642C289.619 546.503 289.67 547.229 289.772 547.818C289.874 548.396 290.089 548.866 290.418 549.229C290.747 549.58 291.228 549.756 291.863 549.756C292.498 549.756 292.979 549.58 293.308 549.229C293.637 548.866 293.852 548.396 293.954 547.818C294.056 547.229 294.107 546.503 294.107 545.642Z" fill="#5E709D"/>
<rect x="407" y="591" width="239" height="17" rx="8.5" fill="#F4F9FE"/>
<rect x="406" y="592" width="215" height="16" rx="8" fill="#956FFF"/>
<path d="M246.27 595.119C245.443 595.119 244.695 594.977 244.026 594.694C243.369 594.411 242.847 594.003 242.462 593.47C242.077 592.937 241.878 592.308 241.867 591.583L244.417 591.583C244.451 592.07 244.621 592.456 244.927 592.739C245.244 593.022 245.675 593.164 246.219 593.164C246.774 593.164 247.211 593.034 247.528 592.773C247.845 592.501 248.004 592.15 248.004 591.719C248.004 591.368 247.896 591.079 247.681 590.852C247.466 590.625 247.194 590.45 246.865 590.325C246.548 590.189 246.106 590.042 245.539 589.883C244.768 589.656 244.139 589.435 243.652 589.22C243.176 588.993 242.762 588.659 242.411 588.217C242.071 587.764 241.901 587.163 241.901 586.415C241.901 585.712 242.077 585.1 242.428 584.579C242.779 584.058 243.272 583.661 243.907 583.389C244.542 583.106 245.267 582.964 246.083 582.964C247.307 582.964 248.299 583.264 249.058 583.865C249.829 584.454 250.254 585.282 250.333 586.347L247.715 586.347C247.692 585.939 247.517 585.605 247.188 585.344C246.871 585.072 246.446 584.936 245.913 584.936C245.448 584.936 245.074 585.055 244.791 585.293C244.519 585.531 244.383 585.877 244.383 586.33C244.383 586.647 244.485 586.914 244.689 587.129C244.904 587.333 245.165 587.503 245.471 587.639C245.788 587.764 246.23 587.911 246.797 588.081C247.568 588.308 248.197 588.534 248.684 588.761C249.171 588.988 249.591 589.328 249.942 589.781C250.293 590.234 250.469 590.829 250.469 591.566C250.469 592.201 250.305 592.79 249.976 593.334C249.647 593.878 249.166 594.314 248.531 594.643C247.896 594.96 247.143 595.119 246.27 595.119ZM254.912 585.055L254.912 588.03L258.907 588.03L258.907 589.917L254.912 589.917L254.912 593.062L259.417 593.062L259.417 595L252.532 595L252.532 583.117L259.417 583.117L259.417 585.055L254.912 585.055ZM267.088 595.119C265.978 595.119 264.958 594.858 264.028 594.337C263.099 593.816 262.362 593.096 261.818 592.178C261.274 591.249 261.002 590.2 261.002 589.033C261.002 587.877 261.274 586.84 261.818 585.922C262.362 584.993 263.099 584.267 264.028 583.746C264.958 583.225 265.978 582.964 267.088 582.964C268.21 582.964 269.23 583.225 270.148 583.746C271.078 584.267 271.809 584.993 272.341 585.922C272.885 586.84 273.157 587.877 273.157 589.033C273.157 590.2 272.885 591.249 272.341 592.178C271.809 593.096 271.078 593.816 270.148 594.337C269.219 594.858 268.199 595.119 267.088 595.119ZM267.088 592.994C267.802 592.994 268.431 592.835 268.975 592.518C269.519 592.189 269.944 591.725 270.25 591.124C270.556 590.523 270.709 589.826 270.709 589.033C270.709 588.24 270.556 587.548 270.25 586.959C269.944 586.358 269.519 585.899 268.975 585.582C268.431 585.265 267.802 585.106 267.088 585.106C266.374 585.106 265.74 585.265 265.184 585.582C264.64 585.899 264.215 586.358 263.909 586.959C263.603 587.548 263.45 588.24 263.45 589.033C263.45 589.826 263.603 590.523 263.909 591.124C264.215 591.725 264.64 592.189 265.184 592.518C265.74 592.835 266.374 592.994 267.088 592.994Z" fill="#2F2E8B"/>
<path d="M244.655 613.515C244.746 614.014 244.95 614.399 245.267 614.671C245.596 614.932 246.032 615.062 246.576 615.062C247.279 615.062 247.789 614.773 248.106 614.195C248.423 613.606 248.582 612.62 248.582 611.237C248.321 611.6 247.953 611.883 247.477 612.087C247.012 612.291 246.508 612.393 245.964 612.393C245.239 612.393 244.581 612.246 243.992 611.951C243.414 611.645 242.955 611.197 242.615 610.608C242.275 610.007 242.105 609.282 242.105 608.432C242.105 607.174 242.479 606.177 243.227 605.44C243.975 604.692 244.995 604.318 246.287 604.318C247.896 604.318 249.03 604.834 249.687 605.865C250.356 606.896 250.69 608.449 250.69 610.523C250.69 611.996 250.56 613.203 250.299 614.144C250.05 615.085 249.613 615.799 248.99 616.286C248.378 616.773 247.539 617.017 246.474 617.017C245.635 617.017 244.921 616.858 244.332 616.541C243.743 616.212 243.289 615.787 242.972 615.266C242.666 614.733 242.49 614.15 242.445 613.515L244.655 613.515ZM246.457 610.455C247.046 610.455 247.511 610.274 247.851 609.911C248.191 609.548 248.361 609.061 248.361 608.449C248.361 607.78 248.18 607.265 247.817 606.902C247.466 606.528 246.984 606.341 246.372 606.341C245.76 606.341 245.273 606.534 244.91 606.919C244.559 607.293 244.383 607.792 244.383 608.415C244.383 609.016 244.553 609.509 244.893 609.894C245.244 610.268 245.766 610.455 246.457 610.455ZM253.291 614.314C254.379 613.407 255.246 612.654 255.892 612.053C256.538 611.441 257.076 610.806 257.507 610.149C257.937 609.492 258.153 608.846 258.153 608.211C258.153 607.633 258.017 607.18 257.745 606.851C257.473 606.522 257.053 606.358 256.487 606.358C255.92 606.358 255.484 606.551 255.178 606.936C254.872 607.31 254.713 607.826 254.702 608.483L252.39 608.483C252.435 607.123 252.837 606.092 253.597 605.389C254.367 604.686 255.342 604.335 256.521 604.335C257.813 604.335 258.804 604.681 259.496 605.372C260.187 606.052 260.533 606.953 260.533 608.075C260.533 608.959 260.295 609.803 259.819 610.608C259.343 611.413 258.799 612.115 258.187 612.716C257.575 613.305 256.776 614.019 255.79 614.858L260.805 614.858L260.805 616.83L252.407 616.83L252.407 615.062L253.291 614.314ZM268.951 600.901L264.361 620.077L262.032 620.077L266.622 600.901L268.951 600.901ZM270.283 606.8L270.283 604.607L274.38 604.607L274.38 617L271.932 617L271.932 606.8L270.283 606.8ZM276.731 610.642C276.731 608.681 277.082 607.146 277.785 606.035C278.499 604.924 279.678 604.369 281.321 604.369C282.964 604.369 284.137 604.924 284.84 606.035C285.554 607.146 285.911 608.681 285.911 610.642C285.911 612.614 285.554 614.161 284.84 615.283C284.137 616.405 282.964 616.966 281.321 616.966C279.678 616.966 278.499 616.405 277.785 615.283C277.082 614.161 276.731 612.614 276.731 610.642ZM283.565 610.642C283.565 609.803 283.508 609.101 283.395 608.534C283.293 607.956 283.078 607.486 282.749 607.123C282.432 606.76 281.956 606.579 281.321 606.579C280.686 606.579 280.205 606.76 279.876 607.123C279.559 607.486 279.343 607.956 279.23 608.534C279.128 609.101 279.077 609.803 279.077 610.642C279.077 611.503 279.128 612.229 279.23 612.818C279.332 613.396 279.547 613.866 279.876 614.229C280.205 614.58 280.686 614.756 281.321 614.756C281.956 614.756 282.437 614.58 282.766 614.229C283.095 613.866 283.31 613.396 283.412 612.818C283.514 612.229 283.565 611.503 283.565 610.642ZM287.721 610.642C287.721 608.681 288.073 607.146 288.775 606.035C289.489 604.924 290.668 604.369 292.311 604.369C293.955 604.369 295.128 604.924 295.83 606.035C296.544 607.146 296.901 608.681 296.901 610.642C296.901 612.614 296.544 614.161 295.83 615.283C295.128 616.405 293.955 616.966 292.311 616.966C290.668 616.966 289.489 616.405 288.775 615.283C288.073 614.161 287.721 612.614 287.721 610.642ZM294.555 610.642C294.555 609.803 294.499 609.101 294.385 608.534C294.283 607.956 294.068 607.486 293.739 607.123C293.422 606.76 292.946 606.579 292.311 606.579C291.677 606.579 291.195 606.76 290.866 607.123C290.549 607.486 290.334 607.956 290.22 608.534C290.118 609.101 290.067 609.803 290.067 610.642C290.067 611.503 290.118 612.229 290.22 612.818C290.322 613.396 290.538 613.866 290.866 614.229C291.195 614.58 291.677 614.756 292.311 614.756C292.946 614.756 293.428 614.58 293.756 614.229C294.085 613.866 294.3 613.396 294.402 612.818C294.504 612.229 294.555 611.503 294.555 610.642Z" fill="#5E709D"/>
<defs>
<filter id="filter0_f" x="146.484" y="0" width="591.707" height="807" filterUnits="userSpaceOnUse" color-interpolation-filters="sRGB">
<feFlood flood-opacity="0" result="BackgroundImageFix"/>
<feBlend mode="normal" in="SourceGraphic" in2="BackgroundImageFix" result="shape"/>
<feGaussianBlur stdDeviation="40" result="effect1_foregroundBlur"/>
</filter>
</defs>
</svg>
