<svg width="686" height="539" viewBox="0 0 686 539" fill="none" xmlns="http://www.w3.org/2000/svg">
<path d="M340.596 183.209H0.595703V538.385H340.596V183.209Z" fill="url(#paint0_linear)"/>
<path d="M340.596 183.209L340.596 -232L685.596 183.209L340.596 183.209Z" fill="url(#paint1_linear)"/>
<ellipse cx="380.392" cy="221.12" rx="1.7963" ry="1.85072" fill="#956FFF"/>
<ellipse cx="389.732" cy="221.12" rx="1.7963" ry="1.85072" fill="#956FFF"/>
<ellipse cx="399.074" cy="221.12" rx="1.7963" ry="1.85072" fill="#956FFF"/>
<ellipse cx="408.413" cy="221.12" rx="1.7963" ry="1.85072" fill="#956FFF"/>
<ellipse cx="417.755" cy="221.12" rx="1.7963" ry="1.85072" fill="#956FFF"/>
<ellipse cx="427.095" cy="221.12" rx="1.7963" ry="1.85072" fill="#956FFF"/>
<ellipse cx="436.437" cy="221.12" rx="1.7963" ry="1.85072" fill="#956FFF"/>
<ellipse cx="445.777" cy="221.12" rx="1.7963" ry="1.85072" fill="#956FFF"/>
<ellipse cx="455.119" cy="221.12" rx="1.7963" ry="1.85072" fill="#956FFF"/>
<ellipse cx="464.458" cy="221.12" rx="1.7963" ry="1.85072" fill="#956FFF"/>
<ellipse cx="473.8" cy="221.12" rx="1.7963" ry="1.85072" fill="#956FFF"/>
<ellipse cx="380.392" cy="230.004" rx="1.7963" ry="1.85072" fill="#956FFF"/>
<ellipse cx="389.732" cy="230.004" rx="1.7963" ry="1.85072" fill="#956FFF"/>
<ellipse cx="399.074" cy="230.004" rx="1.7963" ry="1.85072" fill="#956FFF"/>
<ellipse cx="408.413" cy="230.004" rx="1.7963" ry="1.85072" fill="#956FFF"/>
<ellipse cx="417.755" cy="230.004" rx="1.7963" ry="1.85072" fill="#956FFF"/>
<ellipse cx="427.095" cy="230.004" rx="1.7963" ry="1.85072" fill="#956FFF"/>
<ellipse cx="436.437" cy="230.004" rx="1.7963" ry="1.85072" fill="#956FFF"/>
<ellipse cx="445.777" cy="230.004" rx="1.7963" ry="1.85072" fill="#956FFF"/>
<ellipse cx="380.392" cy="238.887" rx="1.7963" ry="1.85072" fill="#956FFF"/>
<ellipse cx="389.732" cy="238.887" rx="1.7963" ry="1.85072" fill="#956FFF"/>
<ellipse cx="399.074" cy="238.887" rx="1.7963" ry="1.85072" fill="#956FFF"/>
<ellipse cx="408.413" cy="238.887" rx="1.7963" ry="1.85072" fill="#956FFF"/>
<ellipse cx="417.755" cy="238.887" rx="1.7963" ry="1.85072" fill="#956FFF"/>
<ellipse cx="380.392" cy="247.771" rx="1.7963" ry="1.85072" fill="#956FFF"/>
<ellipse cx="389.732" cy="247.77" rx="1.7963" ry="1.85072" fill="#956FFF"/>
<ellipse cx="399.074" cy="247.77" rx="1.7963" ry="1.85072" fill="#956FFF"/>
<defs>
<linearGradient id="paint0_linear" x1="378.966" y1="117.081" x2="-55.5367" y2="571.651" gradientUnits="userSpaceOnUse">
<stop stop-color="#9c45da"/>
<stop offset="0.697917" stop-color="#9c45da"/>
</linearGradient>
<linearGradient id="paint1_linear" x1="197.096" y1="307.144" x2="544.089" y2="92.9953" gradientUnits="userSpaceOnUse">
<stop offset="0.03125" stop-color="#956FFF"/>
<stop offset="1" stop-color="#9c45da"/>
</linearGradient>
</defs>
</svg>
